%
M48
M72
T01C0.02362
T02C0.03150
T03C0.03200
T04C0.04000
T05C0.07480
%
T01
X65800Y45800
X41800Y72800
X54800Y81800
X26800Y132800
X80800Y147800
X80800Y163800
X147800Y149800
X182800Y118800
X171800Y93800
X187800Y145800
T02
X170501Y162721
X173650Y167446
X176800Y162721
X179950Y167446
X183099Y162721
T03
X33800Y172800
X43800Y172800
X46800Y187800
X56800Y187800
X65800Y172800
X75800Y172800
X70800Y155800
X94083Y153666
X94083Y143666
X94083Y133666
X94083Y123666
X94083Y113666
X94083Y103666
X94083Y93666
X94083Y83666
X94083Y73666
X94083Y63666
X94083Y53666
X94083Y43666
X94083Y33666
X76800Y22800
X56800Y22800
X41800Y17800
X31800Y17800
X16800Y47800
X6800Y47800
X36800Y57800
X46800Y57800
X26800Y102800
X26800Y122800
X30800Y155800
X66800Y122800
X66800Y102800
X124083Y103666
X124083Y93666
X124083Y83666
X124083Y73666
X124083Y63666
X124083Y53666
X124083Y43666
X124083Y33666
X156800Y37800
X161800Y45300
X166800Y37800
X166800Y17800
X156800Y17800
X146800Y87800
X166800Y87800
X124083Y113666
X124083Y123666
X124083Y133666
X124083Y143666
X124083Y153666
X124083Y163666
X94083Y163666
T04
X6800Y192800
X6800Y182800
X6800Y172800
X6800Y162800
X6800Y152800
X6800Y137800
X6800Y127800
X6800Y117800
X6800Y107800
X6800Y97800
X6800Y87800
X6800Y77800
X6800Y67800
X66800Y62800
X66800Y72800
X66800Y82800
X96800Y7800
X116800Y7800
X193800Y67800
X193800Y77800
X193800Y87800
X193800Y97800
X193800Y107800
X193800Y117800
X193800Y127800
X193800Y137800
X146800Y192800
X136800Y192800
X126800Y192800
X116800Y192800
X106800Y192800
X91800Y192800
X71800Y192800
T05
X162430Y182800
X191170Y182800
M30
