G75*
%MOIN*%
%OFA0B0*%
%FSLAX25Y25*%
%IPPOS*%
%LPD*%
%AMOC8*
5,1,8,0,0,1.08239X$1,22.5*
%
%ADD10C,0.00000*%
%ADD11OC8,0.05200*%
%ADD12C,0.07500*%
%ADD13OC8,0.07500*%
%ADD14C,0.07400*%
%ADD15C,0.05200*%
%ADD16C,0.05150*%
%ADD17C,0.11220*%
%ADD18C,0.01600*%
%ADD19C,0.03562*%
D10*
X0001800Y0002800D02*
X0001800Y0199650D01*
X0198650Y0199650D01*
X0198650Y0002800D01*
X0001800Y0002800D01*
D11*
X0031800Y0017800D03*
X0041800Y0017800D03*
X0016800Y0047800D03*
X0006800Y0047800D03*
X0036800Y0057800D03*
X0046800Y0057800D03*
X0026800Y0102800D03*
X0026800Y0122800D03*
X0030800Y0155800D03*
X0033800Y0172800D03*
X0043800Y0172800D03*
X0046800Y0187800D03*
X0056800Y0187800D03*
X0065800Y0172800D03*
X0075800Y0172800D03*
X0070800Y0155800D03*
X0066800Y0122800D03*
X0066800Y0102800D03*
X0156800Y0037800D03*
X0161800Y0045300D03*
X0166800Y0037800D03*
X0166800Y0017800D03*
X0156800Y0017800D03*
D12*
X0146800Y0087800D03*
X0056800Y0022800D03*
D13*
X0076800Y0022800D03*
X0166800Y0087800D03*
D14*
X0193800Y0087800D03*
X0193800Y0077800D03*
X0193800Y0067800D03*
X0193800Y0097800D03*
X0193800Y0107800D03*
X0193800Y0117800D03*
X0193800Y0127800D03*
X0193800Y0137800D03*
X0146800Y0192800D03*
X0136800Y0192800D03*
X0126800Y0192800D03*
X0116800Y0192800D03*
X0106800Y0192800D03*
X0091800Y0192800D03*
X0071800Y0192800D03*
X0006800Y0192800D03*
X0006800Y0182800D03*
X0006800Y0172800D03*
X0006800Y0162800D03*
X0006800Y0152800D03*
X0006800Y0137800D03*
X0006800Y0127800D03*
X0006800Y0117800D03*
X0006800Y0107800D03*
X0006800Y0097800D03*
X0006800Y0087800D03*
X0006800Y0077800D03*
X0006800Y0067800D03*
X0066800Y0062800D03*
X0066800Y0072800D03*
X0066800Y0082800D03*
X0096800Y0007800D03*
X0116800Y0007800D03*
D15*
X0121483Y0033666D02*
X0126683Y0033666D01*
X0126683Y0043666D02*
X0121483Y0043666D01*
X0121483Y0053666D02*
X0126683Y0053666D01*
X0126683Y0063666D02*
X0121483Y0063666D01*
X0121483Y0073666D02*
X0126683Y0073666D01*
X0126683Y0083666D02*
X0121483Y0083666D01*
X0121483Y0093666D02*
X0126683Y0093666D01*
X0126683Y0103666D02*
X0121483Y0103666D01*
X0121483Y0113666D02*
X0126683Y0113666D01*
X0126683Y0123666D02*
X0121483Y0123666D01*
X0121483Y0133666D02*
X0126683Y0133666D01*
X0126683Y0143666D02*
X0121483Y0143666D01*
X0121483Y0153666D02*
X0126683Y0153666D01*
X0126683Y0163666D02*
X0121483Y0163666D01*
X0096683Y0163666D02*
X0091483Y0163666D01*
X0091483Y0153666D02*
X0096683Y0153666D01*
X0096683Y0143666D02*
X0091483Y0143666D01*
X0091483Y0133666D02*
X0096683Y0133666D01*
X0096683Y0123666D02*
X0091483Y0123666D01*
X0091483Y0113666D02*
X0096683Y0113666D01*
X0096683Y0103666D02*
X0091483Y0103666D01*
X0091483Y0093666D02*
X0096683Y0093666D01*
X0096683Y0083666D02*
X0091483Y0083666D01*
X0091483Y0073666D02*
X0096683Y0073666D01*
X0096683Y0063666D02*
X0091483Y0063666D01*
X0091483Y0053666D02*
X0096683Y0053666D01*
X0096683Y0043666D02*
X0091483Y0043666D01*
X0091483Y0033666D02*
X0096683Y0033666D01*
D16*
X0170501Y0162721D03*
X0173650Y0167446D03*
X0176800Y0162721D03*
X0179950Y0167446D03*
X0183099Y0162721D03*
D17*
X0191170Y0182800D03*
X0162430Y0182800D03*
D18*
X0148800Y0174800D02*
X0184800Y0174800D01*
X0187800Y0171800D01*
X0187800Y0167422D01*
X0183099Y0162721D01*
X0183800Y0149800D02*
X0147800Y0149800D01*
X0161446Y0153666D02*
X0170501Y0162721D01*
X0161446Y0153666D02*
X0124083Y0153666D01*
X0091800Y0185950D01*
X0091800Y0192800D01*
X0071800Y0192800D02*
X0071800Y0185950D01*
X0094083Y0163666D01*
X0086217Y0155800D01*
X0070800Y0155800D01*
X0079800Y0148800D02*
X0080800Y0147800D01*
X0079800Y0148800D02*
X0025800Y0148800D01*
X0011800Y0162800D01*
X0006800Y0162800D01*
X0006800Y0172800D02*
X0022800Y0172800D01*
X0028800Y0178800D01*
X0037800Y0178800D01*
X0043800Y0172800D01*
X0065800Y0172800D01*
X0080800Y0163800D02*
X0039800Y0163800D01*
X0031800Y0155800D01*
X0030800Y0155800D01*
X0015800Y0143800D02*
X0084217Y0143800D01*
X0094083Y0153666D01*
X0094083Y0143666D02*
X0090217Y0139800D01*
X0017800Y0139800D01*
X0006800Y0128800D01*
X0006800Y0127800D01*
X0006800Y0117800D02*
X0089950Y0117800D01*
X0094083Y0113666D01*
X0089950Y0107800D02*
X0094083Y0103666D01*
X0089950Y0107800D02*
X0006800Y0107800D01*
X0006800Y0087800D02*
X0048800Y0087800D01*
X0054800Y0081800D01*
X0066800Y0082800D02*
X0093217Y0082800D01*
X0094083Y0083666D01*
X0094083Y0073666D02*
X0083217Y0062800D01*
X0066800Y0062800D01*
X0066800Y0072800D02*
X0041800Y0072800D01*
X0026800Y0067800D02*
X0036800Y0057800D01*
X0046800Y0057800D02*
X0026800Y0077800D01*
X0006800Y0077800D01*
X0006800Y0067800D02*
X0026800Y0067800D01*
X0011800Y0051800D02*
X0082217Y0051800D01*
X0094083Y0063666D01*
X0094083Y0053666D02*
X0086217Y0045800D01*
X0065800Y0045800D01*
X0071800Y0041800D02*
X0092217Y0041800D01*
X0094083Y0043666D01*
X0094934Y0043666D01*
X0116800Y0021800D01*
X0162800Y0021800D01*
X0166800Y0017800D01*
X0156800Y0017800D02*
X0146800Y0007800D01*
X0116800Y0007800D01*
X0101800Y0022800D01*
X0076800Y0022800D01*
X0063800Y0009800D01*
X0037800Y0009800D01*
X0031800Y0015800D01*
X0031800Y0017800D01*
X0041800Y0017800D02*
X0051800Y0017800D01*
X0056800Y0022800D01*
X0056800Y0026800D01*
X0071800Y0041800D01*
X0124083Y0043666D02*
X0127666Y0043666D01*
X0132800Y0048800D01*
X0154800Y0048800D01*
X0193800Y0087800D01*
X0193800Y0077800D02*
X0161800Y0045800D01*
X0161800Y0045300D01*
X0161300Y0045800D01*
X0137800Y0045800D01*
X0125666Y0033666D01*
X0124083Y0033666D01*
X0124083Y0053666D02*
X0149666Y0053666D01*
X0193800Y0097800D01*
X0193800Y0107800D02*
X0182800Y0107800D01*
X0176800Y0101800D01*
X0176800Y0087800D01*
X0152666Y0063666D01*
X0124083Y0063666D01*
X0124083Y0073666D02*
X0104083Y0093666D01*
X0094083Y0093666D01*
X0084950Y0102800D01*
X0066800Y0102800D01*
X0094083Y0123666D02*
X0084950Y0132800D01*
X0026800Y0132800D01*
X0015800Y0143800D02*
X0009800Y0137800D01*
X0006800Y0137800D01*
X0006800Y0182800D02*
X0041800Y0182800D01*
X0046800Y0187800D01*
X0071800Y0192800D02*
X0006800Y0192800D01*
X0124083Y0143666D02*
X0177934Y0143666D01*
X0183800Y0137800D01*
X0193800Y0137800D01*
X0187934Y0133666D02*
X0193800Y0127800D01*
X0187934Y0123666D02*
X0193800Y0117800D01*
X0187934Y0123666D02*
X0124083Y0123666D01*
X0124083Y0133666D02*
X0187934Y0133666D01*
X0187800Y0145800D02*
X0183800Y0149800D01*
X0182800Y0118800D02*
X0167666Y0103666D01*
X0124083Y0103666D01*
X0124083Y0093666D02*
X0171666Y0093666D01*
X0171800Y0093800D01*
X0166800Y0087800D02*
X0152666Y0073666D01*
X0124083Y0073666D01*
X0124083Y0083666D02*
X0142666Y0083666D01*
X0146800Y0087800D01*
X0148800Y0174800D02*
X0136800Y0186800D01*
X0136800Y0192800D01*
X0011800Y0051800D02*
X0007800Y0047800D01*
X0006800Y0047800D01*
D19*
X0041800Y0072800D03*
X0054800Y0081800D03*
X0065800Y0045800D03*
X0026800Y0132800D03*
X0080800Y0147800D03*
X0080800Y0163800D03*
X0147800Y0149800D03*
X0182800Y0118800D03*
X0171800Y0093800D03*
X0187800Y0145800D03*
M02*
