G75*
%MOIN*%
%OFA0B0*%
%FSLAX25Y25*%
%IPPOS*%
%LPD*%
%AMOC8*
5,1,8,0,0,1.08239X$1,22.5*
%
%ADD10C,0.00000*%
%ADD11C,0.00600*%
%ADD12C,0.00500*%
%ADD13C,0.01000*%
%ADD14R,0.02000X0.08000*%
%ADD15C,0.00800*%
%ADD16R,0.03400X0.02400*%
%ADD17C,0.00400*%
D10*
X0001800Y0002800D02*
X0001800Y0199650D01*
X0198650Y0199650D01*
X0198650Y0002800D01*
X0001800Y0002800D01*
D11*
X0027300Y0013800D02*
X0027300Y0021800D01*
X0027302Y0021860D01*
X0027307Y0021921D01*
X0027316Y0021980D01*
X0027329Y0022039D01*
X0027345Y0022098D01*
X0027365Y0022155D01*
X0027388Y0022210D01*
X0027415Y0022265D01*
X0027444Y0022317D01*
X0027477Y0022368D01*
X0027513Y0022417D01*
X0027551Y0022463D01*
X0027593Y0022507D01*
X0027637Y0022549D01*
X0027683Y0022587D01*
X0027732Y0022623D01*
X0027783Y0022656D01*
X0027835Y0022685D01*
X0027890Y0022712D01*
X0027945Y0022735D01*
X0028002Y0022755D01*
X0028061Y0022771D01*
X0028120Y0022784D01*
X0028179Y0022793D01*
X0028240Y0022798D01*
X0028300Y0022800D01*
X0045300Y0022800D01*
X0045360Y0022798D01*
X0045421Y0022793D01*
X0045480Y0022784D01*
X0045539Y0022771D01*
X0045598Y0022755D01*
X0045655Y0022735D01*
X0045710Y0022712D01*
X0045765Y0022685D01*
X0045817Y0022656D01*
X0045868Y0022623D01*
X0045917Y0022587D01*
X0045963Y0022549D01*
X0046007Y0022507D01*
X0046049Y0022463D01*
X0046087Y0022417D01*
X0046123Y0022368D01*
X0046156Y0022317D01*
X0046185Y0022265D01*
X0046212Y0022210D01*
X0046235Y0022155D01*
X0046255Y0022098D01*
X0046271Y0022039D01*
X0046284Y0021980D01*
X0046293Y0021921D01*
X0046298Y0021860D01*
X0046300Y0021800D01*
X0046300Y0013800D01*
X0046298Y0013740D01*
X0046293Y0013679D01*
X0046284Y0013620D01*
X0046271Y0013561D01*
X0046255Y0013502D01*
X0046235Y0013445D01*
X0046212Y0013390D01*
X0046185Y0013335D01*
X0046156Y0013283D01*
X0046123Y0013232D01*
X0046087Y0013183D01*
X0046049Y0013137D01*
X0046007Y0013093D01*
X0045963Y0013051D01*
X0045917Y0013013D01*
X0045868Y0012977D01*
X0045817Y0012944D01*
X0045765Y0012915D01*
X0045710Y0012888D01*
X0045655Y0012865D01*
X0045598Y0012845D01*
X0045539Y0012829D01*
X0045480Y0012816D01*
X0045421Y0012807D01*
X0045360Y0012802D01*
X0045300Y0012800D01*
X0028300Y0012800D01*
X0028240Y0012802D01*
X0028179Y0012807D01*
X0028120Y0012816D01*
X0028061Y0012829D01*
X0028002Y0012845D01*
X0027945Y0012865D01*
X0027890Y0012888D01*
X0027835Y0012915D01*
X0027783Y0012944D01*
X0027732Y0012977D01*
X0027683Y0013013D01*
X0027637Y0013051D01*
X0027593Y0013093D01*
X0027551Y0013137D01*
X0027513Y0013183D01*
X0027477Y0013232D01*
X0027444Y0013283D01*
X0027415Y0013335D01*
X0027388Y0013390D01*
X0027365Y0013445D01*
X0027345Y0013502D01*
X0027329Y0013561D01*
X0027316Y0013620D01*
X0027307Y0013679D01*
X0027302Y0013740D01*
X0027300Y0013800D01*
X0035300Y0017800D02*
X0035800Y0017800D01*
X0037800Y0017800D02*
X0038300Y0017800D01*
X0061300Y0022800D02*
X0063800Y0022800D01*
X0063800Y0026800D01*
X0065800Y0026800D01*
X0065800Y0018800D01*
X0063800Y0018800D01*
X0063800Y0022800D01*
X0061800Y0024300D02*
X0061800Y0026300D01*
X0060800Y0025300D02*
X0062800Y0025300D01*
X0058313Y0017512D02*
X0058444Y0017306D01*
X0058581Y0017104D01*
X0058723Y0016905D01*
X0058869Y0016709D01*
X0059020Y0016517D01*
X0059176Y0016329D01*
X0059336Y0016145D01*
X0059501Y0015965D01*
X0059670Y0015788D01*
X0059843Y0015616D01*
X0060021Y0015449D01*
X0060202Y0015285D01*
X0060388Y0015126D01*
X0060577Y0014972D01*
X0060770Y0014822D01*
X0060967Y0014677D01*
X0061167Y0014537D01*
X0061370Y0014402D01*
X0061577Y0014272D01*
X0061787Y0014147D01*
X0062000Y0014027D01*
X0062215Y0013913D01*
X0062434Y0013804D01*
X0062655Y0013700D01*
X0062878Y0013601D01*
X0063104Y0013508D01*
X0063332Y0013421D01*
X0063562Y0013339D01*
X0063794Y0013262D01*
X0064028Y0013192D01*
X0064264Y0013127D01*
X0064501Y0013068D01*
X0064739Y0013015D01*
X0064978Y0012967D01*
X0065219Y0012926D01*
X0065461Y0012890D01*
X0065703Y0012860D01*
X0065946Y0012837D01*
X0066190Y0012819D01*
X0066434Y0012807D01*
X0066678Y0012801D01*
X0066922Y0012801D01*
X0067166Y0012807D01*
X0067410Y0012819D01*
X0067654Y0012837D01*
X0067897Y0012860D01*
X0068139Y0012890D01*
X0068381Y0012926D01*
X0068622Y0012967D01*
X0068861Y0013015D01*
X0069099Y0013068D01*
X0069336Y0013127D01*
X0069572Y0013192D01*
X0069806Y0013262D01*
X0070038Y0013339D01*
X0070268Y0013421D01*
X0070496Y0013508D01*
X0070722Y0013601D01*
X0070945Y0013700D01*
X0071166Y0013804D01*
X0071385Y0013913D01*
X0071600Y0014027D01*
X0071813Y0014147D01*
X0072023Y0014272D01*
X0072230Y0014402D01*
X0072433Y0014537D01*
X0072633Y0014677D01*
X0072830Y0014822D01*
X0073023Y0014972D01*
X0073212Y0015126D01*
X0073398Y0015285D01*
X0073579Y0015449D01*
X0073757Y0015616D01*
X0073930Y0015788D01*
X0074099Y0015965D01*
X0074264Y0016145D01*
X0074424Y0016329D01*
X0074580Y0016517D01*
X0074731Y0016709D01*
X0074877Y0016905D01*
X0075019Y0017104D01*
X0075156Y0017306D01*
X0075287Y0017512D01*
X0072300Y0022800D02*
X0069300Y0022800D01*
X0075287Y0028088D02*
X0075156Y0028294D01*
X0075019Y0028496D01*
X0074877Y0028695D01*
X0074731Y0028891D01*
X0074580Y0029083D01*
X0074424Y0029271D01*
X0074264Y0029455D01*
X0074099Y0029635D01*
X0073930Y0029812D01*
X0073757Y0029984D01*
X0073579Y0030151D01*
X0073398Y0030315D01*
X0073212Y0030474D01*
X0073023Y0030628D01*
X0072830Y0030778D01*
X0072633Y0030923D01*
X0072433Y0031063D01*
X0072230Y0031198D01*
X0072023Y0031328D01*
X0071813Y0031453D01*
X0071600Y0031573D01*
X0071385Y0031687D01*
X0071166Y0031796D01*
X0070945Y0031900D01*
X0070722Y0031999D01*
X0070496Y0032092D01*
X0070268Y0032179D01*
X0070038Y0032261D01*
X0069806Y0032338D01*
X0069572Y0032408D01*
X0069336Y0032473D01*
X0069099Y0032532D01*
X0068861Y0032585D01*
X0068622Y0032633D01*
X0068381Y0032674D01*
X0068139Y0032710D01*
X0067897Y0032740D01*
X0067654Y0032763D01*
X0067410Y0032781D01*
X0067166Y0032793D01*
X0066922Y0032799D01*
X0066678Y0032799D01*
X0066434Y0032793D01*
X0066190Y0032781D01*
X0065946Y0032763D01*
X0065703Y0032740D01*
X0065461Y0032710D01*
X0065219Y0032674D01*
X0064978Y0032633D01*
X0064739Y0032585D01*
X0064501Y0032532D01*
X0064264Y0032473D01*
X0064028Y0032408D01*
X0063794Y0032338D01*
X0063562Y0032261D01*
X0063332Y0032179D01*
X0063104Y0032092D01*
X0062878Y0031999D01*
X0062655Y0031900D01*
X0062434Y0031796D01*
X0062215Y0031687D01*
X0062000Y0031573D01*
X0061787Y0031453D01*
X0061577Y0031328D01*
X0061370Y0031198D01*
X0061167Y0031063D01*
X0060967Y0030923D01*
X0060770Y0030778D01*
X0060577Y0030628D01*
X0060388Y0030474D01*
X0060202Y0030315D01*
X0060021Y0030151D01*
X0059843Y0029984D01*
X0059670Y0029812D01*
X0059501Y0029635D01*
X0059336Y0029455D01*
X0059176Y0029271D01*
X0059020Y0029083D01*
X0058869Y0028891D01*
X0058723Y0028695D01*
X0058581Y0028496D01*
X0058444Y0028294D01*
X0058313Y0028088D01*
X0050300Y0052800D02*
X0033300Y0052800D01*
X0033240Y0052802D01*
X0033179Y0052807D01*
X0033120Y0052816D01*
X0033061Y0052829D01*
X0033002Y0052845D01*
X0032945Y0052865D01*
X0032890Y0052888D01*
X0032835Y0052915D01*
X0032783Y0052944D01*
X0032732Y0052977D01*
X0032683Y0053013D01*
X0032637Y0053051D01*
X0032593Y0053093D01*
X0032551Y0053137D01*
X0032513Y0053183D01*
X0032477Y0053232D01*
X0032444Y0053283D01*
X0032415Y0053335D01*
X0032388Y0053390D01*
X0032365Y0053445D01*
X0032345Y0053502D01*
X0032329Y0053561D01*
X0032316Y0053620D01*
X0032307Y0053679D01*
X0032302Y0053740D01*
X0032300Y0053800D01*
X0032300Y0061800D01*
X0032302Y0061860D01*
X0032307Y0061921D01*
X0032316Y0061980D01*
X0032329Y0062039D01*
X0032345Y0062098D01*
X0032365Y0062155D01*
X0032388Y0062210D01*
X0032415Y0062265D01*
X0032444Y0062317D01*
X0032477Y0062368D01*
X0032513Y0062417D01*
X0032551Y0062463D01*
X0032593Y0062507D01*
X0032637Y0062549D01*
X0032683Y0062587D01*
X0032732Y0062623D01*
X0032783Y0062656D01*
X0032835Y0062685D01*
X0032890Y0062712D01*
X0032945Y0062735D01*
X0033002Y0062755D01*
X0033061Y0062771D01*
X0033120Y0062784D01*
X0033179Y0062793D01*
X0033240Y0062798D01*
X0033300Y0062800D01*
X0050300Y0062800D01*
X0050360Y0062798D01*
X0050421Y0062793D01*
X0050480Y0062784D01*
X0050539Y0062771D01*
X0050598Y0062755D01*
X0050655Y0062735D01*
X0050710Y0062712D01*
X0050765Y0062685D01*
X0050817Y0062656D01*
X0050868Y0062623D01*
X0050917Y0062587D01*
X0050963Y0062549D01*
X0051007Y0062507D01*
X0051049Y0062463D01*
X0051087Y0062417D01*
X0051123Y0062368D01*
X0051156Y0062317D01*
X0051185Y0062265D01*
X0051212Y0062210D01*
X0051235Y0062155D01*
X0051255Y0062098D01*
X0051271Y0062039D01*
X0051284Y0061980D01*
X0051293Y0061921D01*
X0051298Y0061860D01*
X0051300Y0061800D01*
X0051300Y0053800D01*
X0051298Y0053740D01*
X0051293Y0053679D01*
X0051284Y0053620D01*
X0051271Y0053561D01*
X0051255Y0053502D01*
X0051235Y0053445D01*
X0051212Y0053390D01*
X0051185Y0053335D01*
X0051156Y0053283D01*
X0051123Y0053232D01*
X0051087Y0053183D01*
X0051049Y0053137D01*
X0051007Y0053093D01*
X0050963Y0053051D01*
X0050917Y0053013D01*
X0050868Y0052977D01*
X0050817Y0052944D01*
X0050765Y0052915D01*
X0050710Y0052888D01*
X0050655Y0052865D01*
X0050598Y0052845D01*
X0050539Y0052829D01*
X0050480Y0052816D01*
X0050421Y0052807D01*
X0050360Y0052802D01*
X0050300Y0052800D01*
X0043300Y0057800D02*
X0042800Y0057800D01*
X0040800Y0057800D02*
X0040300Y0057800D01*
X0032261Y0066168D02*
X0032261Y0070438D01*
X0031194Y0071505D01*
X0027991Y0071505D01*
X0027991Y0065100D01*
X0031194Y0065100D01*
X0032261Y0066168D01*
X0025816Y0065100D02*
X0025816Y0071505D01*
X0021545Y0071505D02*
X0025816Y0065100D01*
X0021545Y0065100D02*
X0021545Y0071505D01*
X0019370Y0070438D02*
X0018303Y0071505D01*
X0016168Y0071505D01*
X0015100Y0070438D01*
X0015100Y0066168D01*
X0016168Y0065100D01*
X0018303Y0065100D01*
X0019370Y0066168D01*
X0019370Y0068303D01*
X0017235Y0068303D01*
X0007064Y0044117D02*
X0007158Y0043998D01*
X0007256Y0043882D01*
X0007356Y0043768D01*
X0007460Y0043657D01*
X0007566Y0043549D01*
X0007674Y0043443D01*
X0007786Y0043341D01*
X0007900Y0043241D01*
X0008016Y0043143D01*
X0008135Y0043049D01*
X0008256Y0042958D01*
X0008380Y0042870D01*
X0008506Y0042785D01*
X0008633Y0042704D01*
X0008763Y0042625D01*
X0008895Y0042550D01*
X0009028Y0042479D01*
X0009164Y0042410D01*
X0009301Y0042345D01*
X0009439Y0042284D01*
X0009580Y0042226D01*
X0009721Y0042172D01*
X0009864Y0042121D01*
X0010008Y0042074D01*
X0010153Y0042030D01*
X0010300Y0041991D01*
X0010447Y0041955D01*
X0010595Y0041922D01*
X0010744Y0041894D01*
X0010894Y0041869D01*
X0011044Y0041848D01*
X0011194Y0041831D01*
X0011346Y0041817D01*
X0011497Y0041808D01*
X0011648Y0041802D01*
X0011800Y0041800D01*
X0007000Y0051400D02*
X0007092Y0051519D01*
X0007186Y0051636D01*
X0007284Y0051750D01*
X0007384Y0051862D01*
X0007488Y0051972D01*
X0007593Y0052078D01*
X0007702Y0052183D01*
X0007813Y0052284D01*
X0007927Y0052382D01*
X0008043Y0052478D01*
X0008161Y0052571D01*
X0008282Y0052660D01*
X0008405Y0052747D01*
X0008530Y0052830D01*
X0008657Y0052911D01*
X0008786Y0052988D01*
X0008917Y0053062D01*
X0009050Y0053133D01*
X0009184Y0053200D01*
X0009320Y0053264D01*
X0009458Y0053324D01*
X0009597Y0053381D01*
X0009738Y0053434D01*
X0009880Y0053484D01*
X0010023Y0053531D01*
X0010167Y0053573D01*
X0010312Y0053613D01*
X0010458Y0053648D01*
X0010605Y0053680D01*
X0010753Y0053708D01*
X0010901Y0053732D01*
X0011050Y0053753D01*
X0011200Y0053770D01*
X0011349Y0053783D01*
X0011499Y0053792D01*
X0011650Y0053798D01*
X0011800Y0053800D01*
X0016536Y0044117D02*
X0016442Y0043998D01*
X0016344Y0043882D01*
X0016244Y0043768D01*
X0016140Y0043657D01*
X0016034Y0043549D01*
X0015926Y0043443D01*
X0015814Y0043341D01*
X0015700Y0043241D01*
X0015584Y0043143D01*
X0015465Y0043049D01*
X0015344Y0042958D01*
X0015220Y0042870D01*
X0015094Y0042785D01*
X0014967Y0042704D01*
X0014837Y0042625D01*
X0014705Y0042550D01*
X0014572Y0042479D01*
X0014436Y0042410D01*
X0014299Y0042345D01*
X0014161Y0042284D01*
X0014020Y0042226D01*
X0013879Y0042172D01*
X0013736Y0042121D01*
X0013592Y0042074D01*
X0013447Y0042030D01*
X0013300Y0041991D01*
X0013153Y0041955D01*
X0013005Y0041922D01*
X0012856Y0041894D01*
X0012706Y0041869D01*
X0012556Y0041848D01*
X0012406Y0041831D01*
X0012254Y0041817D01*
X0012103Y0041808D01*
X0011952Y0041802D01*
X0011800Y0041800D01*
X0016682Y0051287D02*
X0016591Y0051412D01*
X0016497Y0051534D01*
X0016399Y0051653D01*
X0016299Y0051770D01*
X0016195Y0051884D01*
X0016089Y0051996D01*
X0015980Y0052104D01*
X0015868Y0052210D01*
X0015753Y0052313D01*
X0015636Y0052413D01*
X0015516Y0052511D01*
X0015394Y0052604D01*
X0015270Y0052695D01*
X0015143Y0052783D01*
X0015014Y0052867D01*
X0014882Y0052948D01*
X0014749Y0053025D01*
X0014614Y0053099D01*
X0014477Y0053170D01*
X0014338Y0053237D01*
X0014198Y0053300D01*
X0014055Y0053360D01*
X0013912Y0053416D01*
X0013767Y0053468D01*
X0013621Y0053517D01*
X0013473Y0053562D01*
X0013325Y0053603D01*
X0013175Y0053640D01*
X0013025Y0053674D01*
X0012873Y0053703D01*
X0012721Y0053729D01*
X0012569Y0053751D01*
X0012416Y0053768D01*
X0012262Y0053782D01*
X0012108Y0053792D01*
X0011954Y0053798D01*
X0011800Y0053800D01*
X0035300Y0098300D02*
X0036800Y0098300D01*
X0037300Y0098800D01*
X0056300Y0098800D01*
X0056800Y0098300D01*
X0058300Y0098300D01*
X0058360Y0098302D01*
X0058421Y0098307D01*
X0058480Y0098316D01*
X0058539Y0098329D01*
X0058598Y0098345D01*
X0058655Y0098365D01*
X0058710Y0098388D01*
X0058765Y0098415D01*
X0058817Y0098444D01*
X0058868Y0098477D01*
X0058917Y0098513D01*
X0058963Y0098551D01*
X0059007Y0098593D01*
X0059049Y0098637D01*
X0059087Y0098683D01*
X0059123Y0098732D01*
X0059156Y0098783D01*
X0059185Y0098835D01*
X0059212Y0098890D01*
X0059235Y0098945D01*
X0059255Y0099002D01*
X0059271Y0099061D01*
X0059284Y0099120D01*
X0059293Y0099179D01*
X0059298Y0099240D01*
X0059300Y0099300D01*
X0059300Y0106300D01*
X0059298Y0106360D01*
X0059293Y0106421D01*
X0059284Y0106480D01*
X0059271Y0106539D01*
X0059255Y0106598D01*
X0059235Y0106655D01*
X0059212Y0106710D01*
X0059185Y0106765D01*
X0059156Y0106817D01*
X0059123Y0106868D01*
X0059087Y0106917D01*
X0059049Y0106963D01*
X0059007Y0107007D01*
X0058963Y0107049D01*
X0058917Y0107087D01*
X0058868Y0107123D01*
X0058817Y0107156D01*
X0058765Y0107185D01*
X0058710Y0107212D01*
X0058655Y0107235D01*
X0058598Y0107255D01*
X0058539Y0107271D01*
X0058480Y0107284D01*
X0058421Y0107293D01*
X0058360Y0107298D01*
X0058300Y0107300D01*
X0056800Y0107300D01*
X0056300Y0106800D01*
X0037300Y0106800D01*
X0036800Y0107300D01*
X0035300Y0107300D01*
X0035240Y0107298D01*
X0035179Y0107293D01*
X0035120Y0107284D01*
X0035061Y0107271D01*
X0035002Y0107255D01*
X0034945Y0107235D01*
X0034890Y0107212D01*
X0034835Y0107185D01*
X0034783Y0107156D01*
X0034732Y0107123D01*
X0034683Y0107087D01*
X0034637Y0107049D01*
X0034593Y0107007D01*
X0034551Y0106963D01*
X0034513Y0106917D01*
X0034477Y0106868D01*
X0034444Y0106817D01*
X0034415Y0106765D01*
X0034388Y0106710D01*
X0034365Y0106655D01*
X0034345Y0106598D01*
X0034329Y0106539D01*
X0034316Y0106480D01*
X0034307Y0106421D01*
X0034302Y0106360D01*
X0034300Y0106300D01*
X0034300Y0099300D01*
X0034302Y0099240D01*
X0034307Y0099179D01*
X0034316Y0099120D01*
X0034329Y0099061D01*
X0034345Y0099002D01*
X0034365Y0098945D01*
X0034388Y0098890D01*
X0034415Y0098835D01*
X0034444Y0098783D01*
X0034477Y0098732D01*
X0034513Y0098683D01*
X0034551Y0098637D01*
X0034593Y0098593D01*
X0034637Y0098551D01*
X0034683Y0098513D01*
X0034732Y0098477D01*
X0034783Y0098444D01*
X0034835Y0098415D01*
X0034890Y0098388D01*
X0034945Y0098365D01*
X0035002Y0098345D01*
X0035061Y0098329D01*
X0035120Y0098316D01*
X0035179Y0098307D01*
X0035240Y0098302D01*
X0035300Y0098300D01*
X0035300Y0118300D02*
X0036800Y0118300D01*
X0037300Y0118800D01*
X0056300Y0118800D01*
X0056800Y0118300D01*
X0058300Y0118300D01*
X0058360Y0118302D01*
X0058421Y0118307D01*
X0058480Y0118316D01*
X0058539Y0118329D01*
X0058598Y0118345D01*
X0058655Y0118365D01*
X0058710Y0118388D01*
X0058765Y0118415D01*
X0058817Y0118444D01*
X0058868Y0118477D01*
X0058917Y0118513D01*
X0058963Y0118551D01*
X0059007Y0118593D01*
X0059049Y0118637D01*
X0059087Y0118683D01*
X0059123Y0118732D01*
X0059156Y0118783D01*
X0059185Y0118835D01*
X0059212Y0118890D01*
X0059235Y0118945D01*
X0059255Y0119002D01*
X0059271Y0119061D01*
X0059284Y0119120D01*
X0059293Y0119179D01*
X0059298Y0119240D01*
X0059300Y0119300D01*
X0059300Y0126300D01*
X0059298Y0126360D01*
X0059293Y0126421D01*
X0059284Y0126480D01*
X0059271Y0126539D01*
X0059255Y0126598D01*
X0059235Y0126655D01*
X0059212Y0126710D01*
X0059185Y0126765D01*
X0059156Y0126817D01*
X0059123Y0126868D01*
X0059087Y0126917D01*
X0059049Y0126963D01*
X0059007Y0127007D01*
X0058963Y0127049D01*
X0058917Y0127087D01*
X0058868Y0127123D01*
X0058817Y0127156D01*
X0058765Y0127185D01*
X0058710Y0127212D01*
X0058655Y0127235D01*
X0058598Y0127255D01*
X0058539Y0127271D01*
X0058480Y0127284D01*
X0058421Y0127293D01*
X0058360Y0127298D01*
X0058300Y0127300D01*
X0056800Y0127300D01*
X0056300Y0126800D01*
X0037300Y0126800D01*
X0036800Y0127300D01*
X0035300Y0127300D01*
X0035240Y0127298D01*
X0035179Y0127293D01*
X0035120Y0127284D01*
X0035061Y0127271D01*
X0035002Y0127255D01*
X0034945Y0127235D01*
X0034890Y0127212D01*
X0034835Y0127185D01*
X0034783Y0127156D01*
X0034732Y0127123D01*
X0034683Y0127087D01*
X0034637Y0127049D01*
X0034593Y0127007D01*
X0034551Y0126963D01*
X0034513Y0126917D01*
X0034477Y0126868D01*
X0034444Y0126817D01*
X0034415Y0126765D01*
X0034388Y0126710D01*
X0034365Y0126655D01*
X0034345Y0126598D01*
X0034329Y0126539D01*
X0034316Y0126480D01*
X0034307Y0126421D01*
X0034302Y0126360D01*
X0034300Y0126300D01*
X0034300Y0119300D01*
X0034302Y0119240D01*
X0034307Y0119179D01*
X0034316Y0119120D01*
X0034329Y0119061D01*
X0034345Y0119002D01*
X0034365Y0118945D01*
X0034388Y0118890D01*
X0034415Y0118835D01*
X0034444Y0118783D01*
X0034477Y0118732D01*
X0034513Y0118683D01*
X0034551Y0118637D01*
X0034593Y0118593D01*
X0034637Y0118551D01*
X0034683Y0118513D01*
X0034732Y0118477D01*
X0034783Y0118444D01*
X0034835Y0118415D01*
X0034890Y0118388D01*
X0034945Y0118365D01*
X0035002Y0118345D01*
X0035061Y0118329D01*
X0035120Y0118316D01*
X0035179Y0118307D01*
X0035240Y0118302D01*
X0035300Y0118300D01*
X0039300Y0151300D02*
X0040800Y0151300D01*
X0041300Y0151800D01*
X0060300Y0151800D01*
X0060800Y0151300D01*
X0062300Y0151300D01*
X0062360Y0151302D01*
X0062421Y0151307D01*
X0062480Y0151316D01*
X0062539Y0151329D01*
X0062598Y0151345D01*
X0062655Y0151365D01*
X0062710Y0151388D01*
X0062765Y0151415D01*
X0062817Y0151444D01*
X0062868Y0151477D01*
X0062917Y0151513D01*
X0062963Y0151551D01*
X0063007Y0151593D01*
X0063049Y0151637D01*
X0063087Y0151683D01*
X0063123Y0151732D01*
X0063156Y0151783D01*
X0063185Y0151835D01*
X0063212Y0151890D01*
X0063235Y0151945D01*
X0063255Y0152002D01*
X0063271Y0152061D01*
X0063284Y0152120D01*
X0063293Y0152179D01*
X0063298Y0152240D01*
X0063300Y0152300D01*
X0063300Y0159300D01*
X0063298Y0159360D01*
X0063293Y0159421D01*
X0063284Y0159480D01*
X0063271Y0159539D01*
X0063255Y0159598D01*
X0063235Y0159655D01*
X0063212Y0159710D01*
X0063185Y0159765D01*
X0063156Y0159817D01*
X0063123Y0159868D01*
X0063087Y0159917D01*
X0063049Y0159963D01*
X0063007Y0160007D01*
X0062963Y0160049D01*
X0062917Y0160087D01*
X0062868Y0160123D01*
X0062817Y0160156D01*
X0062765Y0160185D01*
X0062710Y0160212D01*
X0062655Y0160235D01*
X0062598Y0160255D01*
X0062539Y0160271D01*
X0062480Y0160284D01*
X0062421Y0160293D01*
X0062360Y0160298D01*
X0062300Y0160300D01*
X0060800Y0160300D01*
X0060300Y0159800D01*
X0041300Y0159800D01*
X0040800Y0160300D01*
X0039300Y0160300D01*
X0039240Y0160298D01*
X0039179Y0160293D01*
X0039120Y0160284D01*
X0039061Y0160271D01*
X0039002Y0160255D01*
X0038945Y0160235D01*
X0038890Y0160212D01*
X0038835Y0160185D01*
X0038783Y0160156D01*
X0038732Y0160123D01*
X0038683Y0160087D01*
X0038637Y0160049D01*
X0038593Y0160007D01*
X0038551Y0159963D01*
X0038513Y0159917D01*
X0038477Y0159868D01*
X0038444Y0159817D01*
X0038415Y0159765D01*
X0038388Y0159710D01*
X0038365Y0159655D01*
X0038345Y0159598D01*
X0038329Y0159539D01*
X0038316Y0159480D01*
X0038307Y0159421D01*
X0038302Y0159360D01*
X0038300Y0159300D01*
X0038300Y0152300D01*
X0038302Y0152240D01*
X0038307Y0152179D01*
X0038316Y0152120D01*
X0038329Y0152061D01*
X0038345Y0152002D01*
X0038365Y0151945D01*
X0038388Y0151890D01*
X0038415Y0151835D01*
X0038444Y0151783D01*
X0038477Y0151732D01*
X0038513Y0151683D01*
X0038551Y0151637D01*
X0038593Y0151593D01*
X0038637Y0151551D01*
X0038683Y0151513D01*
X0038732Y0151477D01*
X0038783Y0151444D01*
X0038835Y0151415D01*
X0038890Y0151388D01*
X0038945Y0151365D01*
X0039002Y0151345D01*
X0039061Y0151329D01*
X0039120Y0151316D01*
X0039179Y0151307D01*
X0039240Y0151302D01*
X0039300Y0151300D01*
X0047300Y0167800D02*
X0030300Y0167800D01*
X0030240Y0167802D01*
X0030179Y0167807D01*
X0030120Y0167816D01*
X0030061Y0167829D01*
X0030002Y0167845D01*
X0029945Y0167865D01*
X0029890Y0167888D01*
X0029835Y0167915D01*
X0029783Y0167944D01*
X0029732Y0167977D01*
X0029683Y0168013D01*
X0029637Y0168051D01*
X0029593Y0168093D01*
X0029551Y0168137D01*
X0029513Y0168183D01*
X0029477Y0168232D01*
X0029444Y0168283D01*
X0029415Y0168335D01*
X0029388Y0168390D01*
X0029365Y0168445D01*
X0029345Y0168502D01*
X0029329Y0168561D01*
X0029316Y0168620D01*
X0029307Y0168679D01*
X0029302Y0168740D01*
X0029300Y0168800D01*
X0029300Y0176800D01*
X0029302Y0176860D01*
X0029307Y0176921D01*
X0029316Y0176980D01*
X0029329Y0177039D01*
X0029345Y0177098D01*
X0029365Y0177155D01*
X0029388Y0177210D01*
X0029415Y0177265D01*
X0029444Y0177317D01*
X0029477Y0177368D01*
X0029513Y0177417D01*
X0029551Y0177463D01*
X0029593Y0177507D01*
X0029637Y0177549D01*
X0029683Y0177587D01*
X0029732Y0177623D01*
X0029783Y0177656D01*
X0029835Y0177685D01*
X0029890Y0177712D01*
X0029945Y0177735D01*
X0030002Y0177755D01*
X0030061Y0177771D01*
X0030120Y0177784D01*
X0030179Y0177793D01*
X0030240Y0177798D01*
X0030300Y0177800D01*
X0047300Y0177800D01*
X0047360Y0177798D01*
X0047421Y0177793D01*
X0047480Y0177784D01*
X0047539Y0177771D01*
X0047598Y0177755D01*
X0047655Y0177735D01*
X0047710Y0177712D01*
X0047765Y0177685D01*
X0047817Y0177656D01*
X0047868Y0177623D01*
X0047917Y0177587D01*
X0047963Y0177549D01*
X0048007Y0177507D01*
X0048049Y0177463D01*
X0048087Y0177417D01*
X0048123Y0177368D01*
X0048156Y0177317D01*
X0048185Y0177265D01*
X0048212Y0177210D01*
X0048235Y0177155D01*
X0048255Y0177098D01*
X0048271Y0177039D01*
X0048284Y0176980D01*
X0048293Y0176921D01*
X0048298Y0176860D01*
X0048300Y0176800D01*
X0048300Y0168800D01*
X0048298Y0168740D01*
X0048293Y0168679D01*
X0048284Y0168620D01*
X0048271Y0168561D01*
X0048255Y0168502D01*
X0048235Y0168445D01*
X0048212Y0168390D01*
X0048185Y0168335D01*
X0048156Y0168283D01*
X0048123Y0168232D01*
X0048087Y0168183D01*
X0048049Y0168137D01*
X0048007Y0168093D01*
X0047963Y0168051D01*
X0047917Y0168013D01*
X0047868Y0167977D01*
X0047817Y0167944D01*
X0047765Y0167915D01*
X0047710Y0167888D01*
X0047655Y0167865D01*
X0047598Y0167845D01*
X0047539Y0167829D01*
X0047480Y0167816D01*
X0047421Y0167807D01*
X0047360Y0167802D01*
X0047300Y0167800D01*
X0040300Y0172800D02*
X0039800Y0172800D01*
X0037800Y0172800D02*
X0037300Y0172800D01*
X0051800Y0193800D02*
X0051954Y0193798D01*
X0052108Y0193792D01*
X0052262Y0193782D01*
X0052416Y0193768D01*
X0052569Y0193751D01*
X0052721Y0193729D01*
X0052873Y0193703D01*
X0053025Y0193674D01*
X0053175Y0193640D01*
X0053325Y0193603D01*
X0053473Y0193562D01*
X0053621Y0193517D01*
X0053767Y0193468D01*
X0053912Y0193416D01*
X0054055Y0193360D01*
X0054198Y0193300D01*
X0054338Y0193237D01*
X0054477Y0193170D01*
X0054614Y0193099D01*
X0054749Y0193025D01*
X0054882Y0192948D01*
X0055014Y0192867D01*
X0055143Y0192783D01*
X0055270Y0192695D01*
X0055394Y0192604D01*
X0055516Y0192511D01*
X0055636Y0192413D01*
X0055753Y0192313D01*
X0055868Y0192210D01*
X0055980Y0192104D01*
X0056089Y0191996D01*
X0056195Y0191884D01*
X0056299Y0191770D01*
X0056399Y0191653D01*
X0056497Y0191534D01*
X0056591Y0191412D01*
X0056682Y0191287D01*
X0051800Y0181800D02*
X0051648Y0181802D01*
X0051497Y0181808D01*
X0051346Y0181817D01*
X0051194Y0181831D01*
X0051044Y0181848D01*
X0050894Y0181869D01*
X0050744Y0181894D01*
X0050595Y0181922D01*
X0050447Y0181955D01*
X0050300Y0181991D01*
X0050153Y0182030D01*
X0050008Y0182074D01*
X0049864Y0182121D01*
X0049721Y0182172D01*
X0049580Y0182226D01*
X0049439Y0182284D01*
X0049301Y0182345D01*
X0049164Y0182410D01*
X0049028Y0182479D01*
X0048895Y0182550D01*
X0048763Y0182625D01*
X0048633Y0182704D01*
X0048506Y0182785D01*
X0048380Y0182870D01*
X0048256Y0182958D01*
X0048135Y0183049D01*
X0048016Y0183143D01*
X0047900Y0183241D01*
X0047786Y0183341D01*
X0047674Y0183443D01*
X0047566Y0183549D01*
X0047460Y0183657D01*
X0047356Y0183768D01*
X0047256Y0183882D01*
X0047158Y0183998D01*
X0047064Y0184117D01*
X0051800Y0181800D02*
X0051952Y0181802D01*
X0052103Y0181808D01*
X0052254Y0181817D01*
X0052406Y0181831D01*
X0052556Y0181848D01*
X0052706Y0181869D01*
X0052856Y0181894D01*
X0053005Y0181922D01*
X0053153Y0181955D01*
X0053300Y0181991D01*
X0053447Y0182030D01*
X0053592Y0182074D01*
X0053736Y0182121D01*
X0053879Y0182172D01*
X0054020Y0182226D01*
X0054161Y0182284D01*
X0054299Y0182345D01*
X0054436Y0182410D01*
X0054572Y0182479D01*
X0054705Y0182550D01*
X0054837Y0182625D01*
X0054967Y0182704D01*
X0055094Y0182785D01*
X0055220Y0182870D01*
X0055344Y0182958D01*
X0055465Y0183049D01*
X0055584Y0183143D01*
X0055700Y0183241D01*
X0055814Y0183341D01*
X0055926Y0183443D01*
X0056034Y0183549D01*
X0056140Y0183657D01*
X0056244Y0183768D01*
X0056344Y0183882D01*
X0056442Y0183998D01*
X0056536Y0184117D01*
X0051800Y0193800D02*
X0051650Y0193798D01*
X0051499Y0193792D01*
X0051349Y0193783D01*
X0051200Y0193770D01*
X0051050Y0193753D01*
X0050901Y0193732D01*
X0050753Y0193708D01*
X0050605Y0193680D01*
X0050458Y0193648D01*
X0050312Y0193613D01*
X0050167Y0193573D01*
X0050023Y0193531D01*
X0049880Y0193484D01*
X0049738Y0193434D01*
X0049597Y0193381D01*
X0049458Y0193324D01*
X0049320Y0193264D01*
X0049184Y0193200D01*
X0049050Y0193133D01*
X0048917Y0193062D01*
X0048786Y0192988D01*
X0048657Y0192911D01*
X0048530Y0192830D01*
X0048405Y0192747D01*
X0048282Y0192660D01*
X0048161Y0192571D01*
X0048043Y0192478D01*
X0047927Y0192382D01*
X0047813Y0192284D01*
X0047702Y0192183D01*
X0047593Y0192078D01*
X0047488Y0191972D01*
X0047384Y0191862D01*
X0047284Y0191750D01*
X0047186Y0191636D01*
X0047092Y0191519D01*
X0047000Y0191400D01*
X0061300Y0176800D02*
X0061300Y0168800D01*
X0061302Y0168740D01*
X0061307Y0168679D01*
X0061316Y0168620D01*
X0061329Y0168561D01*
X0061345Y0168502D01*
X0061365Y0168445D01*
X0061388Y0168390D01*
X0061415Y0168335D01*
X0061444Y0168283D01*
X0061477Y0168232D01*
X0061513Y0168183D01*
X0061551Y0168137D01*
X0061593Y0168093D01*
X0061637Y0168051D01*
X0061683Y0168013D01*
X0061732Y0167977D01*
X0061783Y0167944D01*
X0061835Y0167915D01*
X0061890Y0167888D01*
X0061945Y0167865D01*
X0062002Y0167845D01*
X0062061Y0167829D01*
X0062120Y0167816D01*
X0062179Y0167807D01*
X0062240Y0167802D01*
X0062300Y0167800D01*
X0079300Y0167800D01*
X0079360Y0167802D01*
X0079421Y0167807D01*
X0079480Y0167816D01*
X0079539Y0167829D01*
X0079598Y0167845D01*
X0079655Y0167865D01*
X0079710Y0167888D01*
X0079765Y0167915D01*
X0079817Y0167944D01*
X0079868Y0167977D01*
X0079917Y0168013D01*
X0079963Y0168051D01*
X0080007Y0168093D01*
X0080049Y0168137D01*
X0080087Y0168183D01*
X0080123Y0168232D01*
X0080156Y0168283D01*
X0080185Y0168335D01*
X0080212Y0168390D01*
X0080235Y0168445D01*
X0080255Y0168502D01*
X0080271Y0168561D01*
X0080284Y0168620D01*
X0080293Y0168679D01*
X0080298Y0168740D01*
X0080300Y0168800D01*
X0080300Y0176800D01*
X0080298Y0176860D01*
X0080293Y0176921D01*
X0080284Y0176980D01*
X0080271Y0177039D01*
X0080255Y0177098D01*
X0080235Y0177155D01*
X0080212Y0177210D01*
X0080185Y0177265D01*
X0080156Y0177317D01*
X0080123Y0177368D01*
X0080087Y0177417D01*
X0080049Y0177463D01*
X0080007Y0177507D01*
X0079963Y0177549D01*
X0079917Y0177587D01*
X0079868Y0177623D01*
X0079817Y0177656D01*
X0079765Y0177685D01*
X0079710Y0177712D01*
X0079655Y0177735D01*
X0079598Y0177755D01*
X0079539Y0177771D01*
X0079480Y0177784D01*
X0079421Y0177793D01*
X0079360Y0177798D01*
X0079300Y0177800D01*
X0062300Y0177800D01*
X0062240Y0177798D01*
X0062179Y0177793D01*
X0062120Y0177784D01*
X0062061Y0177771D01*
X0062002Y0177755D01*
X0061945Y0177735D01*
X0061890Y0177712D01*
X0061835Y0177685D01*
X0061783Y0177656D01*
X0061732Y0177623D01*
X0061683Y0177587D01*
X0061637Y0177549D01*
X0061593Y0177507D01*
X0061551Y0177463D01*
X0061513Y0177417D01*
X0061477Y0177368D01*
X0061444Y0177317D01*
X0061415Y0177265D01*
X0061388Y0177210D01*
X0061365Y0177155D01*
X0061345Y0177098D01*
X0061329Y0177039D01*
X0061316Y0176980D01*
X0061307Y0176921D01*
X0061302Y0176860D01*
X0061300Y0176800D01*
X0069300Y0172800D02*
X0069800Y0172800D01*
X0071800Y0172800D02*
X0072300Y0172800D01*
X0097583Y0168666D02*
X0105083Y0168666D01*
X0105085Y0168540D01*
X0105091Y0168415D01*
X0105101Y0168290D01*
X0105115Y0168165D01*
X0105132Y0168040D01*
X0105154Y0167916D01*
X0105179Y0167793D01*
X0105209Y0167671D01*
X0105242Y0167550D01*
X0105279Y0167430D01*
X0105319Y0167311D01*
X0105364Y0167194D01*
X0105412Y0167077D01*
X0105464Y0166963D01*
X0105519Y0166850D01*
X0105578Y0166739D01*
X0105640Y0166630D01*
X0105706Y0166523D01*
X0105775Y0166418D01*
X0105847Y0166315D01*
X0105922Y0166214D01*
X0106001Y0166116D01*
X0106083Y0166021D01*
X0106167Y0165928D01*
X0106255Y0165838D01*
X0106345Y0165750D01*
X0106438Y0165666D01*
X0106533Y0165584D01*
X0106631Y0165505D01*
X0106732Y0165430D01*
X0106835Y0165358D01*
X0106940Y0165289D01*
X0107047Y0165223D01*
X0107156Y0165161D01*
X0107267Y0165102D01*
X0107380Y0165047D01*
X0107494Y0164995D01*
X0107611Y0164947D01*
X0107728Y0164902D01*
X0107847Y0164862D01*
X0107967Y0164825D01*
X0108088Y0164792D01*
X0108210Y0164762D01*
X0108333Y0164737D01*
X0108457Y0164715D01*
X0108582Y0164698D01*
X0108707Y0164684D01*
X0108832Y0164674D01*
X0108957Y0164668D01*
X0109083Y0164666D01*
X0109209Y0164668D01*
X0109334Y0164674D01*
X0109459Y0164684D01*
X0109584Y0164698D01*
X0109709Y0164715D01*
X0109833Y0164737D01*
X0109956Y0164762D01*
X0110078Y0164792D01*
X0110199Y0164825D01*
X0110319Y0164862D01*
X0110438Y0164902D01*
X0110555Y0164947D01*
X0110672Y0164995D01*
X0110786Y0165047D01*
X0110899Y0165102D01*
X0111010Y0165161D01*
X0111119Y0165223D01*
X0111226Y0165289D01*
X0111331Y0165358D01*
X0111434Y0165430D01*
X0111535Y0165505D01*
X0111633Y0165584D01*
X0111728Y0165666D01*
X0111821Y0165750D01*
X0111911Y0165838D01*
X0111999Y0165928D01*
X0112083Y0166021D01*
X0112165Y0166116D01*
X0112244Y0166214D01*
X0112319Y0166315D01*
X0112391Y0166418D01*
X0112460Y0166523D01*
X0112526Y0166630D01*
X0112588Y0166739D01*
X0112647Y0166850D01*
X0112702Y0166963D01*
X0112754Y0167077D01*
X0112802Y0167194D01*
X0112847Y0167311D01*
X0112887Y0167430D01*
X0112924Y0167550D01*
X0112957Y0167671D01*
X0112987Y0167793D01*
X0113012Y0167916D01*
X0113034Y0168040D01*
X0113051Y0168165D01*
X0113065Y0168290D01*
X0113075Y0168415D01*
X0113081Y0168540D01*
X0113083Y0168666D01*
X0120583Y0168666D01*
X0120583Y0028666D01*
X0097583Y0028666D01*
X0097583Y0168666D01*
X0151800Y0091300D02*
X0151800Y0089300D01*
X0150800Y0090300D02*
X0152800Y0090300D01*
X0153800Y0091800D02*
X0153800Y0087800D01*
X0153800Y0083800D01*
X0155800Y0083800D01*
X0155800Y0091800D01*
X0153800Y0091800D01*
X0153800Y0087800D02*
X0151300Y0087800D01*
X0148313Y0082512D02*
X0148444Y0082306D01*
X0148581Y0082104D01*
X0148723Y0081905D01*
X0148869Y0081709D01*
X0149020Y0081517D01*
X0149176Y0081329D01*
X0149336Y0081145D01*
X0149501Y0080965D01*
X0149670Y0080788D01*
X0149843Y0080616D01*
X0150021Y0080449D01*
X0150202Y0080285D01*
X0150388Y0080126D01*
X0150577Y0079972D01*
X0150770Y0079822D01*
X0150967Y0079677D01*
X0151167Y0079537D01*
X0151370Y0079402D01*
X0151577Y0079272D01*
X0151787Y0079147D01*
X0152000Y0079027D01*
X0152215Y0078913D01*
X0152434Y0078804D01*
X0152655Y0078700D01*
X0152878Y0078601D01*
X0153104Y0078508D01*
X0153332Y0078421D01*
X0153562Y0078339D01*
X0153794Y0078262D01*
X0154028Y0078192D01*
X0154264Y0078127D01*
X0154501Y0078068D01*
X0154739Y0078015D01*
X0154978Y0077967D01*
X0155219Y0077926D01*
X0155461Y0077890D01*
X0155703Y0077860D01*
X0155946Y0077837D01*
X0156190Y0077819D01*
X0156434Y0077807D01*
X0156678Y0077801D01*
X0156922Y0077801D01*
X0157166Y0077807D01*
X0157410Y0077819D01*
X0157654Y0077837D01*
X0157897Y0077860D01*
X0158139Y0077890D01*
X0158381Y0077926D01*
X0158622Y0077967D01*
X0158861Y0078015D01*
X0159099Y0078068D01*
X0159336Y0078127D01*
X0159572Y0078192D01*
X0159806Y0078262D01*
X0160038Y0078339D01*
X0160268Y0078421D01*
X0160496Y0078508D01*
X0160722Y0078601D01*
X0160945Y0078700D01*
X0161166Y0078804D01*
X0161385Y0078913D01*
X0161600Y0079027D01*
X0161813Y0079147D01*
X0162023Y0079272D01*
X0162230Y0079402D01*
X0162433Y0079537D01*
X0162633Y0079677D01*
X0162830Y0079822D01*
X0163023Y0079972D01*
X0163212Y0080126D01*
X0163398Y0080285D01*
X0163579Y0080449D01*
X0163757Y0080616D01*
X0163930Y0080788D01*
X0164099Y0080965D01*
X0164264Y0081145D01*
X0164424Y0081329D01*
X0164580Y0081517D01*
X0164731Y0081709D01*
X0164877Y0081905D01*
X0165019Y0082104D01*
X0165156Y0082306D01*
X0165287Y0082512D01*
X0162300Y0087800D02*
X0159300Y0087800D01*
X0165287Y0093088D02*
X0165156Y0093294D01*
X0165019Y0093496D01*
X0164877Y0093695D01*
X0164731Y0093891D01*
X0164580Y0094083D01*
X0164424Y0094271D01*
X0164264Y0094455D01*
X0164099Y0094635D01*
X0163930Y0094812D01*
X0163757Y0094984D01*
X0163579Y0095151D01*
X0163398Y0095315D01*
X0163212Y0095474D01*
X0163023Y0095628D01*
X0162830Y0095778D01*
X0162633Y0095923D01*
X0162433Y0096063D01*
X0162230Y0096198D01*
X0162023Y0096328D01*
X0161813Y0096453D01*
X0161600Y0096573D01*
X0161385Y0096687D01*
X0161166Y0096796D01*
X0160945Y0096900D01*
X0160722Y0096999D01*
X0160496Y0097092D01*
X0160268Y0097179D01*
X0160038Y0097261D01*
X0159806Y0097338D01*
X0159572Y0097408D01*
X0159336Y0097473D01*
X0159099Y0097532D01*
X0158861Y0097585D01*
X0158622Y0097633D01*
X0158381Y0097674D01*
X0158139Y0097710D01*
X0157897Y0097740D01*
X0157654Y0097763D01*
X0157410Y0097781D01*
X0157166Y0097793D01*
X0156922Y0097799D01*
X0156678Y0097799D01*
X0156434Y0097793D01*
X0156190Y0097781D01*
X0155946Y0097763D01*
X0155703Y0097740D01*
X0155461Y0097710D01*
X0155219Y0097674D01*
X0154978Y0097633D01*
X0154739Y0097585D01*
X0154501Y0097532D01*
X0154264Y0097473D01*
X0154028Y0097408D01*
X0153794Y0097338D01*
X0153562Y0097261D01*
X0153332Y0097179D01*
X0153104Y0097092D01*
X0152878Y0096999D01*
X0152655Y0096900D01*
X0152434Y0096796D01*
X0152215Y0096687D01*
X0152000Y0096573D01*
X0151787Y0096453D01*
X0151577Y0096328D01*
X0151370Y0096198D01*
X0151167Y0096063D01*
X0150967Y0095923D01*
X0150770Y0095778D01*
X0150577Y0095628D01*
X0150388Y0095474D01*
X0150202Y0095315D01*
X0150021Y0095151D01*
X0149843Y0094984D01*
X0149670Y0094812D01*
X0149501Y0094635D01*
X0149336Y0094455D01*
X0149176Y0094271D01*
X0149020Y0094083D01*
X0148869Y0093891D01*
X0148723Y0093695D01*
X0148581Y0093496D01*
X0148444Y0093294D01*
X0148313Y0093088D01*
X0169168Y0070505D02*
X0168100Y0069438D01*
X0168100Y0065168D01*
X0169168Y0064100D01*
X0171303Y0064100D01*
X0172370Y0065168D01*
X0172370Y0067303D01*
X0170235Y0067303D01*
X0172370Y0069438D02*
X0171303Y0070505D01*
X0169168Y0070505D01*
X0174545Y0070505D02*
X0174545Y0064100D01*
X0178816Y0064100D02*
X0178816Y0070505D01*
X0180991Y0070505D02*
X0184194Y0070505D01*
X0185261Y0069438D01*
X0185261Y0065168D01*
X0184194Y0064100D01*
X0180991Y0064100D01*
X0180991Y0070505D01*
X0174545Y0070505D02*
X0178816Y0064100D01*
X0170300Y0022800D02*
X0153300Y0022800D01*
X0153240Y0022798D01*
X0153179Y0022793D01*
X0153120Y0022784D01*
X0153061Y0022771D01*
X0153002Y0022755D01*
X0152945Y0022735D01*
X0152890Y0022712D01*
X0152835Y0022685D01*
X0152783Y0022656D01*
X0152732Y0022623D01*
X0152683Y0022587D01*
X0152637Y0022549D01*
X0152593Y0022507D01*
X0152551Y0022463D01*
X0152513Y0022417D01*
X0152477Y0022368D01*
X0152444Y0022317D01*
X0152415Y0022265D01*
X0152388Y0022210D01*
X0152365Y0022155D01*
X0152345Y0022098D01*
X0152329Y0022039D01*
X0152316Y0021980D01*
X0152307Y0021921D01*
X0152302Y0021860D01*
X0152300Y0021800D01*
X0152300Y0013800D01*
X0152302Y0013740D01*
X0152307Y0013679D01*
X0152316Y0013620D01*
X0152329Y0013561D01*
X0152345Y0013502D01*
X0152365Y0013445D01*
X0152388Y0013390D01*
X0152415Y0013335D01*
X0152444Y0013283D01*
X0152477Y0013232D01*
X0152513Y0013183D01*
X0152551Y0013137D01*
X0152593Y0013093D01*
X0152637Y0013051D01*
X0152683Y0013013D01*
X0152732Y0012977D01*
X0152783Y0012944D01*
X0152835Y0012915D01*
X0152890Y0012888D01*
X0152945Y0012865D01*
X0153002Y0012845D01*
X0153061Y0012829D01*
X0153120Y0012816D01*
X0153179Y0012807D01*
X0153240Y0012802D01*
X0153300Y0012800D01*
X0170300Y0012800D01*
X0170360Y0012802D01*
X0170421Y0012807D01*
X0170480Y0012816D01*
X0170539Y0012829D01*
X0170598Y0012845D01*
X0170655Y0012865D01*
X0170710Y0012888D01*
X0170765Y0012915D01*
X0170817Y0012944D01*
X0170868Y0012977D01*
X0170917Y0013013D01*
X0170963Y0013051D01*
X0171007Y0013093D01*
X0171049Y0013137D01*
X0171087Y0013183D01*
X0171123Y0013232D01*
X0171156Y0013283D01*
X0171185Y0013335D01*
X0171212Y0013390D01*
X0171235Y0013445D01*
X0171255Y0013502D01*
X0171271Y0013561D01*
X0171284Y0013620D01*
X0171293Y0013679D01*
X0171298Y0013740D01*
X0171300Y0013800D01*
X0171300Y0021800D01*
X0171298Y0021860D01*
X0171293Y0021921D01*
X0171284Y0021980D01*
X0171271Y0022039D01*
X0171255Y0022098D01*
X0171235Y0022155D01*
X0171212Y0022210D01*
X0171185Y0022265D01*
X0171156Y0022317D01*
X0171123Y0022368D01*
X0171087Y0022417D01*
X0171049Y0022463D01*
X0171007Y0022507D01*
X0170963Y0022549D01*
X0170917Y0022587D01*
X0170868Y0022623D01*
X0170817Y0022656D01*
X0170765Y0022685D01*
X0170710Y0022712D01*
X0170655Y0022735D01*
X0170598Y0022755D01*
X0170539Y0022771D01*
X0170480Y0022784D01*
X0170421Y0022793D01*
X0170360Y0022798D01*
X0170300Y0022800D01*
X0163300Y0017800D02*
X0162800Y0017800D01*
X0160800Y0017800D02*
X0160300Y0017800D01*
D12*
X0162593Y0011554D02*
X0161842Y0010803D01*
X0161842Y0007801D01*
X0162593Y0007050D01*
X0164094Y0007050D01*
X0164845Y0007801D01*
X0166446Y0007801D02*
X0167197Y0007050D01*
X0168698Y0007050D01*
X0169449Y0007801D01*
X0169449Y0008551D01*
X0168698Y0009302D01*
X0166446Y0009302D01*
X0166446Y0007801D01*
X0166446Y0009302D02*
X0167947Y0010803D01*
X0169449Y0011554D01*
X0164845Y0010803D02*
X0164094Y0011554D01*
X0162593Y0011554D01*
X0170046Y0031300D02*
X0153554Y0031300D01*
X0152927Y0036800D02*
X0151348Y0036800D01*
X0160673Y0036800D02*
X0162927Y0036800D01*
X0153554Y0031300D02*
X0153401Y0031499D01*
X0153253Y0031701D01*
X0153110Y0031906D01*
X0152972Y0032115D01*
X0152839Y0032327D01*
X0152711Y0032542D01*
X0152589Y0032760D01*
X0152471Y0032981D01*
X0152359Y0033205D01*
X0152252Y0033431D01*
X0152151Y0033660D01*
X0152055Y0033891D01*
X0151964Y0034125D01*
X0151879Y0034360D01*
X0151800Y0034598D01*
X0151727Y0034837D01*
X0151659Y0035078D01*
X0151597Y0035320D01*
X0151541Y0035564D01*
X0151490Y0035810D01*
X0151446Y0036056D01*
X0151407Y0036303D01*
X0151375Y0036551D01*
X0151348Y0036800D01*
X0164896Y0047833D02*
X0165138Y0047755D01*
X0165378Y0047671D01*
X0165616Y0047582D01*
X0165852Y0047486D01*
X0166086Y0047385D01*
X0166317Y0047279D01*
X0166545Y0047166D01*
X0166771Y0047049D01*
X0166994Y0046926D01*
X0167213Y0046797D01*
X0167430Y0046663D01*
X0167643Y0046524D01*
X0167853Y0046380D01*
X0168059Y0046231D01*
X0168261Y0046077D01*
X0168460Y0045918D01*
X0168655Y0045754D01*
X0168846Y0045585D01*
X0169032Y0045412D01*
X0169215Y0045235D01*
X0169393Y0045053D01*
X0169566Y0044867D01*
X0169735Y0044676D01*
X0169899Y0044482D01*
X0170059Y0044284D01*
X0170214Y0044082D01*
X0170363Y0043876D01*
X0170508Y0043667D01*
X0170648Y0043454D01*
X0170782Y0043238D01*
X0170911Y0043018D01*
X0171035Y0042796D01*
X0171154Y0042571D01*
X0171266Y0042343D01*
X0171374Y0042112D01*
X0171475Y0041879D01*
X0171571Y0041643D01*
X0171662Y0041405D01*
X0171746Y0041165D01*
X0171825Y0040923D01*
X0171898Y0040679D01*
X0171964Y0040433D01*
X0172025Y0040186D01*
X0172080Y0039938D01*
X0172129Y0039688D01*
X0172172Y0039437D01*
X0172208Y0039185D01*
X0172239Y0038933D01*
X0172263Y0038679D01*
X0172281Y0038426D01*
X0172293Y0038171D01*
X0172299Y0037917D01*
X0172299Y0037662D01*
X0172293Y0037408D01*
X0172280Y0037154D01*
X0172261Y0036900D01*
X0172236Y0036647D01*
X0172205Y0036394D01*
X0172168Y0036142D01*
X0172125Y0035892D01*
X0172076Y0035642D01*
X0172021Y0035393D01*
X0171959Y0035146D01*
X0171892Y0034901D01*
X0171819Y0034657D01*
X0171740Y0034415D01*
X0171655Y0034176D01*
X0171564Y0033938D01*
X0171467Y0033702D01*
X0171365Y0033469D01*
X0171257Y0033239D01*
X0171144Y0033011D01*
X0171025Y0032786D01*
X0170901Y0032564D01*
X0170772Y0032345D01*
X0170637Y0032129D01*
X0170497Y0031916D01*
X0170351Y0031707D01*
X0170201Y0031502D01*
X0170046Y0031300D01*
X0170673Y0036800D02*
X0172252Y0036800D01*
X0174550Y0040550D02*
X0177553Y0040550D01*
X0176051Y0040550D02*
X0176051Y0045054D01*
X0174550Y0043553D01*
X0158704Y0047833D02*
X0158460Y0047755D01*
X0158218Y0047670D01*
X0157979Y0047580D01*
X0157741Y0047484D01*
X0157506Y0047382D01*
X0157273Y0047274D01*
X0157043Y0047161D01*
X0156816Y0047042D01*
X0156592Y0046918D01*
X0156371Y0046788D01*
X0156154Y0046653D01*
X0155939Y0046512D01*
X0155728Y0046366D01*
X0155521Y0046216D01*
X0155318Y0046060D01*
X0155118Y0045899D01*
X0154922Y0045734D01*
X0154731Y0045564D01*
X0154543Y0045389D01*
X0154360Y0045209D01*
X0154182Y0045026D01*
X0154007Y0044837D01*
X0153838Y0044645D01*
X0153673Y0044449D01*
X0153513Y0044248D01*
X0153359Y0044044D01*
X0153209Y0043836D01*
X0153064Y0043625D01*
X0152924Y0043410D01*
X0152790Y0043192D01*
X0152661Y0042970D01*
X0152538Y0042746D01*
X0152420Y0042518D01*
X0152307Y0042288D01*
X0152201Y0042055D01*
X0152100Y0041819D01*
X0152004Y0041581D01*
X0151915Y0041341D01*
X0151832Y0041099D01*
X0151754Y0040854D01*
X0151683Y0040608D01*
X0151617Y0040360D01*
X0151558Y0040111D01*
X0151504Y0039861D01*
X0151457Y0039609D01*
X0151416Y0039356D01*
X0151381Y0039102D01*
X0151352Y0038847D01*
X0151330Y0038592D01*
X0151314Y0038336D01*
X0151304Y0038080D01*
X0151300Y0037824D01*
X0151303Y0037567D01*
X0151311Y0037311D01*
X0151326Y0037055D01*
X0151348Y0036800D01*
X0167801Y0093050D02*
X0169302Y0093050D01*
X0170053Y0093801D01*
X0171654Y0093801D02*
X0172405Y0093050D01*
X0173906Y0093050D01*
X0174656Y0093801D01*
X0174656Y0096803D01*
X0173906Y0097554D01*
X0172405Y0097554D01*
X0171654Y0096803D01*
X0171654Y0096053D01*
X0172405Y0095302D01*
X0174656Y0095302D01*
X0170053Y0096803D02*
X0169302Y0097554D01*
X0167801Y0097554D01*
X0167050Y0096803D01*
X0167050Y0093801D01*
X0167801Y0093050D01*
X0117717Y0169916D02*
X0114715Y0169916D01*
X0117717Y0172919D01*
X0117717Y0173669D01*
X0116966Y0174420D01*
X0115465Y0174420D01*
X0114715Y0173669D01*
X0113113Y0173669D02*
X0113113Y0172919D01*
X0112363Y0172168D01*
X0113113Y0171417D01*
X0113113Y0170667D01*
X0112363Y0169916D01*
X0110861Y0169916D01*
X0110111Y0170667D01*
X0108509Y0170667D02*
X0107759Y0169916D01*
X0106257Y0169916D01*
X0105507Y0170667D01*
X0105507Y0173669D01*
X0106257Y0174420D01*
X0107759Y0174420D01*
X0108509Y0173669D01*
X0110111Y0173669D02*
X0110861Y0174420D01*
X0112363Y0174420D01*
X0113113Y0173669D01*
X0112363Y0172168D02*
X0111612Y0172168D01*
X0103939Y0169916D02*
X0102437Y0169916D01*
X0103188Y0169916D02*
X0103188Y0174420D01*
X0102437Y0174420D02*
X0103939Y0174420D01*
X0100836Y0173669D02*
X0100836Y0172168D01*
X0100085Y0171417D01*
X0097833Y0171417D01*
X0097833Y0169916D02*
X0097833Y0174420D01*
X0100085Y0174420D01*
X0100836Y0173669D01*
X0078449Y0162050D02*
X0075446Y0162050D01*
X0076947Y0162050D02*
X0076947Y0166554D01*
X0075446Y0165053D01*
X0073845Y0165803D02*
X0073094Y0166554D01*
X0071593Y0166554D01*
X0070842Y0165803D01*
X0070842Y0162801D01*
X0071593Y0162050D01*
X0073094Y0162050D01*
X0073845Y0162801D01*
X0046656Y0162050D02*
X0043654Y0162050D01*
X0045155Y0162050D02*
X0045155Y0166554D01*
X0043654Y0165053D01*
X0042053Y0165803D02*
X0042053Y0164302D01*
X0041302Y0163551D01*
X0039050Y0163551D01*
X0039050Y0162050D02*
X0039050Y0166554D01*
X0041302Y0166554D01*
X0042053Y0165803D01*
X0040551Y0163551D02*
X0042053Y0162050D01*
X0037656Y0179050D02*
X0034654Y0179050D01*
X0037656Y0182053D01*
X0037656Y0182803D01*
X0036906Y0183554D01*
X0035405Y0183554D01*
X0034654Y0182803D01*
X0033053Y0182803D02*
X0032302Y0183554D01*
X0030801Y0183554D01*
X0030050Y0182803D01*
X0030050Y0179801D01*
X0030801Y0179050D01*
X0032302Y0179050D01*
X0033053Y0179801D01*
X0018750Y0179117D02*
X0017999Y0179868D01*
X0018750Y0179117D02*
X0018750Y0177616D01*
X0017999Y0176865D01*
X0014997Y0176865D01*
X0014246Y0177616D01*
X0014246Y0179117D01*
X0014997Y0179868D01*
X0014246Y0181469D02*
X0018750Y0181469D01*
X0017249Y0181469D02*
X0014246Y0184471D01*
X0014246Y0186073D02*
X0014246Y0187574D01*
X0014246Y0186823D02*
X0018750Y0186823D01*
X0018750Y0186073D02*
X0018750Y0187574D01*
X0018750Y0190643D02*
X0014246Y0190643D01*
X0014246Y0189142D02*
X0014246Y0192145D01*
X0014997Y0193746D02*
X0014246Y0194497D01*
X0014246Y0195998D01*
X0014997Y0196749D01*
X0015747Y0196749D01*
X0016498Y0195998D01*
X0017249Y0196749D01*
X0017999Y0196749D01*
X0018750Y0195998D01*
X0018750Y0194497D01*
X0017999Y0193746D01*
X0016498Y0195247D02*
X0016498Y0195998D01*
X0018750Y0184471D02*
X0016498Y0182220D01*
X0014246Y0175297D02*
X0014246Y0173796D01*
X0014246Y0174546D02*
X0018750Y0174546D01*
X0018750Y0173796D02*
X0018750Y0175297D01*
X0016498Y0172194D02*
X0017249Y0171444D01*
X0017249Y0169192D01*
X0018750Y0169192D02*
X0014246Y0169192D01*
X0014246Y0171444D01*
X0014997Y0172194D01*
X0016498Y0172194D01*
X0035050Y0133554D02*
X0037302Y0133554D01*
X0038053Y0132803D01*
X0038053Y0131302D01*
X0037302Y0130551D01*
X0035050Y0130551D01*
X0035050Y0129050D02*
X0035050Y0133554D01*
X0036551Y0130551D02*
X0038053Y0129050D01*
X0039654Y0129050D02*
X0042656Y0132053D01*
X0042656Y0132803D01*
X0041906Y0133554D01*
X0040405Y0133554D01*
X0039654Y0132803D01*
X0039654Y0129050D02*
X0042656Y0129050D01*
X0041906Y0113554D02*
X0042656Y0112803D01*
X0042656Y0112053D01*
X0041906Y0111302D01*
X0042656Y0110551D01*
X0042656Y0109801D01*
X0041906Y0109050D01*
X0040405Y0109050D01*
X0039654Y0109801D01*
X0038053Y0109050D02*
X0036551Y0110551D01*
X0037302Y0110551D02*
X0035050Y0110551D01*
X0035050Y0109050D02*
X0035050Y0113554D01*
X0037302Y0113554D01*
X0038053Y0112803D01*
X0038053Y0111302D01*
X0037302Y0110551D01*
X0039654Y0112803D02*
X0040405Y0113554D01*
X0041906Y0113554D01*
X0041906Y0111302D02*
X0041155Y0111302D01*
X0055597Y0097584D02*
X0057098Y0097584D01*
X0057849Y0096833D01*
X0057849Y0094581D01*
X0059350Y0094581D02*
X0054846Y0094581D01*
X0054846Y0096833D01*
X0055597Y0097584D01*
X0057849Y0096083D02*
X0059350Y0097584D01*
X0058599Y0092980D02*
X0055597Y0092980D01*
X0054846Y0092229D01*
X0054846Y0090728D01*
X0055597Y0089977D01*
X0058599Y0089977D01*
X0059350Y0090728D01*
X0059350Y0092229D01*
X0058599Y0092980D01*
X0054846Y0088376D02*
X0054846Y0085374D01*
X0054846Y0086875D02*
X0059350Y0086875D01*
X0059350Y0083772D02*
X0056347Y0083772D01*
X0054846Y0082271D01*
X0056347Y0080770D01*
X0059350Y0080770D01*
X0059350Y0079168D02*
X0054846Y0079168D01*
X0057098Y0080770D02*
X0057098Y0083772D01*
X0059350Y0079168D02*
X0054846Y0076166D01*
X0059350Y0076166D01*
X0058599Y0074564D02*
X0055597Y0074564D01*
X0054846Y0073814D01*
X0054846Y0072312D01*
X0055597Y0071562D01*
X0058599Y0071562D01*
X0059350Y0072312D01*
X0059350Y0073814D01*
X0058599Y0074564D01*
X0058599Y0069960D02*
X0057849Y0069960D01*
X0057098Y0069210D01*
X0057098Y0067708D01*
X0056347Y0066958D01*
X0055597Y0066958D01*
X0054846Y0067708D01*
X0054846Y0069210D01*
X0055597Y0069960D01*
X0058599Y0069960D02*
X0059350Y0069210D01*
X0059350Y0067708D01*
X0058599Y0066958D01*
X0059350Y0065356D02*
X0059350Y0062354D01*
X0054846Y0062354D01*
X0054846Y0065356D01*
X0057098Y0063855D02*
X0057098Y0062354D01*
X0057098Y0060753D02*
X0057849Y0060002D01*
X0057849Y0057750D01*
X0059350Y0057750D02*
X0054846Y0057750D01*
X0054846Y0060002D01*
X0055597Y0060753D01*
X0057098Y0060753D01*
X0057849Y0059251D02*
X0059350Y0060753D01*
X0049449Y0051554D02*
X0046446Y0051554D01*
X0046446Y0049302D01*
X0047947Y0050053D01*
X0048698Y0050053D01*
X0049449Y0049302D01*
X0049449Y0047801D01*
X0048698Y0047050D01*
X0047197Y0047050D01*
X0046446Y0047801D01*
X0044845Y0047801D02*
X0044094Y0047050D01*
X0042593Y0047050D01*
X0041842Y0047801D01*
X0041842Y0050803D01*
X0042593Y0051554D01*
X0044094Y0051554D01*
X0044845Y0050803D01*
X0036364Y0049550D02*
X0033362Y0049550D01*
X0036364Y0052553D01*
X0036364Y0053303D01*
X0035614Y0054054D01*
X0034112Y0054054D01*
X0033362Y0053303D01*
X0031760Y0053303D02*
X0031010Y0054054D01*
X0028758Y0054054D01*
X0028758Y0049550D01*
X0031010Y0049550D01*
X0031760Y0050301D01*
X0031760Y0053303D01*
X0027156Y0054054D02*
X0024154Y0054054D01*
X0024154Y0049550D01*
X0027156Y0049550D01*
X0025655Y0051802D02*
X0024154Y0051802D01*
X0022553Y0049550D02*
X0019550Y0049550D01*
X0019550Y0054054D01*
X0028801Y0028554D02*
X0028050Y0027803D01*
X0028050Y0024801D01*
X0028801Y0024050D01*
X0030302Y0024050D01*
X0031053Y0024801D01*
X0032654Y0026302D02*
X0035656Y0026302D01*
X0034906Y0028554D02*
X0032654Y0026302D01*
X0031053Y0027803D02*
X0030302Y0028554D01*
X0028801Y0028554D01*
X0034906Y0028554D02*
X0034906Y0024050D01*
X0077050Y0028801D02*
X0077801Y0028050D01*
X0079302Y0028050D01*
X0080053Y0028801D01*
X0081654Y0028801D02*
X0082405Y0028050D01*
X0083906Y0028050D01*
X0084656Y0028801D01*
X0084656Y0029551D01*
X0083906Y0030302D01*
X0083155Y0030302D01*
X0083906Y0030302D02*
X0084656Y0031053D01*
X0084656Y0031803D01*
X0083906Y0032554D01*
X0082405Y0032554D01*
X0081654Y0031803D01*
X0080053Y0031803D02*
X0079302Y0032554D01*
X0077801Y0032554D01*
X0077050Y0031803D01*
X0077050Y0028801D01*
X0076364Y0189550D02*
X0073362Y0189550D01*
X0074863Y0189550D02*
X0074863Y0194054D01*
X0073362Y0192553D01*
X0071760Y0193303D02*
X0071760Y0190301D01*
X0071010Y0189550D01*
X0068758Y0189550D01*
X0068758Y0194054D01*
X0071010Y0194054D01*
X0071760Y0193303D01*
X0067156Y0194054D02*
X0064154Y0194054D01*
X0064154Y0189550D01*
X0067156Y0189550D01*
X0065655Y0191802D02*
X0064154Y0191802D01*
X0062553Y0189550D02*
X0059550Y0189550D01*
X0059550Y0194054D01*
D13*
X0051800Y0195800D02*
X0051608Y0195798D01*
X0051416Y0195791D01*
X0051224Y0195779D01*
X0051032Y0195763D01*
X0050841Y0195742D01*
X0050651Y0195717D01*
X0050461Y0195687D01*
X0050272Y0195653D01*
X0050084Y0195614D01*
X0049897Y0195570D01*
X0049711Y0195522D01*
X0049526Y0195470D01*
X0049342Y0195413D01*
X0049160Y0195352D01*
X0048980Y0195286D01*
X0048801Y0195216D01*
X0048623Y0195142D01*
X0048448Y0195064D01*
X0048274Y0194981D01*
X0048103Y0194894D01*
X0047934Y0194804D01*
X0047767Y0194709D01*
X0047602Y0194610D01*
X0047439Y0194507D01*
X0047280Y0194400D01*
X0047122Y0194290D01*
X0046968Y0194176D01*
X0046816Y0194058D01*
X0046667Y0193936D01*
X0046521Y0193811D01*
X0046379Y0193683D01*
X0046239Y0193551D01*
X0046102Y0193416D01*
X0045969Y0193277D01*
X0045839Y0193136D01*
X0045713Y0192991D01*
X0045590Y0192843D01*
X0045471Y0192693D01*
X0045355Y0192539D01*
X0045243Y0192383D01*
X0045135Y0192224D01*
X0045030Y0192063D01*
X0044930Y0191899D01*
X0044834Y0191733D01*
X0044741Y0191565D01*
X0044854Y0183831D02*
X0044953Y0183662D01*
X0045057Y0183496D01*
X0045164Y0183332D01*
X0045275Y0183171D01*
X0045390Y0183013D01*
X0045509Y0182858D01*
X0045632Y0182705D01*
X0045758Y0182556D01*
X0045888Y0182410D01*
X0046022Y0182267D01*
X0046159Y0182127D01*
X0046299Y0181991D01*
X0046443Y0181858D01*
X0046590Y0181729D01*
X0046740Y0181603D01*
X0046893Y0181482D01*
X0047049Y0181363D01*
X0047208Y0181249D01*
X0047369Y0181139D01*
X0047534Y0181033D01*
X0047700Y0180930D01*
X0047870Y0180832D01*
X0048041Y0180738D01*
X0048215Y0180648D01*
X0048391Y0180563D01*
X0048569Y0180481D01*
X0048749Y0180405D01*
X0048931Y0180332D01*
X0049114Y0180264D01*
X0049299Y0180201D01*
X0049486Y0180142D01*
X0049674Y0180088D01*
X0049863Y0180038D01*
X0050053Y0179993D01*
X0050245Y0179953D01*
X0050437Y0179917D01*
X0050630Y0179886D01*
X0050824Y0179860D01*
X0051019Y0179838D01*
X0051214Y0179822D01*
X0051409Y0179810D01*
X0051605Y0179802D01*
X0051800Y0179800D01*
X0051993Y0179802D01*
X0052186Y0179809D01*
X0052378Y0179821D01*
X0052571Y0179837D01*
X0052763Y0179858D01*
X0052954Y0179884D01*
X0053144Y0179914D01*
X0053334Y0179949D01*
X0053523Y0179988D01*
X0053711Y0180032D01*
X0053898Y0180080D01*
X0054084Y0180133D01*
X0054268Y0180190D01*
X0054451Y0180252D01*
X0054632Y0180318D01*
X0054812Y0180389D01*
X0054990Y0180463D01*
X0055166Y0180542D01*
X0055340Y0180626D01*
X0055512Y0180713D01*
X0055682Y0180805D01*
X0055849Y0180901D01*
X0056015Y0181000D01*
X0056178Y0181104D01*
X0056338Y0181211D01*
X0056495Y0181323D01*
X0056650Y0181438D01*
X0056802Y0181557D01*
X0056951Y0181679D01*
X0057098Y0181805D01*
X0057241Y0181935D01*
X0057381Y0182068D01*
X0057517Y0182204D01*
X0057651Y0182344D01*
X0057780Y0182486D01*
X0057907Y0182632D01*
X0057946Y0192922D02*
X0057819Y0193070D01*
X0057689Y0193215D01*
X0057556Y0193356D01*
X0057419Y0193495D01*
X0057279Y0193630D01*
X0057135Y0193761D01*
X0056988Y0193889D01*
X0056839Y0194014D01*
X0056686Y0194135D01*
X0056531Y0194252D01*
X0056372Y0194365D01*
X0056211Y0194474D01*
X0056047Y0194579D01*
X0055881Y0194681D01*
X0055712Y0194778D01*
X0055542Y0194871D01*
X0055368Y0194960D01*
X0055193Y0195045D01*
X0055016Y0195125D01*
X0054837Y0195201D01*
X0054656Y0195273D01*
X0054473Y0195340D01*
X0054289Y0195403D01*
X0054103Y0195461D01*
X0053916Y0195515D01*
X0053728Y0195564D01*
X0053538Y0195609D01*
X0053348Y0195649D01*
X0053156Y0195684D01*
X0052964Y0195715D01*
X0052771Y0195741D01*
X0052577Y0195762D01*
X0052383Y0195779D01*
X0052189Y0195791D01*
X0051995Y0195798D01*
X0051800Y0195800D01*
X0039800Y0175800D02*
X0039800Y0172800D01*
X0039800Y0169800D01*
X0037800Y0169800D02*
X0037800Y0172800D01*
X0037800Y0175800D01*
X0069800Y0175800D02*
X0069800Y0172800D01*
X0069800Y0169800D01*
X0071800Y0169800D02*
X0071800Y0172800D01*
X0071800Y0175800D01*
X0042800Y0060800D02*
X0042800Y0057800D01*
X0042800Y0054800D01*
X0040800Y0054800D02*
X0040800Y0057800D01*
X0040800Y0060800D01*
X0011800Y0055800D02*
X0011608Y0055798D01*
X0011416Y0055791D01*
X0011224Y0055779D01*
X0011032Y0055763D01*
X0010841Y0055742D01*
X0010651Y0055717D01*
X0010461Y0055687D01*
X0010272Y0055653D01*
X0010084Y0055614D01*
X0009897Y0055570D01*
X0009711Y0055522D01*
X0009526Y0055470D01*
X0009342Y0055413D01*
X0009160Y0055352D01*
X0008980Y0055286D01*
X0008801Y0055216D01*
X0008623Y0055142D01*
X0008448Y0055064D01*
X0008274Y0054981D01*
X0008103Y0054894D01*
X0007934Y0054804D01*
X0007767Y0054709D01*
X0007602Y0054610D01*
X0007439Y0054507D01*
X0007280Y0054400D01*
X0007122Y0054290D01*
X0006968Y0054176D01*
X0006816Y0054058D01*
X0006667Y0053936D01*
X0006521Y0053811D01*
X0006379Y0053683D01*
X0006239Y0053551D01*
X0006102Y0053416D01*
X0005969Y0053277D01*
X0005839Y0053136D01*
X0005713Y0052991D01*
X0005590Y0052843D01*
X0005471Y0052693D01*
X0005355Y0052539D01*
X0005243Y0052383D01*
X0005135Y0052224D01*
X0005030Y0052063D01*
X0004930Y0051899D01*
X0004834Y0051733D01*
X0004741Y0051565D01*
X0004854Y0043831D02*
X0004953Y0043662D01*
X0005057Y0043496D01*
X0005164Y0043332D01*
X0005275Y0043171D01*
X0005390Y0043013D01*
X0005509Y0042858D01*
X0005632Y0042705D01*
X0005758Y0042556D01*
X0005888Y0042410D01*
X0006022Y0042267D01*
X0006159Y0042127D01*
X0006299Y0041991D01*
X0006443Y0041858D01*
X0006590Y0041729D01*
X0006740Y0041603D01*
X0006893Y0041482D01*
X0007049Y0041363D01*
X0007208Y0041249D01*
X0007369Y0041139D01*
X0007534Y0041033D01*
X0007700Y0040930D01*
X0007870Y0040832D01*
X0008041Y0040738D01*
X0008215Y0040648D01*
X0008391Y0040563D01*
X0008569Y0040481D01*
X0008749Y0040405D01*
X0008931Y0040332D01*
X0009114Y0040264D01*
X0009299Y0040201D01*
X0009486Y0040142D01*
X0009674Y0040088D01*
X0009863Y0040038D01*
X0010053Y0039993D01*
X0010245Y0039953D01*
X0010437Y0039917D01*
X0010630Y0039886D01*
X0010824Y0039860D01*
X0011019Y0039838D01*
X0011214Y0039822D01*
X0011409Y0039810D01*
X0011605Y0039802D01*
X0011800Y0039800D01*
X0011993Y0039802D01*
X0012186Y0039809D01*
X0012378Y0039821D01*
X0012571Y0039837D01*
X0012763Y0039858D01*
X0012954Y0039884D01*
X0013144Y0039914D01*
X0013334Y0039949D01*
X0013523Y0039988D01*
X0013711Y0040032D01*
X0013898Y0040080D01*
X0014084Y0040133D01*
X0014268Y0040190D01*
X0014451Y0040252D01*
X0014632Y0040318D01*
X0014812Y0040389D01*
X0014990Y0040463D01*
X0015166Y0040542D01*
X0015340Y0040626D01*
X0015512Y0040713D01*
X0015682Y0040805D01*
X0015849Y0040901D01*
X0016015Y0041000D01*
X0016178Y0041104D01*
X0016338Y0041211D01*
X0016495Y0041323D01*
X0016650Y0041438D01*
X0016802Y0041557D01*
X0016951Y0041679D01*
X0017098Y0041805D01*
X0017241Y0041935D01*
X0017381Y0042068D01*
X0017517Y0042204D01*
X0017651Y0042344D01*
X0017780Y0042486D01*
X0017907Y0042632D01*
X0017946Y0052922D02*
X0017819Y0053070D01*
X0017689Y0053215D01*
X0017556Y0053356D01*
X0017419Y0053495D01*
X0017279Y0053630D01*
X0017135Y0053761D01*
X0016988Y0053889D01*
X0016839Y0054014D01*
X0016686Y0054135D01*
X0016531Y0054252D01*
X0016372Y0054365D01*
X0016211Y0054474D01*
X0016047Y0054579D01*
X0015881Y0054681D01*
X0015712Y0054778D01*
X0015542Y0054871D01*
X0015368Y0054960D01*
X0015193Y0055045D01*
X0015016Y0055125D01*
X0014837Y0055201D01*
X0014656Y0055273D01*
X0014473Y0055340D01*
X0014289Y0055403D01*
X0014103Y0055461D01*
X0013916Y0055515D01*
X0013728Y0055564D01*
X0013538Y0055609D01*
X0013348Y0055649D01*
X0013156Y0055684D01*
X0012964Y0055715D01*
X0012771Y0055741D01*
X0012577Y0055762D01*
X0012383Y0055779D01*
X0012189Y0055791D01*
X0011995Y0055798D01*
X0011800Y0055800D01*
X0035800Y0020800D02*
X0035800Y0017800D01*
X0035800Y0014800D01*
X0037800Y0014800D02*
X0037800Y0017800D01*
X0037800Y0020800D01*
X0160800Y0020800D02*
X0160800Y0017800D01*
X0160800Y0014800D01*
X0162800Y0014800D02*
X0162800Y0017800D01*
X0162800Y0020800D01*
D14*
X0158800Y0087800D03*
X0068800Y0022800D03*
D15*
X0069300Y0057800D02*
X0064300Y0057800D01*
X0061800Y0060300D01*
X0061800Y0065300D01*
X0064300Y0067800D01*
X0061800Y0070300D01*
X0061800Y0075300D01*
X0064300Y0077800D01*
X0061800Y0080300D01*
X0061800Y0085300D01*
X0064300Y0087800D01*
X0069300Y0087800D01*
X0071800Y0085300D01*
X0071800Y0080300D01*
X0069300Y0077800D01*
X0071800Y0075300D01*
X0071800Y0070300D01*
X0069300Y0067800D01*
X0071800Y0065300D01*
X0071800Y0060300D01*
X0069300Y0057800D01*
X0011800Y0065300D02*
X0009300Y0062800D01*
X0004300Y0062800D01*
X0001800Y0065300D01*
X0001800Y0070300D01*
X0004300Y0072800D01*
X0001800Y0075300D01*
X0001800Y0080300D01*
X0004300Y0082800D01*
X0001800Y0085300D01*
X0001800Y0090300D01*
X0004300Y0092800D01*
X0001800Y0095300D01*
X0001800Y0100300D01*
X0004300Y0102800D01*
X0001800Y0105300D01*
X0001800Y0110300D01*
X0004300Y0112800D01*
X0001800Y0115300D01*
X0001800Y0120300D01*
X0004300Y0122800D01*
X0001800Y0125300D01*
X0001800Y0130300D01*
X0004300Y0132800D01*
X0001800Y0135300D01*
X0001800Y0140300D01*
X0004300Y0142800D01*
X0009300Y0142800D01*
X0011800Y0140300D01*
X0011800Y0135300D01*
X0009300Y0132800D01*
X0011800Y0130300D01*
X0011800Y0125300D01*
X0009300Y0122800D01*
X0011800Y0120300D01*
X0011800Y0115300D01*
X0009300Y0112800D01*
X0011800Y0110300D01*
X0011800Y0105300D01*
X0009300Y0102800D01*
X0011800Y0100300D01*
X0011800Y0095300D01*
X0009300Y0092800D01*
X0011800Y0090300D01*
X0011800Y0085300D01*
X0009300Y0082800D01*
X0011800Y0080300D01*
X0011800Y0075300D01*
X0009300Y0072800D01*
X0011800Y0070300D01*
X0011800Y0065300D01*
X0009300Y0147800D02*
X0004300Y0147800D01*
X0001800Y0150300D01*
X0001800Y0155300D01*
X0004300Y0157800D01*
X0001800Y0160300D01*
X0001800Y0165300D01*
X0004300Y0167800D01*
X0001800Y0170300D01*
X0001800Y0175300D01*
X0004300Y0177800D01*
X0001800Y0180300D01*
X0001800Y0185300D01*
X0004300Y0187800D01*
X0001800Y0190300D01*
X0001800Y0195300D01*
X0004300Y0197800D01*
X0009300Y0197800D01*
X0011800Y0195300D01*
X0011800Y0190300D01*
X0009300Y0187800D01*
X0011800Y0185300D01*
X0011800Y0180300D01*
X0009300Y0177800D01*
X0011800Y0175300D01*
X0011800Y0170300D01*
X0009300Y0167800D01*
X0011800Y0165300D01*
X0011800Y0160300D01*
X0009300Y0157800D01*
X0011800Y0155300D01*
X0011800Y0150300D01*
X0009300Y0147800D01*
X0101800Y0190300D02*
X0104300Y0187800D01*
X0109300Y0187800D01*
X0111800Y0190300D01*
X0114300Y0187800D01*
X0119300Y0187800D01*
X0121800Y0190300D01*
X0124300Y0187800D01*
X0129300Y0187800D01*
X0131800Y0190300D01*
X0134300Y0187800D01*
X0139300Y0187800D01*
X0141800Y0190300D01*
X0144300Y0187800D01*
X0149300Y0187800D01*
X0151800Y0190300D01*
X0151800Y0195300D01*
X0149300Y0197800D01*
X0144300Y0197800D01*
X0141800Y0195300D01*
X0139300Y0197800D01*
X0134300Y0197800D01*
X0131800Y0195300D01*
X0129300Y0197800D01*
X0124300Y0197800D01*
X0121800Y0195300D01*
X0119300Y0197800D01*
X0114300Y0197800D01*
X0111800Y0195300D01*
X0109300Y0197800D01*
X0104300Y0197800D01*
X0101800Y0195300D01*
X0101800Y0190300D01*
X0188800Y0140300D02*
X0188800Y0135300D01*
X0191300Y0132800D01*
X0188800Y0130300D01*
X0188800Y0125300D01*
X0191300Y0122800D01*
X0188800Y0120300D01*
X0188800Y0115300D01*
X0191300Y0112800D01*
X0188800Y0110300D01*
X0188800Y0105300D01*
X0191300Y0102800D01*
X0188800Y0100300D01*
X0188800Y0095300D01*
X0191300Y0092800D01*
X0188800Y0090300D01*
X0188800Y0085300D01*
X0191300Y0082800D01*
X0188800Y0080300D01*
X0188800Y0075300D01*
X0191300Y0072800D01*
X0188800Y0070300D01*
X0188800Y0065300D01*
X0191300Y0062800D01*
X0196300Y0062800D01*
X0198800Y0065300D01*
X0198800Y0070300D01*
X0196300Y0072800D01*
X0198800Y0075300D01*
X0198800Y0080300D01*
X0196300Y0082800D01*
X0198800Y0085300D01*
X0198800Y0090300D01*
X0196300Y0092800D01*
X0198800Y0095300D01*
X0198800Y0100300D01*
X0196300Y0102800D01*
X0198800Y0105300D01*
X0198800Y0110300D01*
X0196300Y0112800D01*
X0198800Y0115300D01*
X0198800Y0120300D01*
X0196300Y0122800D01*
X0198800Y0125300D01*
X0198800Y0130300D01*
X0196300Y0132800D01*
X0198800Y0135300D01*
X0198800Y0140300D01*
X0196300Y0142800D01*
X0191300Y0142800D01*
X0188800Y0140300D01*
D16*
X0065000Y0155800D03*
X0036600Y0155800D03*
X0032600Y0122800D03*
X0032600Y0102800D03*
X0061000Y0102800D03*
X0061000Y0122800D03*
D17*
X0182906Y0155224D02*
X0183673Y0154457D01*
X0185207Y0154457D01*
X0185975Y0155224D01*
X0185975Y0159061D01*
X0187509Y0158293D02*
X0188277Y0159061D01*
X0189811Y0159061D01*
X0190579Y0158293D01*
X0192113Y0158293D02*
X0192881Y0159061D01*
X0194415Y0159061D01*
X0195183Y0158293D01*
X0195183Y0157526D01*
X0194415Y0156759D01*
X0195183Y0155991D01*
X0195183Y0155224D01*
X0194415Y0154457D01*
X0192881Y0154457D01*
X0192113Y0155224D01*
X0190579Y0155224D02*
X0190579Y0155991D01*
X0189811Y0156759D01*
X0188277Y0156759D01*
X0187509Y0157526D01*
X0187509Y0158293D01*
X0189044Y0159828D02*
X0189044Y0153689D01*
X0188277Y0154457D02*
X0189811Y0154457D01*
X0190579Y0155224D01*
X0193648Y0156759D02*
X0194415Y0156759D01*
X0188277Y0154457D02*
X0187509Y0155224D01*
X0182906Y0155224D02*
X0182906Y0159061D01*
M02*
