G75*
%MOIN*%
%OFA0B0*%
%FSLAX25Y25*%
%IPPOS*%
%LPD*%
%AMOC8*
5,1,8,0,0,1.08239X$1,22.5*
%
%ADD10C,0.00000*%
%ADD11OC8,0.05200*%
%ADD12C,0.07500*%
%ADD13OC8,0.07500*%
%ADD14C,0.07400*%
%ADD15C,0.05200*%
%ADD16C,0.05150*%
%ADD17C,0.11220*%
%ADD18C,0.01600*%
%ADD19C,0.03562*%
D10*
X0001800Y0002800D02*
X0001800Y0199650D01*
X0198650Y0199650D01*
X0198650Y0002800D01*
X0001800Y0002800D01*
D11*
X0031800Y0017800D03*
X0041800Y0017800D03*
X0016800Y0047800D03*
X0006800Y0047800D03*
X0036800Y0057800D03*
X0046800Y0057800D03*
X0026800Y0102800D03*
X0026800Y0122800D03*
X0030800Y0155800D03*
X0033800Y0172800D03*
X0043800Y0172800D03*
X0046800Y0187800D03*
X0056800Y0187800D03*
X0065800Y0172800D03*
X0075800Y0172800D03*
X0070800Y0155800D03*
X0066800Y0122800D03*
X0066800Y0102800D03*
X0156800Y0037800D03*
X0161800Y0045300D03*
X0166800Y0037800D03*
X0166800Y0017800D03*
X0156800Y0017800D03*
D12*
X0146800Y0087800D03*
X0056800Y0022800D03*
D13*
X0076800Y0022800D03*
X0166800Y0087800D03*
D14*
X0193800Y0087800D03*
X0193800Y0077800D03*
X0193800Y0067800D03*
X0193800Y0097800D03*
X0193800Y0107800D03*
X0193800Y0117800D03*
X0193800Y0127800D03*
X0193800Y0137800D03*
X0146800Y0192800D03*
X0136800Y0192800D03*
X0126800Y0192800D03*
X0116800Y0192800D03*
X0106800Y0192800D03*
X0091800Y0192800D03*
X0071800Y0192800D03*
X0006800Y0192800D03*
X0006800Y0182800D03*
X0006800Y0172800D03*
X0006800Y0162800D03*
X0006800Y0152800D03*
X0006800Y0137800D03*
X0006800Y0127800D03*
X0006800Y0117800D03*
X0006800Y0107800D03*
X0006800Y0097800D03*
X0006800Y0087800D03*
X0006800Y0077800D03*
X0006800Y0067800D03*
X0066800Y0062800D03*
X0066800Y0072800D03*
X0066800Y0082800D03*
X0096800Y0007800D03*
X0116800Y0007800D03*
D15*
X0121483Y0033666D02*
X0126683Y0033666D01*
X0126683Y0043666D02*
X0121483Y0043666D01*
X0121483Y0053666D02*
X0126683Y0053666D01*
X0126683Y0063666D02*
X0121483Y0063666D01*
X0121483Y0073666D02*
X0126683Y0073666D01*
X0126683Y0083666D02*
X0121483Y0083666D01*
X0121483Y0093666D02*
X0126683Y0093666D01*
X0126683Y0103666D02*
X0121483Y0103666D01*
X0121483Y0113666D02*
X0126683Y0113666D01*
X0126683Y0123666D02*
X0121483Y0123666D01*
X0121483Y0133666D02*
X0126683Y0133666D01*
X0126683Y0143666D02*
X0121483Y0143666D01*
X0121483Y0153666D02*
X0126683Y0153666D01*
X0126683Y0163666D02*
X0121483Y0163666D01*
X0096683Y0163666D02*
X0091483Y0163666D01*
X0091483Y0153666D02*
X0096683Y0153666D01*
X0096683Y0143666D02*
X0091483Y0143666D01*
X0091483Y0133666D02*
X0096683Y0133666D01*
X0096683Y0123666D02*
X0091483Y0123666D01*
X0091483Y0113666D02*
X0096683Y0113666D01*
X0096683Y0103666D02*
X0091483Y0103666D01*
X0091483Y0093666D02*
X0096683Y0093666D01*
X0096683Y0083666D02*
X0091483Y0083666D01*
X0091483Y0073666D02*
X0096683Y0073666D01*
X0096683Y0063666D02*
X0091483Y0063666D01*
X0091483Y0053666D02*
X0096683Y0053666D01*
X0096683Y0043666D02*
X0091483Y0043666D01*
X0091483Y0033666D02*
X0096683Y0033666D01*
D16*
X0170501Y0162721D03*
X0173650Y0167446D03*
X0176800Y0162721D03*
X0179950Y0167446D03*
X0183099Y0162721D03*
D17*
X0191170Y0182800D03*
X0162430Y0182800D03*
D18*
X0167765Y0188227D02*
X0185835Y0188227D01*
X0186859Y0189252D02*
X0184718Y0187111D01*
X0183560Y0184314D01*
X0183560Y0181286D01*
X0184718Y0178489D01*
X0186859Y0176348D01*
X0189656Y0175190D01*
X0192684Y0175190D01*
X0195481Y0176348D01*
X0196650Y0177518D01*
X0196650Y0142789D01*
X0194934Y0143500D01*
X0192666Y0143500D01*
X0190600Y0142644D01*
X0190600Y0143253D01*
X0191005Y0143658D01*
X0191581Y0145048D01*
X0191581Y0146552D01*
X0191005Y0147942D01*
X0189942Y0149005D01*
X0188552Y0149581D01*
X0187048Y0149581D01*
X0185658Y0149005D01*
X0185600Y0148947D01*
X0185600Y0152640D01*
X0192386Y0159426D01*
X0193174Y0160214D01*
X0193600Y0161243D01*
X0193600Y0167357D01*
X0193174Y0168386D01*
X0189174Y0172386D01*
X0188386Y0173174D01*
X0187357Y0173600D01*
X0182747Y0173600D01*
X0181718Y0173174D01*
X0180565Y0172020D01*
X0179040Y0172020D01*
X0177358Y0171324D01*
X0176800Y0170766D01*
X0176242Y0171324D01*
X0174560Y0172020D01*
X0172740Y0172020D01*
X0171059Y0171324D01*
X0169981Y0170246D01*
X0161889Y0170246D01*
X0160860Y0169819D01*
X0154426Y0163386D01*
X0154000Y0162357D01*
X0154000Y0046960D01*
X0134640Y0027600D01*
X0120960Y0027600D01*
X0114174Y0034386D01*
X0113386Y0035174D01*
X0112357Y0035600D01*
X0100861Y0035600D01*
X0100583Y0036272D01*
X0099289Y0037566D01*
X0097598Y0038266D01*
X0090568Y0038266D01*
X0088878Y0037566D01*
X0088600Y0037288D01*
X0088600Y0040044D01*
X0088878Y0039766D01*
X0090568Y0039066D01*
X0097598Y0039066D01*
X0099289Y0039766D01*
X0100583Y0041060D01*
X0101283Y0042751D01*
X0101283Y0044581D01*
X0100602Y0046225D01*
X0113174Y0058797D01*
X0113600Y0059826D01*
X0113600Y0101640D01*
X0117126Y0105166D01*
X0116883Y0104581D01*
X0116883Y0102751D01*
X0117584Y0101060D01*
X0118878Y0099766D01*
X0120568Y0099066D01*
X0127598Y0099066D01*
X0129289Y0099766D01*
X0130583Y0101060D01*
X0131283Y0102751D01*
X0131283Y0104581D01*
X0130583Y0106272D01*
X0129289Y0107566D01*
X0127598Y0108266D01*
X0120568Y0108266D01*
X0119984Y0108024D01*
X0121026Y0109066D01*
X0127598Y0109066D01*
X0129289Y0109766D01*
X0130583Y0111060D01*
X0131283Y0112751D01*
X0131283Y0114581D01*
X0130583Y0116272D01*
X0129289Y0117566D01*
X0127598Y0118266D01*
X0123294Y0118266D01*
X0122494Y0119066D01*
X0127598Y0119066D01*
X0129289Y0119766D01*
X0130583Y0121060D01*
X0131283Y0122751D01*
X0131283Y0124581D01*
X0130583Y0126272D01*
X0129289Y0127566D01*
X0127598Y0128266D01*
X0120568Y0128266D01*
X0118878Y0127566D01*
X0117584Y0126272D01*
X0116911Y0124648D01*
X0115600Y0125960D01*
X0115600Y0151223D01*
X0117167Y0152790D01*
X0117192Y0152636D01*
X0117406Y0151977D01*
X0117720Y0151360D01*
X0118127Y0150800D01*
X0118617Y0150310D01*
X0119177Y0149903D01*
X0119794Y0149588D01*
X0120453Y0149374D01*
X0121137Y0149266D01*
X0124083Y0149266D01*
X0124083Y0153666D01*
X0124084Y0153666D01*
X0124084Y0153666D01*
X0131083Y0153666D01*
X0131083Y0153320D01*
X0130975Y0152636D01*
X0130761Y0151977D01*
X0130447Y0151360D01*
X0130040Y0150800D01*
X0129550Y0150310D01*
X0128990Y0149903D01*
X0128372Y0149588D01*
X0127714Y0149374D01*
X0127030Y0149266D01*
X0124084Y0149266D01*
X0124084Y0153666D01*
X0131083Y0153666D01*
X0131083Y0154012D01*
X0130975Y0154696D01*
X0130761Y0155355D01*
X0130447Y0155972D01*
X0130040Y0156533D01*
X0129550Y0157022D01*
X0128990Y0157429D01*
X0128372Y0157744D01*
X0127714Y0157958D01*
X0127030Y0158066D01*
X0124084Y0158066D01*
X0124084Y0153666D01*
X0124083Y0153666D01*
X0124083Y0158066D01*
X0122443Y0158066D01*
X0123443Y0159066D01*
X0127598Y0159066D01*
X0129289Y0159766D01*
X0130583Y0161060D01*
X0131168Y0162472D01*
X0144019Y0149621D01*
X0144019Y0149048D01*
X0144595Y0147658D01*
X0145658Y0146595D01*
X0147048Y0146019D01*
X0148552Y0146019D01*
X0149942Y0146595D01*
X0151005Y0147658D01*
X0151581Y0149048D01*
X0151581Y0150552D01*
X0151005Y0151942D01*
X0149942Y0153005D01*
X0148552Y0153581D01*
X0147979Y0153581D01*
X0129600Y0171960D01*
X0129600Y0187790D01*
X0130029Y0187968D01*
X0131632Y0189571D01*
X0131800Y0189976D01*
X0131968Y0189571D01*
X0133571Y0187968D01*
X0135666Y0187100D01*
X0137934Y0187100D01*
X0140029Y0187968D01*
X0141632Y0189571D01*
X0141800Y0189976D01*
X0141968Y0189571D01*
X0143571Y0187968D01*
X0145666Y0187100D01*
X0147934Y0187100D01*
X0150029Y0187968D01*
X0151632Y0189571D01*
X0152500Y0191666D01*
X0152500Y0193934D01*
X0151632Y0196029D01*
X0150029Y0197632D01*
X0149985Y0197650D01*
X0196650Y0197650D01*
X0196650Y0188082D01*
X0195481Y0189252D01*
X0192684Y0190410D01*
X0189656Y0190410D01*
X0186859Y0189252D01*
X0188245Y0189826D02*
X0165355Y0189826D01*
X0166741Y0189252D02*
X0163944Y0190410D01*
X0160916Y0190410D01*
X0158119Y0189252D01*
X0155978Y0187111D01*
X0154820Y0184314D01*
X0154820Y0181286D01*
X0155978Y0178489D01*
X0158119Y0176348D01*
X0160916Y0175190D01*
X0163944Y0175190D01*
X0166741Y0176348D01*
X0168882Y0178489D01*
X0170040Y0181286D01*
X0170040Y0184314D01*
X0168882Y0187111D01*
X0166741Y0189252D01*
X0169081Y0186629D02*
X0184519Y0186629D01*
X0183857Y0185030D02*
X0169743Y0185030D01*
X0170040Y0183432D02*
X0183560Y0183432D01*
X0183560Y0181833D02*
X0170040Y0181833D01*
X0169605Y0180235D02*
X0183995Y0180235D01*
X0184657Y0178636D02*
X0168942Y0178636D01*
X0167430Y0177038D02*
X0186170Y0177038D01*
X0189054Y0175439D02*
X0164546Y0175439D01*
X0160314Y0175439D02*
X0129600Y0175439D01*
X0129600Y0173841D02*
X0196650Y0173841D01*
X0196650Y0175439D02*
X0193286Y0175439D01*
X0196170Y0177038D02*
X0196650Y0177038D01*
X0196650Y0172242D02*
X0189318Y0172242D01*
X0190916Y0170644D02*
X0196650Y0170644D01*
X0196650Y0169045D02*
X0192515Y0169045D01*
X0193563Y0167447D02*
X0196650Y0167447D01*
X0196650Y0165848D02*
X0193600Y0165848D01*
X0193600Y0164250D02*
X0196650Y0164250D01*
X0196650Y0162651D02*
X0193600Y0162651D01*
X0193521Y0161053D02*
X0196650Y0161053D01*
X0196650Y0159454D02*
X0192414Y0159454D01*
X0190815Y0157856D02*
X0196650Y0157856D01*
X0196650Y0156257D02*
X0189217Y0156257D01*
X0187618Y0154659D02*
X0196650Y0154659D01*
X0196650Y0153060D02*
X0186020Y0153060D01*
X0185600Y0151462D02*
X0196650Y0151462D01*
X0196650Y0149863D02*
X0185600Y0149863D01*
X0187800Y0145800D02*
X0187800Y0083800D01*
X0193800Y0077800D01*
X0191264Y0072681D02*
X0190917Y0072504D01*
X0190217Y0071995D01*
X0189605Y0071383D01*
X0189096Y0070683D01*
X0188703Y0069911D01*
X0188435Y0069088D01*
X0188300Y0068233D01*
X0188300Y0068000D01*
X0193600Y0068000D01*
X0193600Y0067600D01*
X0194000Y0067600D01*
X0194000Y0062300D01*
X0194233Y0062300D01*
X0195088Y0062435D01*
X0195911Y0062703D01*
X0196650Y0063080D01*
X0196650Y0004800D01*
X0121419Y0004800D01*
X0121504Y0004917D01*
X0121897Y0005689D01*
X0122165Y0006512D01*
X0122300Y0007367D01*
X0122300Y0007600D01*
X0117000Y0007600D01*
X0117000Y0008000D01*
X0116600Y0008000D01*
X0116600Y0013300D01*
X0116367Y0013300D01*
X0115512Y0013165D01*
X0114689Y0012897D01*
X0113917Y0012504D01*
X0113217Y0011995D01*
X0112605Y0011383D01*
X0112096Y0010683D01*
X0111703Y0009911D01*
X0111435Y0009088D01*
X0111300Y0008233D01*
X0111300Y0008000D01*
X0116600Y0008000D01*
X0116600Y0007600D01*
X0111300Y0007600D01*
X0111300Y0007367D01*
X0111435Y0006512D01*
X0111703Y0005689D01*
X0112096Y0004917D01*
X0112181Y0004800D01*
X0101727Y0004800D01*
X0102500Y0006666D01*
X0102500Y0008934D01*
X0101632Y0011029D01*
X0100029Y0012632D01*
X0097934Y0013500D01*
X0096060Y0013500D01*
X0088600Y0020960D01*
X0088600Y0030044D01*
X0088878Y0029766D01*
X0090568Y0029066D01*
X0097598Y0029066D01*
X0099289Y0029766D01*
X0099523Y0030000D01*
X0110640Y0030000D01*
X0118214Y0022426D01*
X0119243Y0022000D01*
X0136357Y0022000D01*
X0137386Y0022426D01*
X0138174Y0023214D01*
X0152400Y0037440D01*
X0152400Y0035977D01*
X0154977Y0033400D01*
X0156800Y0033400D01*
X0158623Y0033400D01*
X0161200Y0035977D01*
X0161200Y0037800D01*
X0161200Y0039623D01*
X0160123Y0040700D01*
X0163195Y0040700D01*
X0162200Y0039705D01*
X0162200Y0035895D01*
X0164000Y0034095D01*
X0164000Y0021505D01*
X0162200Y0019705D01*
X0162200Y0015895D01*
X0164895Y0013200D01*
X0168705Y0013200D01*
X0171400Y0015895D01*
X0171400Y0019705D01*
X0169600Y0021505D01*
X0169600Y0034095D01*
X0171400Y0035895D01*
X0171400Y0039705D01*
X0168705Y0042400D01*
X0165405Y0042400D01*
X0166400Y0043395D01*
X0166400Y0047205D01*
X0163705Y0049900D01*
X0159895Y0049900D01*
X0159600Y0049605D01*
X0159600Y0160640D01*
X0163605Y0164646D01*
X0166571Y0164646D01*
X0166446Y0164401D01*
X0166234Y0163746D01*
X0166126Y0163066D01*
X0166126Y0162721D01*
X0166126Y0162377D01*
X0166234Y0161697D01*
X0166446Y0161042D01*
X0166759Y0160428D01*
X0167164Y0159871D01*
X0167651Y0159384D01*
X0168208Y0158980D01*
X0168821Y0158667D01*
X0169476Y0158454D01*
X0170156Y0158346D01*
X0170501Y0158346D01*
X0170845Y0158346D01*
X0171525Y0158454D01*
X0172180Y0158667D01*
X0172794Y0158980D01*
X0173351Y0159384D01*
X0173509Y0159543D01*
X0174000Y0159052D01*
X0174000Y0099960D01*
X0171621Y0097581D01*
X0171048Y0097581D01*
X0169658Y0097005D01*
X0168595Y0095942D01*
X0168019Y0094552D01*
X0168019Y0093350D01*
X0166800Y0093350D01*
X0166800Y0087800D01*
X0173800Y0087800D01*
X0193800Y0067800D01*
X0193600Y0067600D02*
X0193600Y0062300D01*
X0193367Y0062300D01*
X0192512Y0062435D01*
X0191689Y0062703D01*
X0190917Y0063096D01*
X0190217Y0063605D01*
X0189605Y0064217D01*
X0189096Y0064917D01*
X0188703Y0065689D01*
X0188435Y0066512D01*
X0188300Y0067367D01*
X0188300Y0067600D01*
X0193600Y0067600D01*
X0193600Y0066740D02*
X0194000Y0066740D01*
X0194000Y0065142D02*
X0193600Y0065142D01*
X0193600Y0063543D02*
X0194000Y0063543D01*
X0196650Y0061945D02*
X0159600Y0061945D01*
X0159600Y0063543D02*
X0190302Y0063543D01*
X0188982Y0065142D02*
X0159600Y0065142D01*
X0159600Y0066740D02*
X0188399Y0066740D01*
X0188317Y0068339D02*
X0159600Y0068339D01*
X0159600Y0069937D02*
X0188716Y0069937D01*
X0189758Y0071536D02*
X0159600Y0071536D01*
X0159600Y0073134D02*
X0190404Y0073134D01*
X0190571Y0072968D02*
X0188968Y0074571D01*
X0188100Y0076666D01*
X0188100Y0078934D01*
X0188278Y0079363D01*
X0186214Y0081426D01*
X0185426Y0082214D01*
X0185000Y0083243D01*
X0185000Y0115653D01*
X0184942Y0115595D01*
X0183552Y0115019D01*
X0182048Y0115019D01*
X0180658Y0115595D01*
X0179600Y0116653D01*
X0179600Y0098243D01*
X0179174Y0097214D01*
X0178386Y0096426D01*
X0175581Y0093621D01*
X0175581Y0093048D01*
X0175005Y0091658D01*
X0173942Y0090595D01*
X0172552Y0090019D01*
X0172350Y0090019D01*
X0172350Y0087800D01*
X0166800Y0087800D01*
X0166800Y0087800D01*
X0166800Y0087800D01*
X0172350Y0087800D01*
X0172350Y0085501D01*
X0169099Y0082250D01*
X0166800Y0082250D01*
X0166800Y0087800D01*
X0166800Y0087800D01*
X0166800Y0087800D01*
X0161250Y0087800D01*
X0161250Y0090099D01*
X0164501Y0093350D01*
X0166800Y0093350D01*
X0166800Y0087800D01*
X0166800Y0082250D01*
X0164501Y0082250D01*
X0161250Y0085501D01*
X0161250Y0087800D01*
X0166800Y0087800D01*
X0166800Y0087521D02*
X0166800Y0087521D01*
X0166800Y0085923D02*
X0166800Y0085923D01*
X0166800Y0084324D02*
X0166800Y0084324D01*
X0166800Y0082726D02*
X0166800Y0082726D01*
X0169574Y0082726D02*
X0185214Y0082726D01*
X0185000Y0084324D02*
X0171173Y0084324D01*
X0172350Y0085923D02*
X0185000Y0085923D01*
X0185000Y0087521D02*
X0172350Y0087521D01*
X0172350Y0089120D02*
X0185000Y0089120D01*
X0185000Y0090718D02*
X0174065Y0090718D01*
X0175278Y0092317D02*
X0185000Y0092317D01*
X0185000Y0093915D02*
X0175875Y0093915D01*
X0177473Y0095514D02*
X0185000Y0095514D01*
X0185000Y0097112D02*
X0179072Y0097112D01*
X0179600Y0098711D02*
X0185000Y0098711D01*
X0185000Y0100309D02*
X0179600Y0100309D01*
X0179600Y0101908D02*
X0185000Y0101908D01*
X0185000Y0103506D02*
X0179600Y0103506D01*
X0179600Y0105105D02*
X0185000Y0105105D01*
X0185000Y0106703D02*
X0179600Y0106703D01*
X0179600Y0108302D02*
X0185000Y0108302D01*
X0185000Y0109900D02*
X0179600Y0109900D01*
X0179600Y0111499D02*
X0185000Y0111499D01*
X0185000Y0113097D02*
X0179600Y0113097D01*
X0179600Y0114696D02*
X0185000Y0114696D01*
X0182800Y0118800D02*
X0182800Y0153800D01*
X0190800Y0161800D01*
X0190800Y0166800D01*
X0186800Y0170800D01*
X0183304Y0170800D01*
X0179950Y0167446D01*
X0180786Y0172242D02*
X0129600Y0172242D01*
X0130916Y0170644D02*
X0170379Y0170644D01*
X0173650Y0167446D02*
X0162446Y0167446D01*
X0156800Y0161800D01*
X0156800Y0045800D01*
X0135800Y0024800D01*
X0119800Y0024800D01*
X0111800Y0032800D01*
X0094950Y0032800D01*
X0094083Y0033666D01*
X0089847Y0037967D02*
X0088600Y0037967D01*
X0088600Y0039566D02*
X0089362Y0039566D01*
X0094083Y0043666D02*
X0110800Y0060383D01*
X0110800Y0102800D01*
X0121666Y0113666D01*
X0123934Y0113666D01*
X0112800Y0124800D01*
X0112800Y0152383D01*
X0124083Y0163666D01*
X0119217Y0158800D01*
X0087800Y0158800D01*
X0082800Y0163800D01*
X0080800Y0163800D01*
X0083347Y0166600D02*
X0082942Y0167005D01*
X0081552Y0167581D01*
X0080048Y0167581D01*
X0078658Y0167005D01*
X0077595Y0165942D01*
X0077019Y0164552D01*
X0077019Y0163048D01*
X0077595Y0161658D01*
X0078658Y0160595D01*
X0080048Y0160019D01*
X0081552Y0160019D01*
X0082308Y0160332D01*
X0085426Y0157214D01*
X0086214Y0156426D01*
X0087243Y0156000D01*
X0087471Y0156000D01*
X0086883Y0154581D01*
X0086883Y0152751D01*
X0087584Y0151060D01*
X0088878Y0149766D01*
X0090568Y0149066D01*
X0097598Y0149066D01*
X0099289Y0149766D01*
X0100583Y0151060D01*
X0101283Y0152751D01*
X0101283Y0154581D01*
X0100696Y0156000D01*
X0112458Y0156000D01*
X0110426Y0153969D01*
X0110000Y0152940D01*
X0110000Y0124243D01*
X0110426Y0123214D01*
X0111214Y0122426D01*
X0117521Y0116120D01*
X0116883Y0114581D01*
X0116883Y0112843D01*
X0109214Y0105174D01*
X0108426Y0104386D01*
X0108000Y0103357D01*
X0108000Y0061542D01*
X0101212Y0054754D01*
X0100583Y0056272D01*
X0099289Y0057566D01*
X0097598Y0058266D01*
X0090568Y0058266D01*
X0088878Y0057566D01*
X0087584Y0056272D01*
X0086883Y0054581D01*
X0086883Y0052751D01*
X0087565Y0051107D01*
X0083426Y0046969D01*
X0083000Y0045940D01*
X0083000Y0019243D01*
X0083426Y0018214D01*
X0084214Y0017426D01*
X0091571Y0010070D01*
X0091100Y0008934D01*
X0091100Y0006666D01*
X0091873Y0004800D01*
X0003800Y0004800D01*
X0003800Y0044295D01*
X0004895Y0043200D01*
X0008705Y0043200D01*
X0011400Y0045895D01*
X0011400Y0048440D01*
X0012200Y0049240D01*
X0012200Y0045895D01*
X0014895Y0043200D01*
X0018705Y0043200D01*
X0021400Y0045895D01*
X0021400Y0048440D01*
X0022174Y0049214D01*
X0022600Y0050243D01*
X0022600Y0094640D01*
X0026160Y0098200D01*
X0028705Y0098200D01*
X0031400Y0100895D01*
X0031400Y0104705D01*
X0028705Y0107400D01*
X0024895Y0107400D01*
X0022200Y0104705D01*
X0022200Y0102160D01*
X0018214Y0098174D01*
X0017426Y0097386D01*
X0017000Y0096357D01*
X0017000Y0092560D01*
X0016386Y0093174D01*
X0012500Y0097060D01*
X0012500Y0098934D01*
X0011632Y0101029D01*
X0010029Y0102632D01*
X0009624Y0102800D01*
X0010029Y0102968D01*
X0011632Y0104571D01*
X0012500Y0106666D01*
X0012500Y0108934D01*
X0011632Y0111029D01*
X0010029Y0112632D01*
X0009624Y0112800D01*
X0010029Y0112968D01*
X0011632Y0114571D01*
X0012500Y0116666D01*
X0012500Y0118934D01*
X0011632Y0121029D01*
X0010029Y0122632D01*
X0009624Y0122800D01*
X0010029Y0122968D01*
X0011632Y0124571D01*
X0012500Y0126666D01*
X0012500Y0128934D01*
X0011632Y0131029D01*
X0010029Y0132632D01*
X0009624Y0132800D01*
X0010029Y0132968D01*
X0011632Y0134571D01*
X0012500Y0136666D01*
X0012500Y0138934D01*
X0011632Y0141029D01*
X0010029Y0142632D01*
X0007934Y0143500D01*
X0005666Y0143500D01*
X0003800Y0142727D01*
X0003800Y0147873D01*
X0005666Y0147100D01*
X0007934Y0147100D01*
X0010029Y0147968D01*
X0011632Y0149571D01*
X0011810Y0150000D01*
X0012640Y0150000D01*
X0018000Y0144640D01*
X0018000Y0138243D01*
X0018426Y0137214D01*
X0023019Y0132621D01*
X0023019Y0132048D01*
X0023595Y0130658D01*
X0024658Y0129595D01*
X0026048Y0129019D01*
X0027552Y0129019D01*
X0028942Y0129595D01*
X0030005Y0130658D01*
X0030581Y0132048D01*
X0030581Y0133552D01*
X0030005Y0134942D01*
X0028942Y0136005D01*
X0027552Y0136581D01*
X0026979Y0136581D01*
X0023600Y0139960D01*
X0023600Y0146357D01*
X0023174Y0147386D01*
X0022386Y0148174D01*
X0015386Y0155174D01*
X0014357Y0155600D01*
X0011810Y0155600D01*
X0011632Y0156029D01*
X0010029Y0157632D01*
X0009624Y0157800D01*
X0010029Y0157968D01*
X0011632Y0159571D01*
X0012500Y0161666D01*
X0012500Y0163934D01*
X0011632Y0166029D01*
X0010029Y0167632D01*
X0009336Y0167919D01*
X0009683Y0168096D01*
X0010383Y0168605D01*
X0010995Y0169217D01*
X0011504Y0169917D01*
X0011897Y0170689D01*
X0012165Y0171512D01*
X0012300Y0172367D01*
X0012300Y0172600D01*
X0007000Y0172600D01*
X0007000Y0173000D01*
X0012300Y0173000D01*
X0012300Y0173233D01*
X0012165Y0174088D01*
X0011897Y0174911D01*
X0011504Y0175683D01*
X0010995Y0176383D01*
X0010383Y0176995D01*
X0009683Y0177504D01*
X0009336Y0177681D01*
X0010029Y0177968D01*
X0011632Y0179571D01*
X0012500Y0181666D01*
X0012500Y0183934D01*
X0011632Y0186029D01*
X0010029Y0187632D01*
X0009624Y0187800D01*
X0010029Y0187968D01*
X0011632Y0189571D01*
X0012500Y0191666D01*
X0012500Y0193934D01*
X0011632Y0196029D01*
X0010029Y0197632D01*
X0009985Y0197650D01*
X0068615Y0197650D01*
X0068571Y0197632D01*
X0066968Y0196029D01*
X0066100Y0193934D01*
X0066100Y0191666D01*
X0066968Y0189571D01*
X0068571Y0187968D01*
X0070666Y0187100D01*
X0072934Y0187100D01*
X0075029Y0187968D01*
X0076632Y0189571D01*
X0077500Y0191666D01*
X0077500Y0193934D01*
X0076632Y0196029D01*
X0075029Y0197632D01*
X0074985Y0197650D01*
X0089205Y0197650D01*
X0088917Y0197504D01*
X0088217Y0196995D01*
X0087605Y0196383D01*
X0087096Y0195683D01*
X0086703Y0194911D01*
X0086435Y0194088D01*
X0086300Y0193233D01*
X0086300Y0193000D01*
X0091600Y0193000D01*
X0091600Y0192600D01*
X0092000Y0192600D01*
X0092000Y0193000D01*
X0097300Y0193000D01*
X0097300Y0193233D01*
X0097165Y0194088D01*
X0096897Y0194911D01*
X0096504Y0195683D01*
X0095995Y0196383D01*
X0095383Y0196995D01*
X0094683Y0197504D01*
X0094395Y0197650D01*
X0103615Y0197650D01*
X0103571Y0197632D01*
X0101968Y0196029D01*
X0101100Y0193934D01*
X0101100Y0191666D01*
X0101968Y0189571D01*
X0103571Y0187968D01*
X0105666Y0187100D01*
X0107934Y0187100D01*
X0110029Y0187968D01*
X0111632Y0189571D01*
X0111800Y0189976D01*
X0111968Y0189571D01*
X0113571Y0187968D01*
X0115666Y0187100D01*
X0117140Y0187100D01*
X0105640Y0175600D01*
X0079505Y0175600D01*
X0077705Y0177400D01*
X0073895Y0177400D01*
X0071200Y0174705D01*
X0071200Y0170895D01*
X0073895Y0168200D01*
X0077705Y0168200D01*
X0079505Y0170000D01*
X0107357Y0170000D01*
X0108386Y0170426D01*
X0124000Y0186040D01*
X0124000Y0170243D01*
X0124426Y0169214D01*
X0125214Y0168426D01*
X0125374Y0168266D01*
X0120568Y0168266D01*
X0118878Y0167566D01*
X0117584Y0166272D01*
X0116883Y0164581D01*
X0116883Y0162751D01*
X0117360Y0161600D01*
X0100807Y0161600D01*
X0101283Y0162751D01*
X0101283Y0164581D01*
X0100583Y0166272D01*
X0099289Y0167566D01*
X0097598Y0168266D01*
X0090568Y0168266D01*
X0088878Y0167566D01*
X0087584Y0166272D01*
X0086883Y0164581D01*
X0086883Y0163676D01*
X0084386Y0166174D01*
X0083357Y0166600D01*
X0083347Y0166600D01*
X0084712Y0165848D02*
X0087408Y0165848D01*
X0086883Y0164250D02*
X0086310Y0164250D01*
X0088759Y0167447D02*
X0081877Y0167447D01*
X0079723Y0167447D02*
X0053600Y0167447D01*
X0053600Y0169045D02*
X0063332Y0169045D01*
X0063977Y0168400D02*
X0065800Y0168400D01*
X0067623Y0168400D01*
X0070200Y0170977D01*
X0070200Y0172800D01*
X0070200Y0174623D01*
X0067623Y0177200D01*
X0065800Y0177200D01*
X0065800Y0172800D01*
X0075800Y0162800D01*
X0075800Y0131800D01*
X0066800Y0122800D01*
X0066800Y0102800D01*
X0068800Y0102800D01*
X0076800Y0094800D01*
X0076800Y0082800D01*
X0066800Y0072800D01*
X0067000Y0073000D02*
X0072300Y0073000D01*
X0072300Y0073233D01*
X0072165Y0074088D01*
X0071897Y0074911D01*
X0071504Y0075683D01*
X0070995Y0076383D01*
X0070383Y0076995D01*
X0069683Y0077504D01*
X0069336Y0077681D01*
X0070029Y0077968D01*
X0071632Y0079571D01*
X0072500Y0081666D01*
X0072500Y0083934D01*
X0071632Y0086029D01*
X0070029Y0087632D01*
X0067934Y0088500D01*
X0065666Y0088500D01*
X0063571Y0087632D01*
X0061968Y0086029D01*
X0061100Y0083934D01*
X0061100Y0081666D01*
X0061968Y0079571D01*
X0063571Y0077968D01*
X0064264Y0077681D01*
X0063917Y0077504D01*
X0063217Y0076995D01*
X0062605Y0076383D01*
X0062096Y0075683D01*
X0061703Y0074911D01*
X0061435Y0074088D01*
X0061300Y0073233D01*
X0061300Y0073000D01*
X0066600Y0073000D01*
X0066600Y0072600D01*
X0061300Y0072600D01*
X0061300Y0072367D01*
X0061435Y0071512D01*
X0061703Y0070689D01*
X0062096Y0069917D01*
X0062605Y0069217D01*
X0063217Y0068605D01*
X0063917Y0068096D01*
X0064264Y0067919D01*
X0063571Y0067632D01*
X0061968Y0066029D01*
X0061100Y0063934D01*
X0061100Y0061666D01*
X0061968Y0059571D01*
X0063571Y0057968D01*
X0065666Y0057100D01*
X0067934Y0057100D01*
X0070029Y0057968D01*
X0071632Y0059571D01*
X0072500Y0061666D01*
X0072500Y0063934D01*
X0071632Y0066029D01*
X0070029Y0067632D01*
X0069336Y0067919D01*
X0069683Y0068096D01*
X0070383Y0068605D01*
X0070995Y0069217D01*
X0071504Y0069917D01*
X0071897Y0070689D01*
X0072165Y0071512D01*
X0072300Y0072367D01*
X0072300Y0072600D01*
X0067000Y0072600D01*
X0067000Y0073000D01*
X0071033Y0076332D02*
X0087643Y0076332D01*
X0087584Y0076272D02*
X0086883Y0074581D01*
X0086883Y0072751D01*
X0087584Y0071060D01*
X0088878Y0069766D01*
X0090568Y0069066D01*
X0097598Y0069066D01*
X0099289Y0069766D01*
X0100583Y0071060D01*
X0101283Y0072751D01*
X0101283Y0074581D01*
X0100583Y0076272D01*
X0099289Y0077566D01*
X0097598Y0078266D01*
X0090568Y0078266D01*
X0088878Y0077566D01*
X0087584Y0076272D01*
X0086946Y0074733D02*
X0071955Y0074733D01*
X0072300Y0073134D02*
X0086883Y0073134D01*
X0087387Y0071536D02*
X0072168Y0071536D01*
X0071514Y0069937D02*
X0088707Y0069937D01*
X0088878Y0067566D02*
X0087584Y0066272D01*
X0086883Y0064581D01*
X0086883Y0062751D01*
X0087584Y0061060D01*
X0088878Y0059766D01*
X0090568Y0059066D01*
X0097598Y0059066D01*
X0099289Y0059766D01*
X0100583Y0061060D01*
X0101283Y0062751D01*
X0101283Y0064581D01*
X0100583Y0066272D01*
X0099289Y0067566D01*
X0097598Y0068266D01*
X0090568Y0068266D01*
X0088878Y0067566D01*
X0088052Y0066740D02*
X0070921Y0066740D01*
X0070017Y0068339D02*
X0108000Y0068339D01*
X0108000Y0069937D02*
X0099460Y0069937D01*
X0100780Y0071536D02*
X0108000Y0071536D01*
X0108000Y0073134D02*
X0101283Y0073134D01*
X0101221Y0074733D02*
X0108000Y0074733D01*
X0108000Y0076332D02*
X0100523Y0076332D01*
X0098410Y0077930D02*
X0108000Y0077930D01*
X0108000Y0079529D02*
X0098715Y0079529D01*
X0099289Y0079766D02*
X0100583Y0081060D01*
X0101283Y0082751D01*
X0101283Y0084581D01*
X0100583Y0086272D01*
X0099289Y0087566D01*
X0097598Y0088266D01*
X0090568Y0088266D01*
X0088878Y0087566D01*
X0087584Y0086272D01*
X0086883Y0084581D01*
X0086883Y0082751D01*
X0087584Y0081060D01*
X0088878Y0079766D01*
X0090568Y0079066D01*
X0097598Y0079066D01*
X0099289Y0079766D01*
X0100611Y0081127D02*
X0108000Y0081127D01*
X0108000Y0082726D02*
X0101273Y0082726D01*
X0101283Y0084324D02*
X0108000Y0084324D01*
X0108000Y0085923D02*
X0100728Y0085923D01*
X0099334Y0087521D02*
X0108000Y0087521D01*
X0108000Y0089120D02*
X0022600Y0089120D01*
X0022600Y0090718D02*
X0088209Y0090718D01*
X0088127Y0090800D02*
X0088617Y0090310D01*
X0089177Y0089903D01*
X0089794Y0089588D01*
X0090453Y0089374D01*
X0091137Y0089266D01*
X0094083Y0089266D01*
X0094083Y0093666D01*
X0087083Y0093666D01*
X0087083Y0093320D01*
X0087192Y0092636D01*
X0087406Y0091977D01*
X0087720Y0091360D01*
X0088127Y0090800D01*
X0087295Y0092317D02*
X0022600Y0092317D01*
X0022600Y0093915D02*
X0087083Y0093915D01*
X0087083Y0094012D02*
X0087083Y0093666D01*
X0094083Y0093666D01*
X0094083Y0093666D01*
X0094084Y0093666D01*
X0094084Y0093666D01*
X0101083Y0093666D01*
X0101083Y0093320D01*
X0100975Y0092636D01*
X0100761Y0091977D01*
X0100447Y0091360D01*
X0100040Y0090800D01*
X0099550Y0090310D01*
X0098990Y0089903D01*
X0098372Y0089588D01*
X0097714Y0089374D01*
X0097030Y0089266D01*
X0094084Y0089266D01*
X0094084Y0093666D01*
X0101083Y0093666D01*
X0101083Y0094012D01*
X0100975Y0094696D01*
X0100761Y0095355D01*
X0100447Y0095972D01*
X0100040Y0096533D01*
X0099550Y0097022D01*
X0098990Y0097429D01*
X0098372Y0097744D01*
X0097714Y0097958D01*
X0097030Y0098066D01*
X0094084Y0098066D01*
X0094084Y0093666D01*
X0094083Y0093666D01*
X0094083Y0098066D01*
X0091137Y0098066D01*
X0090453Y0097958D01*
X0089794Y0097744D01*
X0089177Y0097429D01*
X0088617Y0097022D01*
X0088127Y0096533D01*
X0087720Y0095972D01*
X0087406Y0095355D01*
X0087192Y0094696D01*
X0087083Y0094012D01*
X0087487Y0095514D02*
X0023473Y0095514D01*
X0025072Y0097112D02*
X0088741Y0097112D01*
X0088878Y0099766D02*
X0090568Y0099066D01*
X0097598Y0099066D01*
X0099289Y0099766D01*
X0100583Y0101060D01*
X0101283Y0102751D01*
X0101283Y0104581D01*
X0100583Y0106272D01*
X0099289Y0107566D01*
X0097598Y0108266D01*
X0090568Y0108266D01*
X0088878Y0107566D01*
X0087584Y0106272D01*
X0086883Y0104581D01*
X0086883Y0102751D01*
X0087584Y0101060D01*
X0088878Y0099766D01*
X0088335Y0100309D02*
X0070532Y0100309D01*
X0071200Y0100977D02*
X0068623Y0098400D01*
X0066800Y0098400D01*
X0066800Y0102800D01*
X0071200Y0102800D01*
X0071200Y0104623D01*
X0068623Y0107200D01*
X0066800Y0107200D01*
X0066800Y0102800D01*
X0066800Y0102800D01*
X0066800Y0102800D01*
X0071200Y0102800D01*
X0071200Y0100977D01*
X0071200Y0101908D02*
X0087233Y0101908D01*
X0086883Y0103506D02*
X0071200Y0103506D01*
X0070718Y0105105D02*
X0087100Y0105105D01*
X0088015Y0106703D02*
X0069119Y0106703D01*
X0066800Y0106703D02*
X0066800Y0106703D01*
X0066800Y0107200D02*
X0064977Y0107200D01*
X0062400Y0104623D01*
X0062400Y0102800D01*
X0066800Y0102800D01*
X0066800Y0102800D01*
X0066800Y0102800D01*
X0066800Y0107200D01*
X0066800Y0105105D02*
X0066800Y0105105D01*
X0066800Y0103506D02*
X0066800Y0103506D01*
X0066800Y0102800D02*
X0062400Y0102800D01*
X0062400Y0100977D01*
X0064977Y0098400D01*
X0066800Y0098400D01*
X0066800Y0102800D01*
X0066800Y0101908D02*
X0066800Y0101908D01*
X0066800Y0100309D02*
X0066800Y0100309D01*
X0066800Y0098711D02*
X0066800Y0098711D01*
X0068933Y0098711D02*
X0108000Y0098711D01*
X0108000Y0100309D02*
X0099832Y0100309D01*
X0100934Y0101908D02*
X0108000Y0101908D01*
X0108062Y0103506D02*
X0101283Y0103506D01*
X0101067Y0105105D02*
X0109145Y0105105D01*
X0110743Y0106703D02*
X0100152Y0106703D01*
X0099289Y0109766D02*
X0097598Y0109066D01*
X0090568Y0109066D01*
X0088878Y0109766D01*
X0087584Y0111060D01*
X0086883Y0112751D01*
X0086883Y0114581D01*
X0087584Y0116272D01*
X0088878Y0117566D01*
X0090568Y0118266D01*
X0097598Y0118266D01*
X0099289Y0117566D01*
X0100583Y0116272D01*
X0101283Y0114581D01*
X0101283Y0112751D01*
X0100583Y0111060D01*
X0099289Y0109766D01*
X0099423Y0109900D02*
X0113940Y0109900D01*
X0112342Y0108302D02*
X0012500Y0108302D01*
X0012500Y0106703D02*
X0024198Y0106703D01*
X0022599Y0105105D02*
X0011853Y0105105D01*
X0010567Y0103506D02*
X0022200Y0103506D01*
X0021948Y0101908D02*
X0010753Y0101908D01*
X0011930Y0100309D02*
X0020349Y0100309D01*
X0018751Y0098711D02*
X0012500Y0098711D01*
X0012500Y0097112D02*
X0017313Y0097112D01*
X0017000Y0095514D02*
X0014046Y0095514D01*
X0015645Y0093915D02*
X0017000Y0093915D01*
X0019800Y0095800D02*
X0019800Y0050800D01*
X0016800Y0047800D01*
X0019867Y0044361D02*
X0044000Y0044361D01*
X0044000Y0042763D02*
X0003800Y0042763D01*
X0003800Y0041164D02*
X0044000Y0041164D01*
X0044000Y0039566D02*
X0003800Y0039566D01*
X0003800Y0037967D02*
X0044000Y0037967D01*
X0044000Y0036369D02*
X0003800Y0036369D01*
X0003800Y0034770D02*
X0044000Y0034770D01*
X0044000Y0033172D02*
X0003800Y0033172D01*
X0003800Y0031573D02*
X0044277Y0031573D01*
X0044426Y0031214D02*
X0045214Y0030426D01*
X0051239Y0024401D01*
X0051050Y0023944D01*
X0051050Y0021656D01*
X0051925Y0019543D01*
X0053543Y0017925D01*
X0055656Y0017050D01*
X0057944Y0017050D01*
X0060057Y0017925D01*
X0061675Y0019543D01*
X0062550Y0021656D01*
X0062550Y0023944D01*
X0061675Y0026057D01*
X0060057Y0027675D01*
X0057944Y0028550D01*
X0055656Y0028550D01*
X0055199Y0028361D01*
X0049600Y0033960D01*
X0049600Y0054095D01*
X0051400Y0055895D01*
X0051400Y0059705D01*
X0048705Y0062400D01*
X0044895Y0062400D01*
X0042200Y0059705D01*
X0042200Y0055895D01*
X0044000Y0054095D01*
X0044000Y0032243D01*
X0044426Y0031214D01*
X0045214Y0030426D02*
X0045214Y0030426D01*
X0045666Y0029975D02*
X0003800Y0029975D01*
X0003800Y0028376D02*
X0047264Y0028376D01*
X0048863Y0026778D02*
X0003800Y0026778D01*
X0003800Y0025179D02*
X0050461Y0025179D01*
X0051050Y0023581D02*
X0003800Y0023581D01*
X0003800Y0021982D02*
X0029760Y0021982D01*
X0029977Y0022200D02*
X0027400Y0019623D01*
X0027400Y0017800D01*
X0031800Y0017800D01*
X0036800Y0022800D01*
X0036800Y0057800D01*
X0041800Y0062800D01*
X0041800Y0072800D01*
X0052000Y0073134D02*
X0022600Y0073134D01*
X0022600Y0071536D02*
X0052000Y0071536D01*
X0052000Y0069937D02*
X0022600Y0069937D01*
X0022600Y0068339D02*
X0052000Y0068339D01*
X0052000Y0066740D02*
X0022600Y0066740D01*
X0022600Y0065142D02*
X0052000Y0065142D01*
X0052000Y0063543D02*
X0022600Y0063543D01*
X0022600Y0061945D02*
X0034722Y0061945D01*
X0034977Y0062200D02*
X0032400Y0059623D01*
X0032400Y0057800D01*
X0036800Y0057800D01*
X0041200Y0057800D01*
X0041200Y0059623D01*
X0038623Y0062200D01*
X0036800Y0062200D01*
X0036800Y0057800D01*
X0036800Y0057800D01*
X0036800Y0057800D01*
X0041200Y0057800D01*
X0041200Y0055977D01*
X0038623Y0053400D01*
X0036800Y0053400D01*
X0036800Y0057800D01*
X0036800Y0057800D01*
X0036800Y0057800D01*
X0036800Y0062200D01*
X0034977Y0062200D01*
X0036800Y0061945D02*
X0036800Y0061945D01*
X0036800Y0060346D02*
X0036800Y0060346D01*
X0036800Y0058748D02*
X0036800Y0058748D01*
X0036800Y0057800D02*
X0032400Y0057800D01*
X0032400Y0055977D01*
X0034977Y0053400D01*
X0036800Y0053400D01*
X0036800Y0057800D01*
X0036800Y0057149D02*
X0036800Y0057149D01*
X0036800Y0055551D02*
X0036800Y0055551D01*
X0036800Y0053952D02*
X0036800Y0053952D01*
X0039175Y0053952D02*
X0044000Y0053952D01*
X0044000Y0052354D02*
X0022600Y0052354D01*
X0022600Y0053952D02*
X0034425Y0053952D01*
X0032827Y0055551D02*
X0022600Y0055551D01*
X0022600Y0057149D02*
X0032400Y0057149D01*
X0032400Y0058748D02*
X0022600Y0058748D01*
X0022600Y0060346D02*
X0033124Y0060346D01*
X0038878Y0061945D02*
X0044440Y0061945D01*
X0042841Y0060346D02*
X0040476Y0060346D01*
X0041200Y0058748D02*
X0042200Y0058748D01*
X0042200Y0057149D02*
X0041200Y0057149D01*
X0040773Y0055551D02*
X0042544Y0055551D01*
X0046800Y0057800D02*
X0046800Y0032800D01*
X0056800Y0022800D01*
X0060917Y0018785D02*
X0072966Y0018785D01*
X0074501Y0017250D02*
X0071250Y0020501D01*
X0071250Y0022800D01*
X0076800Y0022800D01*
X0082350Y0022800D01*
X0082350Y0025099D01*
X0079099Y0028350D01*
X0076800Y0028350D01*
X0076800Y0022800D01*
X0076800Y0022800D01*
X0076800Y0022800D01*
X0082350Y0022800D01*
X0082350Y0020501D01*
X0079099Y0017250D01*
X0076800Y0017250D01*
X0076800Y0022800D01*
X0076800Y0022800D01*
X0076800Y0022800D01*
X0076800Y0028350D01*
X0074501Y0028350D01*
X0071250Y0025099D01*
X0071250Y0022800D01*
X0076800Y0022800D01*
X0076800Y0017250D01*
X0074501Y0017250D01*
X0076800Y0018785D02*
X0076800Y0018785D01*
X0076800Y0020384D02*
X0076800Y0020384D01*
X0076800Y0021982D02*
X0076800Y0021982D01*
X0076800Y0023581D02*
X0076800Y0023581D01*
X0076800Y0025179D02*
X0076800Y0025179D01*
X0076800Y0026778D02*
X0076800Y0026778D01*
X0080671Y0026778D02*
X0083000Y0026778D01*
X0083000Y0028376D02*
X0058363Y0028376D01*
X0060954Y0026778D02*
X0072929Y0026778D01*
X0071330Y0025179D02*
X0062038Y0025179D01*
X0062550Y0023581D02*
X0071250Y0023581D01*
X0071250Y0021982D02*
X0062550Y0021982D01*
X0062023Y0020384D02*
X0071367Y0020384D01*
X0080634Y0018785D02*
X0083190Y0018785D01*
X0083000Y0020384D02*
X0082232Y0020384D01*
X0082350Y0021982D02*
X0083000Y0021982D01*
X0083000Y0023581D02*
X0082350Y0023581D01*
X0082270Y0025179D02*
X0083000Y0025179D01*
X0083000Y0029975D02*
X0053585Y0029975D01*
X0051987Y0031573D02*
X0083000Y0031573D01*
X0083000Y0033172D02*
X0050388Y0033172D01*
X0049600Y0034770D02*
X0083000Y0034770D01*
X0083000Y0036369D02*
X0049600Y0036369D01*
X0049600Y0037967D02*
X0083000Y0037967D01*
X0083000Y0039566D02*
X0049600Y0039566D01*
X0049600Y0041164D02*
X0083000Y0041164D01*
X0083000Y0042763D02*
X0068110Y0042763D01*
X0067942Y0042595D02*
X0069005Y0043658D01*
X0069581Y0045048D01*
X0069581Y0046552D01*
X0069005Y0047942D01*
X0067942Y0049005D01*
X0066552Y0049581D01*
X0065979Y0049581D01*
X0057600Y0057960D01*
X0057600Y0079253D01*
X0058005Y0079658D01*
X0058581Y0081048D01*
X0058581Y0082552D01*
X0058005Y0083942D01*
X0056942Y0085005D01*
X0055552Y0085581D01*
X0054048Y0085581D01*
X0052658Y0085005D01*
X0051595Y0083942D01*
X0051019Y0082552D01*
X0051019Y0081048D01*
X0051595Y0079658D01*
X0052000Y0079253D01*
X0052000Y0056243D01*
X0052426Y0055214D01*
X0062019Y0045621D01*
X0062019Y0045048D01*
X0062595Y0043658D01*
X0063658Y0042595D01*
X0065048Y0042019D01*
X0066552Y0042019D01*
X0067942Y0042595D01*
X0069297Y0044361D02*
X0083000Y0044361D01*
X0083008Y0045960D02*
X0069581Y0045960D01*
X0069164Y0047558D02*
X0084016Y0047558D01*
X0085614Y0049157D02*
X0067576Y0049157D01*
X0064804Y0050755D02*
X0087213Y0050755D01*
X0087048Y0052354D02*
X0063206Y0052354D01*
X0061607Y0053952D02*
X0086883Y0053952D01*
X0087285Y0055551D02*
X0060009Y0055551D01*
X0058410Y0057149D02*
X0065547Y0057149D01*
X0068053Y0057149D02*
X0088461Y0057149D01*
X0088298Y0060346D02*
X0071953Y0060346D01*
X0072500Y0061945D02*
X0087217Y0061945D01*
X0086883Y0063543D02*
X0072500Y0063543D01*
X0072000Y0065142D02*
X0087116Y0065142D01*
X0089757Y0077930D02*
X0069938Y0077930D01*
X0071590Y0079529D02*
X0089452Y0079529D01*
X0087556Y0081127D02*
X0072277Y0081127D01*
X0072500Y0082726D02*
X0086894Y0082726D01*
X0086883Y0084324D02*
X0072338Y0084324D01*
X0071676Y0085923D02*
X0087439Y0085923D01*
X0088833Y0087521D02*
X0070140Y0087521D01*
X0063460Y0087521D02*
X0022600Y0087521D01*
X0022600Y0085923D02*
X0061924Y0085923D01*
X0061262Y0084324D02*
X0057623Y0084324D01*
X0058509Y0082726D02*
X0061100Y0082726D01*
X0061323Y0081127D02*
X0058581Y0081127D01*
X0057876Y0079529D02*
X0062010Y0079529D01*
X0063662Y0077930D02*
X0057600Y0077930D01*
X0057600Y0076332D02*
X0062567Y0076332D01*
X0061645Y0074733D02*
X0057600Y0074733D01*
X0057600Y0073134D02*
X0061300Y0073134D01*
X0061432Y0071536D02*
X0057600Y0071536D01*
X0057600Y0069937D02*
X0062086Y0069937D01*
X0063583Y0068339D02*
X0057600Y0068339D01*
X0057600Y0066740D02*
X0062679Y0066740D01*
X0061600Y0065142D02*
X0057600Y0065142D01*
X0057600Y0063543D02*
X0061100Y0063543D01*
X0061100Y0061945D02*
X0057600Y0061945D01*
X0057600Y0060346D02*
X0061647Y0060346D01*
X0062791Y0058748D02*
X0057600Y0058748D01*
X0054800Y0056800D02*
X0065800Y0045800D01*
X0062303Y0044361D02*
X0049600Y0044361D01*
X0049600Y0042763D02*
X0063490Y0042763D01*
X0061680Y0045960D02*
X0049600Y0045960D01*
X0049600Y0047558D02*
X0060082Y0047558D01*
X0058483Y0049157D02*
X0049600Y0049157D01*
X0049600Y0050755D02*
X0056885Y0050755D01*
X0055286Y0052354D02*
X0049600Y0052354D01*
X0049600Y0053952D02*
X0053688Y0053952D01*
X0052287Y0055551D02*
X0051056Y0055551D01*
X0051400Y0057149D02*
X0052000Y0057149D01*
X0052000Y0058748D02*
X0051400Y0058748D01*
X0052000Y0060346D02*
X0050759Y0060346D01*
X0052000Y0061945D02*
X0049160Y0061945D01*
X0054800Y0056800D02*
X0054800Y0081800D01*
X0051977Y0084324D02*
X0022600Y0084324D01*
X0022600Y0082726D02*
X0051091Y0082726D01*
X0051019Y0081127D02*
X0022600Y0081127D01*
X0022600Y0079529D02*
X0051724Y0079529D01*
X0052000Y0077930D02*
X0022600Y0077930D01*
X0022600Y0076332D02*
X0052000Y0076332D01*
X0052000Y0074733D02*
X0022600Y0074733D01*
X0012000Y0066006D02*
X0012000Y0056960D01*
X0007440Y0052400D01*
X0004895Y0052400D01*
X0003800Y0051305D01*
X0003800Y0063181D01*
X0003917Y0063096D01*
X0004689Y0062703D01*
X0005512Y0062435D01*
X0006367Y0062300D01*
X0006600Y0062300D01*
X0006600Y0067600D01*
X0007000Y0067600D01*
X0007000Y0062300D01*
X0007233Y0062300D01*
X0008088Y0062435D01*
X0008911Y0062703D01*
X0009683Y0063096D01*
X0010383Y0063605D01*
X0010995Y0064217D01*
X0011504Y0064917D01*
X0011897Y0065689D01*
X0012000Y0066006D01*
X0012000Y0065142D02*
X0011618Y0065142D01*
X0012000Y0063543D02*
X0010298Y0063543D01*
X0012000Y0061945D02*
X0003800Y0061945D01*
X0003800Y0060346D02*
X0012000Y0060346D01*
X0012000Y0058748D02*
X0003800Y0058748D01*
X0003800Y0057149D02*
X0012000Y0057149D01*
X0010591Y0055551D02*
X0003800Y0055551D01*
X0003800Y0053952D02*
X0008993Y0053952D01*
X0004848Y0052354D02*
X0003800Y0052354D01*
X0006800Y0047800D02*
X0014800Y0055800D01*
X0014800Y0090800D01*
X0007800Y0097800D01*
X0006800Y0097800D01*
X0019800Y0095800D02*
X0026800Y0102800D01*
X0031400Y0103506D02*
X0062400Y0103506D01*
X0062400Y0101908D02*
X0031400Y0101908D01*
X0030815Y0100309D02*
X0063068Y0100309D01*
X0064667Y0098711D02*
X0029216Y0098711D01*
X0031001Y0105105D02*
X0062882Y0105105D01*
X0064481Y0106703D02*
X0029402Y0106703D01*
X0028705Y0118200D02*
X0024895Y0118200D01*
X0022200Y0120895D01*
X0022200Y0124705D01*
X0024895Y0127400D01*
X0027440Y0127400D01*
X0048000Y0147960D01*
X0048000Y0170777D01*
X0045623Y0168400D01*
X0043800Y0168400D01*
X0043800Y0172800D01*
X0043800Y0172800D01*
X0043800Y0177200D01*
X0045623Y0177200D01*
X0048000Y0174823D01*
X0048000Y0176357D01*
X0048426Y0177386D01*
X0049214Y0178174D01*
X0054000Y0182960D01*
X0054000Y0184095D01*
X0052200Y0185895D01*
X0052200Y0189705D01*
X0054895Y0192400D01*
X0058705Y0192400D01*
X0061400Y0189705D01*
X0061400Y0185895D01*
X0059600Y0184095D01*
X0059600Y0181243D01*
X0059174Y0180214D01*
X0053600Y0174640D01*
X0053600Y0146243D01*
X0053174Y0145214D01*
X0031400Y0123440D01*
X0031400Y0120895D01*
X0028705Y0118200D01*
X0029997Y0119491D02*
X0063886Y0119491D01*
X0064977Y0118400D02*
X0062400Y0120977D01*
X0062400Y0122800D01*
X0066800Y0122800D01*
X0071200Y0122800D01*
X0071200Y0124623D01*
X0068623Y0127200D01*
X0066800Y0127200D01*
X0066800Y0122800D01*
X0066800Y0122800D01*
X0066800Y0122800D01*
X0071200Y0122800D01*
X0071200Y0120977D01*
X0068623Y0118400D01*
X0066800Y0118400D01*
X0066800Y0122800D01*
X0066800Y0122800D01*
X0066800Y0122800D01*
X0066800Y0127200D01*
X0064977Y0127200D01*
X0062400Y0124623D01*
X0062400Y0122800D01*
X0066800Y0122800D01*
X0066800Y0118400D01*
X0064977Y0118400D01*
X0066800Y0119491D02*
X0066800Y0119491D01*
X0066800Y0121090D02*
X0066800Y0121090D01*
X0066800Y0122688D02*
X0066800Y0122688D01*
X0066800Y0124287D02*
X0066800Y0124287D01*
X0066800Y0125885D02*
X0066800Y0125885D01*
X0069937Y0125885D02*
X0087424Y0125885D01*
X0087584Y0126272D02*
X0086883Y0124581D01*
X0086883Y0122751D01*
X0087584Y0121060D01*
X0088878Y0119766D01*
X0090568Y0119066D01*
X0097598Y0119066D01*
X0099289Y0119766D01*
X0100583Y0121060D01*
X0101283Y0122751D01*
X0101283Y0124581D01*
X0100583Y0126272D01*
X0099289Y0127566D01*
X0097598Y0128266D01*
X0090568Y0128266D01*
X0088878Y0127566D01*
X0087584Y0126272D01*
X0088796Y0127484D02*
X0035444Y0127484D01*
X0037042Y0129082D02*
X0090529Y0129082D01*
X0090568Y0129066D02*
X0097598Y0129066D01*
X0099289Y0129766D01*
X0100583Y0131060D01*
X0101283Y0132751D01*
X0101283Y0134581D01*
X0100583Y0136272D01*
X0099289Y0137566D01*
X0097598Y0138266D01*
X0093443Y0138266D01*
X0092643Y0139066D01*
X0097598Y0139066D01*
X0099289Y0139766D01*
X0100583Y0141060D01*
X0101283Y0142751D01*
X0101283Y0144581D01*
X0100583Y0146272D01*
X0099289Y0147566D01*
X0097598Y0148266D01*
X0090568Y0148266D01*
X0088878Y0147566D01*
X0087584Y0146272D01*
X0086955Y0144754D01*
X0084581Y0147128D01*
X0084581Y0148552D01*
X0084005Y0149942D01*
X0082942Y0151005D01*
X0081552Y0151581D01*
X0080048Y0151581D01*
X0078658Y0151005D01*
X0077595Y0149942D01*
X0077019Y0148552D01*
X0077019Y0147048D01*
X0077595Y0145658D01*
X0078658Y0144595D01*
X0079575Y0144215D01*
X0087565Y0136225D01*
X0086883Y0134581D01*
X0086883Y0132751D01*
X0087584Y0131060D01*
X0088878Y0129766D01*
X0090568Y0129066D01*
X0087963Y0130681D02*
X0038641Y0130681D01*
X0040239Y0132279D02*
X0087079Y0132279D01*
X0086883Y0133878D02*
X0041838Y0133878D01*
X0043436Y0135476D02*
X0087254Y0135476D01*
X0086715Y0137075D02*
X0045035Y0137075D01*
X0046633Y0138673D02*
X0085116Y0138673D01*
X0083518Y0140272D02*
X0048232Y0140272D01*
X0049830Y0141870D02*
X0081919Y0141870D01*
X0080321Y0143469D02*
X0051429Y0143469D01*
X0053027Y0145068D02*
X0078185Y0145068D01*
X0077177Y0146666D02*
X0053600Y0146666D01*
X0053600Y0148265D02*
X0077019Y0148265D01*
X0077562Y0149863D02*
X0053600Y0149863D01*
X0053600Y0151462D02*
X0068633Y0151462D01*
X0068895Y0151200D02*
X0072705Y0151200D01*
X0075400Y0153895D01*
X0075400Y0157705D01*
X0072705Y0160400D01*
X0068895Y0160400D01*
X0066200Y0157705D01*
X0066200Y0153895D01*
X0068895Y0151200D01*
X0067035Y0153060D02*
X0053600Y0153060D01*
X0053600Y0154659D02*
X0066200Y0154659D01*
X0066200Y0156257D02*
X0053600Y0156257D01*
X0053600Y0157856D02*
X0066350Y0157856D01*
X0067949Y0159454D02*
X0053600Y0159454D01*
X0053600Y0161053D02*
X0078200Y0161053D01*
X0077183Y0162651D02*
X0053600Y0162651D01*
X0053600Y0164250D02*
X0077019Y0164250D01*
X0077556Y0165848D02*
X0053600Y0165848D01*
X0053600Y0170644D02*
X0061734Y0170644D01*
X0061400Y0170977D02*
X0063977Y0168400D01*
X0065800Y0168400D02*
X0065800Y0172800D01*
X0065800Y0175800D01*
X0082800Y0192800D01*
X0091800Y0192800D01*
X0092000Y0192600D02*
X0092000Y0187300D01*
X0092233Y0187300D01*
X0093088Y0187435D01*
X0093911Y0187703D01*
X0094683Y0188096D01*
X0095383Y0188605D01*
X0095995Y0189217D01*
X0096504Y0189917D01*
X0096897Y0190689D01*
X0097165Y0191512D01*
X0097300Y0192367D01*
X0097300Y0192600D01*
X0092000Y0192600D01*
X0091600Y0192600D02*
X0091600Y0187300D01*
X0091367Y0187300D01*
X0090512Y0187435D01*
X0089689Y0187703D01*
X0088917Y0188096D01*
X0088217Y0188605D01*
X0087605Y0189217D01*
X0087096Y0189917D01*
X0086703Y0190689D01*
X0086435Y0191512D01*
X0086300Y0192367D01*
X0086300Y0192600D01*
X0091600Y0192600D01*
X0091600Y0191424D02*
X0092000Y0191424D01*
X0092000Y0189826D02*
X0091600Y0189826D01*
X0091600Y0188227D02*
X0092000Y0188227D01*
X0088737Y0188227D02*
X0075288Y0188227D01*
X0076738Y0189826D02*
X0087162Y0189826D01*
X0086464Y0191424D02*
X0077400Y0191424D01*
X0077500Y0193023D02*
X0086300Y0193023D01*
X0086609Y0194621D02*
X0077215Y0194621D01*
X0076441Y0196220D02*
X0087486Y0196220D01*
X0096114Y0196220D02*
X0102159Y0196220D01*
X0101385Y0194621D02*
X0096991Y0194621D01*
X0097300Y0193023D02*
X0101100Y0193023D01*
X0101200Y0191424D02*
X0097136Y0191424D01*
X0096437Y0189826D02*
X0101862Y0189826D01*
X0103312Y0188227D02*
X0094863Y0188227D01*
X0107078Y0177038D02*
X0078068Y0177038D01*
X0073532Y0177038D02*
X0067785Y0177038D01*
X0065800Y0177038D02*
X0065800Y0177038D01*
X0065800Y0177200D02*
X0063977Y0177200D01*
X0061400Y0174623D01*
X0061400Y0172800D01*
X0065800Y0172800D01*
X0070200Y0172800D01*
X0065800Y0172800D01*
X0065800Y0172800D01*
X0065800Y0172800D01*
X0065800Y0168400D01*
X0065800Y0169045D02*
X0065800Y0169045D01*
X0065800Y0170644D02*
X0065800Y0170644D01*
X0065800Y0172242D02*
X0065800Y0172242D01*
X0065800Y0172800D02*
X0065800Y0172800D01*
X0065800Y0172800D01*
X0065800Y0177200D01*
X0065800Y0175439D02*
X0065800Y0175439D01*
X0065800Y0173841D02*
X0065800Y0173841D01*
X0065800Y0172800D02*
X0061400Y0172800D01*
X0061400Y0170977D01*
X0061400Y0172242D02*
X0053600Y0172242D01*
X0053600Y0173841D02*
X0061400Y0173841D01*
X0062217Y0175439D02*
X0054399Y0175439D01*
X0055998Y0177038D02*
X0063815Y0177038D01*
X0059182Y0180235D02*
X0110275Y0180235D01*
X0111873Y0181833D02*
X0059600Y0181833D01*
X0059600Y0183432D02*
X0113472Y0183432D01*
X0115071Y0185030D02*
X0060536Y0185030D01*
X0061400Y0186629D02*
X0116669Y0186629D01*
X0113312Y0188227D02*
X0110288Y0188227D01*
X0111738Y0189826D02*
X0111862Y0189826D01*
X0119793Y0181833D02*
X0124000Y0181833D01*
X0124000Y0180235D02*
X0118195Y0180235D01*
X0116596Y0178636D02*
X0124000Y0178636D01*
X0124000Y0177038D02*
X0114998Y0177038D01*
X0113399Y0175439D02*
X0124000Y0175439D01*
X0124000Y0173841D02*
X0111800Y0173841D01*
X0110202Y0172242D02*
X0124000Y0172242D01*
X0124000Y0170644D02*
X0108603Y0170644D01*
X0106800Y0172800D02*
X0126800Y0192800D01*
X0126800Y0170800D01*
X0147800Y0149800D01*
X0149810Y0153060D02*
X0154000Y0153060D01*
X0154000Y0151462D02*
X0151204Y0151462D01*
X0151581Y0149863D02*
X0154000Y0149863D01*
X0154000Y0148265D02*
X0151257Y0148265D01*
X0150013Y0146666D02*
X0154000Y0146666D01*
X0154000Y0145068D02*
X0131082Y0145068D01*
X0131283Y0144581D02*
X0130583Y0146272D01*
X0129289Y0147566D01*
X0127598Y0148266D01*
X0120568Y0148266D01*
X0118878Y0147566D01*
X0117584Y0146272D01*
X0116883Y0144581D01*
X0116883Y0142751D01*
X0117584Y0141060D01*
X0118878Y0139766D01*
X0120568Y0139066D01*
X0127598Y0139066D01*
X0129289Y0139766D01*
X0130583Y0141060D01*
X0131283Y0142751D01*
X0131283Y0144581D01*
X0131283Y0143469D02*
X0154000Y0143469D01*
X0154000Y0141870D02*
X0130919Y0141870D01*
X0129795Y0140272D02*
X0154000Y0140272D01*
X0154000Y0138673D02*
X0115600Y0138673D01*
X0115600Y0137075D02*
X0118387Y0137075D01*
X0118878Y0137566D02*
X0117584Y0136272D01*
X0116883Y0134581D01*
X0116883Y0132751D01*
X0117584Y0131060D01*
X0118878Y0129766D01*
X0120568Y0129066D01*
X0127598Y0129066D01*
X0129289Y0129766D01*
X0130583Y0131060D01*
X0131283Y0132751D01*
X0131283Y0134581D01*
X0130583Y0136272D01*
X0129289Y0137566D01*
X0127598Y0138266D01*
X0120568Y0138266D01*
X0118878Y0137566D01*
X0117254Y0135476D02*
X0115600Y0135476D01*
X0115600Y0133878D02*
X0116883Y0133878D01*
X0117079Y0132279D02*
X0115600Y0132279D01*
X0115600Y0130681D02*
X0117963Y0130681D01*
X0115600Y0129082D02*
X0120529Y0129082D01*
X0118796Y0127484D02*
X0115600Y0127484D01*
X0115674Y0125885D02*
X0117424Y0125885D01*
X0112550Y0121090D02*
X0100595Y0121090D01*
X0101257Y0122688D02*
X0110952Y0122688D01*
X0110000Y0124287D02*
X0101283Y0124287D01*
X0100743Y0125885D02*
X0110000Y0125885D01*
X0110000Y0127484D02*
X0099371Y0127484D01*
X0097638Y0129082D02*
X0110000Y0129082D01*
X0110000Y0130681D02*
X0100204Y0130681D01*
X0101088Y0132279D02*
X0110000Y0132279D01*
X0110000Y0133878D02*
X0101283Y0133878D01*
X0100913Y0135476D02*
X0110000Y0135476D01*
X0110000Y0137075D02*
X0099780Y0137075D01*
X0099795Y0140272D02*
X0110000Y0140272D01*
X0110000Y0141870D02*
X0100919Y0141870D01*
X0101283Y0143469D02*
X0110000Y0143469D01*
X0110000Y0145068D02*
X0101082Y0145068D01*
X0100189Y0146666D02*
X0110000Y0146666D01*
X0110000Y0148265D02*
X0097602Y0148265D01*
X0099386Y0149863D02*
X0110000Y0149863D01*
X0110000Y0151462D02*
X0100749Y0151462D01*
X0101283Y0153060D02*
X0110050Y0153060D01*
X0111116Y0154659D02*
X0101251Y0154659D01*
X0101242Y0162651D02*
X0116925Y0162651D01*
X0116883Y0164250D02*
X0101283Y0164250D01*
X0100759Y0165848D02*
X0117408Y0165848D01*
X0118759Y0167447D02*
X0099408Y0167447D01*
X0106800Y0172800D02*
X0075800Y0172800D01*
X0071200Y0172242D02*
X0070200Y0172242D01*
X0070200Y0173841D02*
X0071200Y0173841D01*
X0071934Y0175439D02*
X0069383Y0175439D01*
X0069866Y0170644D02*
X0071451Y0170644D01*
X0073049Y0169045D02*
X0068268Y0169045D01*
X0073651Y0159454D02*
X0083186Y0159454D01*
X0084785Y0157856D02*
X0075250Y0157856D01*
X0075400Y0156257D02*
X0086622Y0156257D01*
X0086916Y0154659D02*
X0075400Y0154659D01*
X0074565Y0153060D02*
X0086883Y0153060D01*
X0087418Y0151462D02*
X0081841Y0151462D01*
X0079759Y0151462D02*
X0072967Y0151462D01*
X0080800Y0147800D02*
X0080800Y0146950D01*
X0094083Y0133666D01*
X0093036Y0138673D02*
X0110000Y0138673D01*
X0115600Y0140272D02*
X0118372Y0140272D01*
X0117248Y0141870D02*
X0115600Y0141870D01*
X0115600Y0143469D02*
X0116883Y0143469D01*
X0117085Y0145068D02*
X0115600Y0145068D01*
X0115600Y0146666D02*
X0117978Y0146666D01*
X0115600Y0148265D02*
X0120565Y0148265D01*
X0119256Y0149863D02*
X0115600Y0149863D01*
X0115839Y0151462D02*
X0117669Y0151462D01*
X0124083Y0151462D02*
X0124084Y0151462D01*
X0124083Y0153060D02*
X0124084Y0153060D01*
X0124083Y0154659D02*
X0124084Y0154659D01*
X0124083Y0156257D02*
X0124084Y0156257D01*
X0124083Y0157856D02*
X0124084Y0157856D01*
X0128028Y0157856D02*
X0135785Y0157856D01*
X0134186Y0159454D02*
X0128535Y0159454D01*
X0130575Y0161053D02*
X0132588Y0161053D01*
X0130240Y0156257D02*
X0137383Y0156257D01*
X0138982Y0154659D02*
X0130981Y0154659D01*
X0131042Y0153060D02*
X0140580Y0153060D01*
X0142179Y0151462D02*
X0130498Y0151462D01*
X0128911Y0149863D02*
X0143777Y0149863D01*
X0144343Y0148265D02*
X0127602Y0148265D01*
X0130189Y0146666D02*
X0145587Y0146666D01*
X0146901Y0154659D02*
X0154000Y0154659D01*
X0154000Y0156257D02*
X0145303Y0156257D01*
X0143704Y0157856D02*
X0154000Y0157856D01*
X0154000Y0159454D02*
X0142106Y0159454D01*
X0140507Y0161053D02*
X0154000Y0161053D01*
X0154122Y0162651D02*
X0138909Y0162651D01*
X0137310Y0164250D02*
X0155290Y0164250D01*
X0156888Y0165848D02*
X0135712Y0165848D01*
X0134113Y0167447D02*
X0158487Y0167447D01*
X0160085Y0169045D02*
X0132515Y0169045D01*
X0124595Y0169045D02*
X0078551Y0169045D01*
X0084038Y0149863D02*
X0088781Y0149863D01*
X0090565Y0148265D02*
X0084581Y0148265D01*
X0085043Y0146666D02*
X0087978Y0146666D01*
X0087085Y0145068D02*
X0086642Y0145068D01*
X0086883Y0124287D02*
X0071200Y0124287D01*
X0071200Y0122688D02*
X0086909Y0122688D01*
X0087572Y0121090D02*
X0071200Y0121090D01*
X0069714Y0119491D02*
X0089542Y0119491D01*
X0089667Y0117893D02*
X0012500Y0117893D01*
X0012346Y0116294D02*
X0087606Y0116294D01*
X0086931Y0114696D02*
X0011684Y0114696D01*
X0010158Y0113097D02*
X0086883Y0113097D01*
X0087402Y0111499D02*
X0011162Y0111499D01*
X0012100Y0109900D02*
X0088744Y0109900D01*
X0098500Y0117893D02*
X0115747Y0117893D01*
X0114149Y0119491D02*
X0098625Y0119491D01*
X0100561Y0116294D02*
X0117346Y0116294D01*
X0116931Y0114696D02*
X0101236Y0114696D01*
X0101283Y0113097D02*
X0116883Y0113097D01*
X0115539Y0111499D02*
X0100765Y0111499D01*
X0113867Y0101908D02*
X0117233Y0101908D01*
X0116883Y0103506D02*
X0115466Y0103506D01*
X0117065Y0105105D02*
X0117100Y0105105D01*
X0120262Y0108302D02*
X0154000Y0108302D01*
X0154000Y0109900D02*
X0129423Y0109900D01*
X0130765Y0111499D02*
X0154000Y0111499D01*
X0154000Y0113097D02*
X0131283Y0113097D01*
X0131236Y0114696D02*
X0154000Y0114696D01*
X0154000Y0116294D02*
X0130561Y0116294D01*
X0128500Y0117893D02*
X0154000Y0117893D01*
X0154000Y0119491D02*
X0128625Y0119491D01*
X0130595Y0121090D02*
X0154000Y0121090D01*
X0154000Y0122688D02*
X0131257Y0122688D01*
X0131283Y0124287D02*
X0154000Y0124287D01*
X0154000Y0125885D02*
X0130743Y0125885D01*
X0129371Y0127484D02*
X0154000Y0127484D01*
X0154000Y0129082D02*
X0127638Y0129082D01*
X0130204Y0130681D02*
X0154000Y0130681D01*
X0154000Y0132279D02*
X0131088Y0132279D01*
X0131283Y0133878D02*
X0154000Y0133878D01*
X0154000Y0135476D02*
X0130913Y0135476D01*
X0129780Y0137075D02*
X0154000Y0137075D01*
X0159600Y0137075D02*
X0174000Y0137075D01*
X0174000Y0138673D02*
X0159600Y0138673D01*
X0159600Y0140272D02*
X0174000Y0140272D01*
X0174000Y0141870D02*
X0159600Y0141870D01*
X0159600Y0143469D02*
X0174000Y0143469D01*
X0174000Y0145068D02*
X0159600Y0145068D01*
X0159600Y0146666D02*
X0174000Y0146666D01*
X0174000Y0148265D02*
X0159600Y0148265D01*
X0159600Y0149863D02*
X0174000Y0149863D01*
X0174000Y0151462D02*
X0159600Y0151462D01*
X0159600Y0153060D02*
X0174000Y0153060D01*
X0174000Y0154659D02*
X0159600Y0154659D01*
X0159600Y0156257D02*
X0174000Y0156257D01*
X0174000Y0157856D02*
X0159600Y0157856D01*
X0159600Y0159454D02*
X0167581Y0159454D01*
X0166443Y0161053D02*
X0160012Y0161053D01*
X0161611Y0162651D02*
X0166126Y0162651D01*
X0166126Y0162721D02*
X0170501Y0162721D01*
X0170501Y0158346D01*
X0170501Y0162721D01*
X0170501Y0162721D01*
X0170501Y0162721D01*
X0166126Y0162721D01*
X0166397Y0164250D02*
X0163209Y0164250D01*
X0170501Y0162651D02*
X0170501Y0162651D01*
X0170501Y0161053D02*
X0170501Y0161053D01*
X0170501Y0159454D02*
X0170501Y0159454D01*
X0173421Y0159454D02*
X0173597Y0159454D01*
X0176800Y0162721D02*
X0176800Y0098800D01*
X0171800Y0093800D01*
X0168019Y0093915D02*
X0159600Y0093915D01*
X0159600Y0092317D02*
X0163468Y0092317D01*
X0161869Y0090718D02*
X0159600Y0090718D01*
X0159600Y0089120D02*
X0161250Y0089120D01*
X0161250Y0087521D02*
X0159600Y0087521D01*
X0159600Y0085923D02*
X0161250Y0085923D01*
X0162427Y0084324D02*
X0159600Y0084324D01*
X0159600Y0082726D02*
X0164026Y0082726D01*
X0159600Y0081127D02*
X0186513Y0081127D01*
X0188112Y0079529D02*
X0159600Y0079529D01*
X0159600Y0077930D02*
X0188100Y0077930D01*
X0188239Y0076332D02*
X0159600Y0076332D01*
X0159600Y0074733D02*
X0188901Y0074733D01*
X0190571Y0072968D02*
X0191264Y0072681D01*
X0196650Y0060346D02*
X0159600Y0060346D01*
X0159600Y0058748D02*
X0196650Y0058748D01*
X0196650Y0057149D02*
X0159600Y0057149D01*
X0159600Y0055551D02*
X0196650Y0055551D01*
X0196650Y0053952D02*
X0159600Y0053952D01*
X0159600Y0052354D02*
X0196650Y0052354D01*
X0196650Y0050755D02*
X0159600Y0050755D01*
X0164449Y0049157D02*
X0196650Y0049157D01*
X0196650Y0047558D02*
X0166047Y0047558D01*
X0166400Y0045960D02*
X0196650Y0045960D01*
X0196650Y0044361D02*
X0166400Y0044361D01*
X0165768Y0042763D02*
X0196650Y0042763D01*
X0196650Y0041164D02*
X0169941Y0041164D01*
X0171400Y0039566D02*
X0196650Y0039566D01*
X0196650Y0037967D02*
X0171400Y0037967D01*
X0171400Y0036369D02*
X0196650Y0036369D01*
X0196650Y0034770D02*
X0170276Y0034770D01*
X0169600Y0033172D02*
X0196650Y0033172D01*
X0196650Y0031573D02*
X0169600Y0031573D01*
X0169600Y0029975D02*
X0196650Y0029975D01*
X0196650Y0028376D02*
X0169600Y0028376D01*
X0169600Y0026778D02*
X0196650Y0026778D01*
X0196650Y0025179D02*
X0169600Y0025179D01*
X0169600Y0023581D02*
X0196650Y0023581D01*
X0196650Y0021982D02*
X0169600Y0021982D01*
X0170722Y0020384D02*
X0196650Y0020384D01*
X0196650Y0018785D02*
X0171400Y0018785D01*
X0171400Y0017187D02*
X0196650Y0017187D01*
X0196650Y0015588D02*
X0171093Y0015588D01*
X0169495Y0013990D02*
X0196650Y0013990D01*
X0196650Y0012391D02*
X0119838Y0012391D01*
X0119683Y0012504D02*
X0118911Y0012897D01*
X0118088Y0013165D01*
X0117233Y0013300D01*
X0117000Y0013300D01*
X0117000Y0008000D01*
X0122300Y0008000D01*
X0122300Y0008233D01*
X0122165Y0009088D01*
X0121897Y0009911D01*
X0121504Y0010683D01*
X0120995Y0011383D01*
X0120383Y0011995D01*
X0119683Y0012504D01*
X0121424Y0010793D02*
X0196650Y0010793D01*
X0196650Y0009194D02*
X0122130Y0009194D01*
X0122300Y0007596D02*
X0196650Y0007596D01*
X0196650Y0005997D02*
X0121997Y0005997D01*
X0117000Y0009194D02*
X0116600Y0009194D01*
X0116600Y0010793D02*
X0117000Y0010793D01*
X0117000Y0012391D02*
X0116600Y0012391D01*
X0113762Y0012391D02*
X0100270Y0012391D01*
X0101730Y0010793D02*
X0112176Y0010793D01*
X0111470Y0009194D02*
X0102392Y0009194D01*
X0102500Y0007596D02*
X0111300Y0007596D01*
X0111603Y0005997D02*
X0102223Y0005997D01*
X0096800Y0007800D02*
X0096800Y0008800D01*
X0085800Y0019800D01*
X0085800Y0045383D01*
X0094083Y0053666D01*
X0099706Y0057149D02*
X0103607Y0057149D01*
X0102008Y0055551D02*
X0100882Y0055551D01*
X0099869Y0060346D02*
X0106804Y0060346D01*
X0108000Y0061945D02*
X0100949Y0061945D01*
X0101283Y0063543D02*
X0108000Y0063543D01*
X0108000Y0065142D02*
X0101051Y0065142D01*
X0100115Y0066740D02*
X0108000Y0066740D01*
X0113600Y0066740D02*
X0118052Y0066740D01*
X0117584Y0066272D02*
X0116883Y0064581D01*
X0116883Y0062751D01*
X0117584Y0061060D01*
X0118878Y0059766D01*
X0120568Y0059066D01*
X0127598Y0059066D01*
X0129289Y0059766D01*
X0130583Y0061060D01*
X0131283Y0062751D01*
X0131283Y0064581D01*
X0130583Y0066272D01*
X0129289Y0067566D01*
X0127598Y0068266D01*
X0120568Y0068266D01*
X0118878Y0067566D01*
X0117584Y0066272D01*
X0117116Y0065142D02*
X0113600Y0065142D01*
X0113600Y0063543D02*
X0116883Y0063543D01*
X0117217Y0061945D02*
X0113600Y0061945D01*
X0113600Y0060346D02*
X0118298Y0060346D01*
X0118878Y0057566D02*
X0117584Y0056272D01*
X0116883Y0054581D01*
X0116883Y0052751D01*
X0117584Y0051060D01*
X0118878Y0049766D01*
X0120568Y0049066D01*
X0127598Y0049066D01*
X0129289Y0049766D01*
X0130583Y0051060D01*
X0131283Y0052751D01*
X0131283Y0054581D01*
X0130583Y0056272D01*
X0129289Y0057566D01*
X0127598Y0058266D01*
X0120568Y0058266D01*
X0118878Y0057566D01*
X0118461Y0057149D02*
X0111526Y0057149D01*
X0109928Y0055551D02*
X0117285Y0055551D01*
X0116883Y0053952D02*
X0108329Y0053952D01*
X0106731Y0052354D02*
X0117048Y0052354D01*
X0117889Y0050755D02*
X0105132Y0050755D01*
X0103534Y0049157D02*
X0120350Y0049157D01*
X0120568Y0048266D02*
X0118878Y0047566D01*
X0117584Y0046272D01*
X0116883Y0044581D01*
X0116883Y0042751D01*
X0117584Y0041060D01*
X0118878Y0039766D01*
X0120568Y0039066D01*
X0127598Y0039066D01*
X0129289Y0039766D01*
X0130583Y0041060D01*
X0131283Y0042751D01*
X0131283Y0044581D01*
X0130583Y0046272D01*
X0129289Y0047566D01*
X0127598Y0048266D01*
X0120568Y0048266D01*
X0118870Y0047558D02*
X0101935Y0047558D01*
X0100712Y0045960D02*
X0117455Y0045960D01*
X0116883Y0044361D02*
X0101283Y0044361D01*
X0101283Y0042763D02*
X0116883Y0042763D01*
X0117541Y0041164D02*
X0100626Y0041164D01*
X0098805Y0039566D02*
X0119362Y0039566D01*
X0119847Y0037967D02*
X0098320Y0037967D01*
X0100486Y0036369D02*
X0117681Y0036369D01*
X0117584Y0036272D02*
X0116883Y0034581D01*
X0116883Y0032751D01*
X0117584Y0031060D01*
X0118878Y0029766D01*
X0120568Y0029066D01*
X0127598Y0029066D01*
X0129289Y0029766D01*
X0130583Y0031060D01*
X0131283Y0032751D01*
X0131283Y0034581D01*
X0130583Y0036272D01*
X0129289Y0037566D01*
X0127598Y0038266D01*
X0120568Y0038266D01*
X0118878Y0037566D01*
X0117584Y0036272D01*
X0116962Y0034770D02*
X0113790Y0034770D01*
X0115388Y0033172D02*
X0116883Y0033172D01*
X0116987Y0031573D02*
X0117371Y0031573D01*
X0118585Y0029975D02*
X0118670Y0029975D01*
X0120184Y0028376D02*
X0135416Y0028376D01*
X0137015Y0029975D02*
X0129497Y0029975D01*
X0130796Y0031573D02*
X0138613Y0031573D01*
X0140212Y0033172D02*
X0131283Y0033172D01*
X0131205Y0034770D02*
X0141810Y0034770D01*
X0143409Y0036369D02*
X0130486Y0036369D01*
X0128805Y0039566D02*
X0146606Y0039566D01*
X0148204Y0041164D02*
X0130626Y0041164D01*
X0131283Y0042763D02*
X0149803Y0042763D01*
X0151402Y0044361D02*
X0131283Y0044361D01*
X0130712Y0045960D02*
X0153000Y0045960D01*
X0154000Y0047558D02*
X0129297Y0047558D01*
X0127817Y0049157D02*
X0154000Y0049157D01*
X0154000Y0050755D02*
X0130278Y0050755D01*
X0131119Y0052354D02*
X0154000Y0052354D01*
X0154000Y0053952D02*
X0131283Y0053952D01*
X0130882Y0055551D02*
X0154000Y0055551D01*
X0154000Y0057149D02*
X0129706Y0057149D01*
X0129869Y0060346D02*
X0154000Y0060346D01*
X0154000Y0058748D02*
X0113125Y0058748D01*
X0105205Y0058748D02*
X0070809Y0058748D01*
X0044000Y0050755D02*
X0022600Y0050755D01*
X0022117Y0049157D02*
X0044000Y0049157D01*
X0044000Y0047558D02*
X0021400Y0047558D01*
X0021400Y0045960D02*
X0044000Y0045960D01*
X0055184Y0028376D02*
X0055237Y0028376D01*
X0051050Y0021982D02*
X0044123Y0021982D01*
X0043705Y0022400D02*
X0039895Y0022400D01*
X0037200Y0019705D01*
X0037200Y0015895D01*
X0039895Y0013200D01*
X0043705Y0013200D01*
X0046400Y0015895D01*
X0046400Y0019705D01*
X0043705Y0022400D01*
X0045722Y0020384D02*
X0051577Y0020384D01*
X0052683Y0018785D02*
X0046400Y0018785D01*
X0046400Y0017187D02*
X0055326Y0017187D01*
X0058274Y0017187D02*
X0084454Y0017187D01*
X0086052Y0015588D02*
X0046093Y0015588D01*
X0044495Y0013990D02*
X0087651Y0013990D01*
X0089249Y0012391D02*
X0003800Y0012391D01*
X0003800Y0010793D02*
X0090848Y0010793D01*
X0091208Y0009194D02*
X0003800Y0009194D01*
X0003800Y0007596D02*
X0091100Y0007596D01*
X0091377Y0005997D02*
X0003800Y0005997D01*
X0003800Y0013990D02*
X0029388Y0013990D01*
X0029977Y0013400D02*
X0031800Y0013400D01*
X0033623Y0013400D01*
X0036200Y0015977D01*
X0036200Y0017800D01*
X0036200Y0019623D01*
X0033623Y0022200D01*
X0031800Y0022200D01*
X0031800Y0017800D01*
X0036200Y0017800D01*
X0031800Y0017800D01*
X0031800Y0017800D01*
X0031800Y0017800D01*
X0031800Y0013400D01*
X0031800Y0017800D01*
X0031800Y0017800D01*
X0031800Y0017800D01*
X0031800Y0022200D01*
X0029977Y0022200D01*
X0031800Y0021982D02*
X0031800Y0021982D01*
X0031800Y0020384D02*
X0031800Y0020384D01*
X0031800Y0018785D02*
X0031800Y0018785D01*
X0031800Y0017800D02*
X0027400Y0017800D01*
X0027400Y0015977D01*
X0029977Y0013400D01*
X0031800Y0013990D02*
X0031800Y0013990D01*
X0031800Y0015588D02*
X0031800Y0015588D01*
X0031800Y0017187D02*
X0031800Y0017187D01*
X0034212Y0013990D02*
X0039105Y0013990D01*
X0037507Y0015588D02*
X0035811Y0015588D01*
X0036200Y0017187D02*
X0037200Y0017187D01*
X0037200Y0018785D02*
X0036200Y0018785D01*
X0035439Y0020384D02*
X0037878Y0020384D01*
X0039477Y0021982D02*
X0033840Y0021982D01*
X0028161Y0020384D02*
X0003800Y0020384D01*
X0003800Y0018785D02*
X0027400Y0018785D01*
X0027400Y0017187D02*
X0003800Y0017187D01*
X0003800Y0015588D02*
X0027789Y0015588D01*
X0013733Y0044361D02*
X0009867Y0044361D01*
X0011400Y0045960D02*
X0012200Y0045960D01*
X0012200Y0047558D02*
X0011400Y0047558D01*
X0012117Y0049157D02*
X0012200Y0049157D01*
X0007000Y0063543D02*
X0006600Y0063543D01*
X0006600Y0065142D02*
X0007000Y0065142D01*
X0007000Y0066740D02*
X0006600Y0066740D01*
X0012269Y0119491D02*
X0023603Y0119491D01*
X0022200Y0121090D02*
X0011571Y0121090D01*
X0009893Y0122688D02*
X0022200Y0122688D01*
X0022200Y0124287D02*
X0011348Y0124287D01*
X0012177Y0125885D02*
X0023380Y0125885D01*
X0025895Y0129082D02*
X0012438Y0129082D01*
X0012500Y0127484D02*
X0027524Y0127484D01*
X0027705Y0129082D02*
X0029123Y0129082D01*
X0030015Y0130681D02*
X0030721Y0130681D01*
X0030581Y0132279D02*
X0032320Y0132279D01*
X0033918Y0133878D02*
X0030446Y0133878D01*
X0029471Y0135476D02*
X0035517Y0135476D01*
X0037115Y0137075D02*
X0026485Y0137075D01*
X0024886Y0138673D02*
X0038714Y0138673D01*
X0040312Y0140272D02*
X0023600Y0140272D01*
X0023600Y0141870D02*
X0041911Y0141870D01*
X0043509Y0143469D02*
X0023600Y0143469D01*
X0023600Y0145068D02*
X0045108Y0145068D01*
X0046706Y0146666D02*
X0023472Y0146666D01*
X0022295Y0148265D02*
X0048000Y0148265D01*
X0048000Y0149863D02*
X0020697Y0149863D01*
X0019098Y0151462D02*
X0028633Y0151462D01*
X0028895Y0151200D02*
X0032705Y0151200D01*
X0035400Y0153895D01*
X0035400Y0156440D01*
X0036174Y0157214D01*
X0036600Y0158243D01*
X0036600Y0169095D01*
X0038400Y0170895D01*
X0038400Y0174705D01*
X0038033Y0175073D01*
X0046160Y0183200D01*
X0048705Y0183200D01*
X0051400Y0185895D01*
X0051400Y0189705D01*
X0048705Y0192400D01*
X0044895Y0192400D01*
X0042200Y0189705D01*
X0042200Y0187160D01*
X0032440Y0177400D01*
X0031895Y0177400D01*
X0029200Y0174705D01*
X0029200Y0170895D01*
X0031000Y0169095D01*
X0031000Y0160400D01*
X0028895Y0160400D01*
X0026200Y0157705D01*
X0026200Y0153895D01*
X0028895Y0151200D01*
X0027035Y0153060D02*
X0017500Y0153060D01*
X0015901Y0154659D02*
X0026200Y0154659D01*
X0026200Y0156257D02*
X0011404Y0156257D01*
X0009758Y0157856D02*
X0026350Y0157856D01*
X0027949Y0159454D02*
X0011515Y0159454D01*
X0012246Y0161053D02*
X0031000Y0161053D01*
X0031000Y0162651D02*
X0012500Y0162651D01*
X0012369Y0164250D02*
X0031000Y0164250D01*
X0031000Y0165848D02*
X0011707Y0165848D01*
X0010214Y0167447D02*
X0031000Y0167447D01*
X0031000Y0169045D02*
X0010823Y0169045D01*
X0011874Y0170644D02*
X0029451Y0170644D01*
X0029200Y0172242D02*
X0012280Y0172242D01*
X0012204Y0173841D02*
X0029200Y0173841D01*
X0029934Y0175439D02*
X0011628Y0175439D01*
X0010324Y0177038D02*
X0031532Y0177038D01*
X0033676Y0178636D02*
X0010697Y0178636D01*
X0011907Y0180235D02*
X0035275Y0180235D01*
X0036873Y0181833D02*
X0012500Y0181833D01*
X0012500Y0183432D02*
X0038472Y0183432D01*
X0040071Y0185030D02*
X0012046Y0185030D01*
X0011032Y0186629D02*
X0041669Y0186629D01*
X0042200Y0188227D02*
X0010288Y0188227D01*
X0011738Y0189826D02*
X0042320Y0189826D01*
X0043919Y0191424D02*
X0012400Y0191424D01*
X0012500Y0193023D02*
X0066100Y0193023D01*
X0066200Y0191424D02*
X0059681Y0191424D01*
X0061280Y0189826D02*
X0066862Y0189826D01*
X0068312Y0188227D02*
X0061400Y0188227D01*
X0056800Y0187800D02*
X0056800Y0181800D01*
X0050800Y0175800D01*
X0050800Y0146800D01*
X0026800Y0122800D01*
X0031400Y0122688D02*
X0062400Y0122688D01*
X0062400Y0121090D02*
X0031400Y0121090D01*
X0032247Y0124287D02*
X0062400Y0124287D01*
X0063663Y0125885D02*
X0033845Y0125885D01*
X0026800Y0132800D02*
X0020800Y0138800D01*
X0020800Y0145800D01*
X0013800Y0152800D01*
X0006800Y0152800D01*
X0010326Y0148265D02*
X0014376Y0148265D01*
X0012777Y0149863D02*
X0011753Y0149863D01*
X0015974Y0146666D02*
X0003800Y0146666D01*
X0003800Y0145068D02*
X0017573Y0145068D01*
X0018000Y0143469D02*
X0008009Y0143469D01*
X0005591Y0143469D02*
X0003800Y0143469D01*
X0010791Y0141870D02*
X0018000Y0141870D01*
X0018000Y0140272D02*
X0011946Y0140272D01*
X0012500Y0138673D02*
X0018000Y0138673D01*
X0018565Y0137075D02*
X0012500Y0137075D01*
X0012007Y0135476D02*
X0020164Y0135476D01*
X0021762Y0133878D02*
X0010939Y0133878D01*
X0010382Y0132279D02*
X0023019Y0132279D01*
X0023585Y0130681D02*
X0011776Y0130681D01*
X0032967Y0151462D02*
X0048000Y0151462D01*
X0048000Y0153060D02*
X0034565Y0153060D01*
X0035400Y0154659D02*
X0048000Y0154659D01*
X0048000Y0156257D02*
X0035400Y0156257D01*
X0036440Y0157856D02*
X0048000Y0157856D01*
X0048000Y0159454D02*
X0036600Y0159454D01*
X0036600Y0161053D02*
X0048000Y0161053D01*
X0048000Y0162651D02*
X0036600Y0162651D01*
X0036600Y0164250D02*
X0048000Y0164250D01*
X0048000Y0165848D02*
X0036600Y0165848D01*
X0036600Y0167447D02*
X0048000Y0167447D01*
X0048000Y0169045D02*
X0046268Y0169045D01*
X0047866Y0170644D02*
X0048000Y0170644D01*
X0043800Y0170644D02*
X0043800Y0170644D01*
X0043800Y0172242D02*
X0043800Y0172242D01*
X0043800Y0172800D02*
X0043800Y0172800D01*
X0043800Y0172800D01*
X0039400Y0172800D01*
X0039400Y0174623D01*
X0041977Y0177200D01*
X0043800Y0177200D01*
X0043800Y0172800D01*
X0043800Y0168400D01*
X0041977Y0168400D01*
X0039400Y0170977D01*
X0039400Y0172800D01*
X0043800Y0172800D01*
X0043800Y0173841D02*
X0043800Y0173841D01*
X0043800Y0175439D02*
X0043800Y0175439D01*
X0043800Y0177038D02*
X0043800Y0177038D01*
X0045785Y0177038D02*
X0048282Y0177038D01*
X0048000Y0175439D02*
X0047383Y0175439D01*
X0049676Y0178636D02*
X0041596Y0178636D01*
X0041815Y0177038D02*
X0039998Y0177038D01*
X0040217Y0175439D02*
X0038399Y0175439D01*
X0038400Y0173841D02*
X0039400Y0173841D01*
X0039400Y0172242D02*
X0038400Y0172242D01*
X0038149Y0170644D02*
X0039734Y0170644D01*
X0041332Y0169045D02*
X0036600Y0169045D01*
X0033800Y0172800D02*
X0033800Y0158800D01*
X0030800Y0155800D01*
X0043800Y0169045D02*
X0043800Y0169045D01*
X0033800Y0172800D02*
X0033800Y0174800D01*
X0046800Y0187800D01*
X0049681Y0191424D02*
X0053919Y0191424D01*
X0052320Y0189826D02*
X0051280Y0189826D01*
X0051400Y0188227D02*
X0052200Y0188227D01*
X0052200Y0186629D02*
X0051400Y0186629D01*
X0050536Y0185030D02*
X0053064Y0185030D01*
X0054000Y0183432D02*
X0048937Y0183432D01*
X0051275Y0180235D02*
X0043195Y0180235D01*
X0044793Y0181833D02*
X0052873Y0181833D01*
X0057596Y0178636D02*
X0108676Y0178636D01*
X0121392Y0183432D02*
X0124000Y0183432D01*
X0124000Y0185030D02*
X0122990Y0185030D01*
X0129600Y0185030D02*
X0155116Y0185030D01*
X0154820Y0183432D02*
X0129600Y0183432D01*
X0129600Y0181833D02*
X0154820Y0181833D01*
X0155255Y0180235D02*
X0129600Y0180235D01*
X0129600Y0178636D02*
X0155917Y0178636D01*
X0157430Y0177038D02*
X0129600Y0177038D01*
X0129600Y0186629D02*
X0155779Y0186629D01*
X0157095Y0188227D02*
X0150288Y0188227D01*
X0151738Y0189826D02*
X0159505Y0189826D01*
X0152500Y0193023D02*
X0196650Y0193023D01*
X0196650Y0194621D02*
X0152215Y0194621D01*
X0151441Y0196220D02*
X0196650Y0196220D01*
X0196650Y0191424D02*
X0152400Y0191424D01*
X0143312Y0188227D02*
X0140288Y0188227D01*
X0141738Y0189826D02*
X0141862Y0189826D01*
X0133312Y0188227D02*
X0130288Y0188227D01*
X0131738Y0189826D02*
X0131862Y0189826D01*
X0124084Y0149863D02*
X0124083Y0149863D01*
X0124083Y0113666D02*
X0123934Y0113666D01*
X0130152Y0106703D02*
X0154000Y0106703D01*
X0154000Y0105105D02*
X0131067Y0105105D01*
X0131283Y0103506D02*
X0154000Y0103506D01*
X0154000Y0101908D02*
X0130934Y0101908D01*
X0129832Y0100309D02*
X0154000Y0100309D01*
X0154000Y0098711D02*
X0113600Y0098711D01*
X0113600Y0100309D02*
X0118335Y0100309D01*
X0118878Y0097566D02*
X0117584Y0096272D01*
X0116883Y0094581D01*
X0116883Y0092751D01*
X0117584Y0091060D01*
X0118878Y0089766D01*
X0120568Y0089066D01*
X0127598Y0089066D01*
X0129289Y0089766D01*
X0130583Y0091060D01*
X0131283Y0092751D01*
X0131283Y0094581D01*
X0130583Y0096272D01*
X0129289Y0097566D01*
X0127598Y0098266D01*
X0120568Y0098266D01*
X0118878Y0097566D01*
X0118424Y0097112D02*
X0113600Y0097112D01*
X0113600Y0095514D02*
X0117270Y0095514D01*
X0116883Y0093915D02*
X0113600Y0093915D01*
X0113600Y0092317D02*
X0117063Y0092317D01*
X0117926Y0090718D02*
X0113600Y0090718D01*
X0113600Y0089120D02*
X0120439Y0089120D01*
X0120568Y0088266D02*
X0118878Y0087566D01*
X0117584Y0086272D01*
X0116883Y0084581D01*
X0116883Y0082751D01*
X0117584Y0081060D01*
X0118878Y0079766D01*
X0120568Y0079066D01*
X0127598Y0079066D01*
X0129289Y0079766D01*
X0130583Y0081060D01*
X0131283Y0082751D01*
X0131283Y0084581D01*
X0130583Y0086272D01*
X0129289Y0087566D01*
X0127598Y0088266D01*
X0120568Y0088266D01*
X0118833Y0087521D02*
X0113600Y0087521D01*
X0113600Y0085923D02*
X0117439Y0085923D01*
X0116883Y0084324D02*
X0113600Y0084324D01*
X0113600Y0082726D02*
X0116894Y0082726D01*
X0117556Y0081127D02*
X0113600Y0081127D01*
X0113600Y0079529D02*
X0119452Y0079529D01*
X0119794Y0077744D02*
X0119177Y0077429D01*
X0118617Y0077022D01*
X0118127Y0076533D01*
X0117720Y0075972D01*
X0117406Y0075355D01*
X0117192Y0074696D01*
X0117083Y0074012D01*
X0117083Y0073666D01*
X0117083Y0073320D01*
X0117192Y0072636D01*
X0117406Y0071977D01*
X0117720Y0071360D01*
X0118127Y0070800D01*
X0118617Y0070310D01*
X0119177Y0069903D01*
X0119794Y0069588D01*
X0120453Y0069374D01*
X0121137Y0069266D01*
X0124083Y0069266D01*
X0124083Y0073666D01*
X0117083Y0073666D01*
X0124083Y0073666D01*
X0124083Y0073666D01*
X0124084Y0073666D01*
X0124084Y0073666D01*
X0131083Y0073666D01*
X0131083Y0073320D01*
X0130975Y0072636D01*
X0130761Y0071977D01*
X0130447Y0071360D01*
X0130040Y0070800D01*
X0129550Y0070310D01*
X0128990Y0069903D01*
X0128372Y0069588D01*
X0127714Y0069374D01*
X0127030Y0069266D01*
X0124084Y0069266D01*
X0124084Y0073666D01*
X0131083Y0073666D01*
X0131083Y0074012D01*
X0130975Y0074696D01*
X0130761Y0075355D01*
X0130447Y0075972D01*
X0130040Y0076533D01*
X0129550Y0077022D01*
X0128990Y0077429D01*
X0128372Y0077744D01*
X0127714Y0077958D01*
X0127030Y0078066D01*
X0124084Y0078066D01*
X0124084Y0073666D01*
X0124083Y0073666D01*
X0124083Y0078066D01*
X0121137Y0078066D01*
X0120453Y0077958D01*
X0119794Y0077744D01*
X0120368Y0077930D02*
X0113600Y0077930D01*
X0113600Y0076332D02*
X0117981Y0076332D01*
X0117204Y0074733D02*
X0113600Y0074733D01*
X0113600Y0073134D02*
X0117113Y0073134D01*
X0117631Y0071536D02*
X0113600Y0071536D01*
X0113600Y0069937D02*
X0119130Y0069937D01*
X0124083Y0069937D02*
X0124084Y0069937D01*
X0124083Y0071536D02*
X0124084Y0071536D01*
X0124083Y0073134D02*
X0124084Y0073134D01*
X0124083Y0074733D02*
X0124084Y0074733D01*
X0124083Y0076332D02*
X0124084Y0076332D01*
X0124083Y0077930D02*
X0124084Y0077930D01*
X0127799Y0077930D02*
X0154000Y0077930D01*
X0154000Y0076332D02*
X0130186Y0076332D01*
X0130963Y0074733D02*
X0154000Y0074733D01*
X0154000Y0073134D02*
X0131054Y0073134D01*
X0130536Y0071536D02*
X0154000Y0071536D01*
X0154000Y0069937D02*
X0129037Y0069937D01*
X0130115Y0066740D02*
X0154000Y0066740D01*
X0154000Y0065142D02*
X0131051Y0065142D01*
X0131283Y0063543D02*
X0154000Y0063543D01*
X0154000Y0061945D02*
X0130949Y0061945D01*
X0128715Y0079529D02*
X0154000Y0079529D01*
X0154000Y0081127D02*
X0130611Y0081127D01*
X0131273Y0082726D02*
X0144025Y0082726D01*
X0143543Y0082925D02*
X0145656Y0082050D01*
X0147944Y0082050D01*
X0150057Y0082925D01*
X0151675Y0084543D01*
X0152550Y0086656D01*
X0152550Y0088944D01*
X0151675Y0091057D01*
X0150057Y0092675D01*
X0147944Y0093550D01*
X0145656Y0093550D01*
X0143543Y0092675D01*
X0141925Y0091057D01*
X0141050Y0088944D01*
X0141050Y0086656D01*
X0141925Y0084543D01*
X0143543Y0082925D01*
X0142144Y0084324D02*
X0131283Y0084324D01*
X0130728Y0085923D02*
X0141354Y0085923D01*
X0141050Y0087521D02*
X0129334Y0087521D01*
X0127728Y0089120D02*
X0141123Y0089120D01*
X0141785Y0090718D02*
X0130241Y0090718D01*
X0131103Y0092317D02*
X0143185Y0092317D01*
X0150415Y0092317D02*
X0154000Y0092317D01*
X0154000Y0093915D02*
X0131283Y0093915D01*
X0130897Y0095514D02*
X0154000Y0095514D01*
X0154000Y0097112D02*
X0129743Y0097112D01*
X0149575Y0082726D02*
X0154000Y0082726D01*
X0154000Y0084324D02*
X0151456Y0084324D01*
X0152246Y0085923D02*
X0154000Y0085923D01*
X0154000Y0087521D02*
X0152550Y0087521D01*
X0152477Y0089120D02*
X0154000Y0089120D01*
X0154000Y0090718D02*
X0151815Y0090718D01*
X0159600Y0095514D02*
X0168417Y0095514D01*
X0169916Y0097112D02*
X0159600Y0097112D01*
X0159600Y0098711D02*
X0172751Y0098711D01*
X0174000Y0100309D02*
X0159600Y0100309D01*
X0159600Y0101908D02*
X0174000Y0101908D01*
X0174000Y0103506D02*
X0159600Y0103506D01*
X0159600Y0105105D02*
X0174000Y0105105D01*
X0174000Y0106703D02*
X0159600Y0106703D01*
X0159600Y0108302D02*
X0174000Y0108302D01*
X0174000Y0109900D02*
X0159600Y0109900D01*
X0159600Y0111499D02*
X0174000Y0111499D01*
X0174000Y0113097D02*
X0159600Y0113097D01*
X0159600Y0114696D02*
X0174000Y0114696D01*
X0174000Y0116294D02*
X0159600Y0116294D01*
X0159600Y0117893D02*
X0174000Y0117893D01*
X0174000Y0119491D02*
X0159600Y0119491D01*
X0159600Y0121090D02*
X0174000Y0121090D01*
X0174000Y0122688D02*
X0159600Y0122688D01*
X0159600Y0124287D02*
X0174000Y0124287D01*
X0174000Y0125885D02*
X0159600Y0125885D01*
X0159600Y0127484D02*
X0174000Y0127484D01*
X0174000Y0129082D02*
X0159600Y0129082D01*
X0159600Y0130681D02*
X0174000Y0130681D01*
X0174000Y0132279D02*
X0159600Y0132279D01*
X0159600Y0133878D02*
X0174000Y0133878D01*
X0174000Y0135476D02*
X0159600Y0135476D01*
X0179600Y0116294D02*
X0179958Y0116294D01*
X0166800Y0092317D02*
X0166800Y0092317D01*
X0166800Y0090718D02*
X0166800Y0090718D01*
X0166800Y0089120D02*
X0166800Y0089120D01*
X0154000Y0068339D02*
X0113600Y0068339D01*
X0108000Y0090718D02*
X0099958Y0090718D01*
X0100871Y0092317D02*
X0108000Y0092317D01*
X0108000Y0093915D02*
X0101083Y0093915D01*
X0100680Y0095514D02*
X0108000Y0095514D01*
X0108000Y0097112D02*
X0099426Y0097112D01*
X0094084Y0097112D02*
X0094083Y0097112D01*
X0094083Y0095514D02*
X0094084Y0095514D01*
X0094083Y0093915D02*
X0094084Y0093915D01*
X0094083Y0092317D02*
X0094084Y0092317D01*
X0094083Y0090718D02*
X0094084Y0090718D01*
X0128320Y0037967D02*
X0145007Y0037967D01*
X0149730Y0034770D02*
X0153607Y0034770D01*
X0152400Y0036369D02*
X0151329Y0036369D01*
X0148131Y0033172D02*
X0164000Y0033172D01*
X0164000Y0031573D02*
X0146533Y0031573D01*
X0144934Y0029975D02*
X0164000Y0029975D01*
X0164000Y0028376D02*
X0143336Y0028376D01*
X0141737Y0026778D02*
X0164000Y0026778D01*
X0164000Y0025179D02*
X0140139Y0025179D01*
X0138540Y0023581D02*
X0164000Y0023581D01*
X0164000Y0021982D02*
X0158840Y0021982D01*
X0158623Y0022200D02*
X0156800Y0022200D01*
X0156800Y0017800D01*
X0156800Y0037800D01*
X0161200Y0037800D01*
X0156800Y0037800D01*
X0156800Y0037800D01*
X0156800Y0033400D01*
X0156800Y0037800D01*
X0156800Y0037800D01*
X0156800Y0036369D02*
X0156800Y0036369D01*
X0156800Y0034770D02*
X0156800Y0034770D01*
X0159993Y0034770D02*
X0163324Y0034770D01*
X0162200Y0036369D02*
X0161200Y0036369D01*
X0161200Y0037967D02*
X0162200Y0037967D01*
X0162200Y0039566D02*
X0161200Y0039566D01*
X0166800Y0037800D02*
X0166800Y0017800D01*
X0164105Y0013990D02*
X0159212Y0013990D01*
X0158623Y0013400D02*
X0161200Y0015977D01*
X0161200Y0017800D01*
X0161200Y0019623D01*
X0158623Y0022200D01*
X0156800Y0022200D02*
X0154977Y0022200D01*
X0152400Y0019623D01*
X0152400Y0017800D01*
X0156800Y0017800D01*
X0161200Y0017800D01*
X0156800Y0017800D01*
X0156800Y0017800D01*
X0156800Y0017800D01*
X0156800Y0013400D01*
X0158623Y0013400D01*
X0156800Y0013400D02*
X0156800Y0017800D01*
X0156800Y0017800D01*
X0156800Y0017800D01*
X0156800Y0022200D01*
X0156800Y0021982D02*
X0156800Y0021982D01*
X0156800Y0020384D02*
X0156800Y0020384D01*
X0156800Y0018785D02*
X0156800Y0018785D01*
X0156800Y0017800D02*
X0152400Y0017800D01*
X0152400Y0015977D01*
X0154977Y0013400D01*
X0156800Y0013400D01*
X0156800Y0013990D02*
X0156800Y0013990D01*
X0156800Y0015588D02*
X0156800Y0015588D01*
X0156800Y0017187D02*
X0156800Y0017187D01*
X0154388Y0013990D02*
X0095570Y0013990D01*
X0093972Y0015588D02*
X0152789Y0015588D01*
X0152400Y0017187D02*
X0092373Y0017187D01*
X0090775Y0018785D02*
X0152400Y0018785D01*
X0153161Y0020384D02*
X0089176Y0020384D01*
X0088600Y0021982D02*
X0154760Y0021982D01*
X0160439Y0020384D02*
X0162878Y0020384D01*
X0162200Y0018785D02*
X0161200Y0018785D01*
X0161200Y0017187D02*
X0162200Y0017187D01*
X0162507Y0015588D02*
X0160811Y0015588D01*
X0138174Y0023214D02*
X0138174Y0023214D01*
X0117060Y0023581D02*
X0088600Y0023581D01*
X0088600Y0025179D02*
X0115461Y0025179D01*
X0113863Y0026778D02*
X0088600Y0026778D01*
X0088600Y0028376D02*
X0112264Y0028376D01*
X0110666Y0029975D02*
X0099497Y0029975D01*
X0088670Y0029975D02*
X0088600Y0029975D01*
X0190816Y0143469D02*
X0192591Y0143469D01*
X0191581Y0145068D02*
X0196650Y0145068D01*
X0196650Y0146666D02*
X0191534Y0146666D01*
X0190683Y0148265D02*
X0196650Y0148265D01*
X0196650Y0143469D02*
X0195009Y0143469D01*
X0196505Y0188227D02*
X0196650Y0188227D01*
X0196650Y0189826D02*
X0194095Y0189826D01*
X0067159Y0196220D02*
X0011441Y0196220D01*
X0012215Y0194621D02*
X0066385Y0194621D01*
D19*
X0080800Y0163800D03*
X0080800Y0147800D03*
X0026800Y0132800D03*
X0054800Y0081800D03*
X0041800Y0072800D03*
X0065800Y0045800D03*
X0147800Y0149800D03*
X0182800Y0118800D03*
X0171800Y0093800D03*
X0187800Y0145800D03*
M02*
