G75*
%MOIN*%
%OFA0B0*%
%FSLAX25Y25*%
%IPPOS*%
%LPD*%
%AMOC8*
5,1,8,0,0,1.08239X$1,22.5*
%
%ADD10C,0.00000*%
%ADD11OC8,0.05600*%
%ADD12C,0.07900*%
%ADD13OC8,0.07900*%
%ADD14C,0.07800*%
%ADD15C,0.05600*%
%ADD16C,0.05550*%
%ADD17C,0.11620*%
D10*
X0001800Y0002800D02*
X0001800Y0199650D01*
X0198650Y0199650D01*
X0198650Y0002800D01*
X0001800Y0002800D01*
D11*
X0031800Y0017800D03*
X0041800Y0017800D03*
X0016800Y0047800D03*
X0006800Y0047800D03*
X0036800Y0057800D03*
X0046800Y0057800D03*
X0026800Y0102800D03*
X0026800Y0122800D03*
X0030800Y0155800D03*
X0033800Y0172800D03*
X0043800Y0172800D03*
X0046800Y0187800D03*
X0056800Y0187800D03*
X0065800Y0172800D03*
X0075800Y0172800D03*
X0070800Y0155800D03*
X0066800Y0122800D03*
X0066800Y0102800D03*
X0156800Y0037800D03*
X0161800Y0045300D03*
X0166800Y0037800D03*
X0166800Y0017800D03*
X0156800Y0017800D03*
D12*
X0146800Y0087800D03*
X0056800Y0022800D03*
D13*
X0076800Y0022800D03*
X0166800Y0087800D03*
D14*
X0193800Y0087800D03*
X0193800Y0077800D03*
X0193800Y0067800D03*
X0193800Y0097800D03*
X0193800Y0107800D03*
X0193800Y0117800D03*
X0193800Y0127800D03*
X0193800Y0137800D03*
X0146800Y0192800D03*
X0136800Y0192800D03*
X0126800Y0192800D03*
X0116800Y0192800D03*
X0106800Y0192800D03*
X0091800Y0192800D03*
X0071800Y0192800D03*
X0006800Y0192800D03*
X0006800Y0182800D03*
X0006800Y0172800D03*
X0006800Y0162800D03*
X0006800Y0152800D03*
X0006800Y0137800D03*
X0006800Y0127800D03*
X0006800Y0117800D03*
X0006800Y0107800D03*
X0006800Y0097800D03*
X0006800Y0087800D03*
X0006800Y0077800D03*
X0006800Y0067800D03*
X0066800Y0062800D03*
X0066800Y0072800D03*
X0066800Y0082800D03*
X0096800Y0007800D03*
X0116800Y0007800D03*
D15*
X0121483Y0033666D02*
X0126683Y0033666D01*
X0126683Y0043666D02*
X0121483Y0043666D01*
X0121483Y0053666D02*
X0126683Y0053666D01*
X0126683Y0063666D02*
X0121483Y0063666D01*
X0121483Y0073666D02*
X0126683Y0073666D01*
X0126683Y0083666D02*
X0121483Y0083666D01*
X0121483Y0093666D02*
X0126683Y0093666D01*
X0126683Y0103666D02*
X0121483Y0103666D01*
X0121483Y0113666D02*
X0126683Y0113666D01*
X0126683Y0123666D02*
X0121483Y0123666D01*
X0121483Y0133666D02*
X0126683Y0133666D01*
X0126683Y0143666D02*
X0121483Y0143666D01*
X0121483Y0153666D02*
X0126683Y0153666D01*
X0126683Y0163666D02*
X0121483Y0163666D01*
X0096683Y0163666D02*
X0091483Y0163666D01*
X0091483Y0153666D02*
X0096683Y0153666D01*
X0096683Y0143666D02*
X0091483Y0143666D01*
X0091483Y0133666D02*
X0096683Y0133666D01*
X0096683Y0123666D02*
X0091483Y0123666D01*
X0091483Y0113666D02*
X0096683Y0113666D01*
X0096683Y0103666D02*
X0091483Y0103666D01*
X0091483Y0093666D02*
X0096683Y0093666D01*
X0096683Y0083666D02*
X0091483Y0083666D01*
X0091483Y0073666D02*
X0096683Y0073666D01*
X0096683Y0063666D02*
X0091483Y0063666D01*
X0091483Y0053666D02*
X0096683Y0053666D01*
X0096683Y0043666D02*
X0091483Y0043666D01*
X0091483Y0033666D02*
X0096683Y0033666D01*
D16*
X0170501Y0162721D03*
X0173650Y0167446D03*
X0176800Y0162721D03*
X0179950Y0167446D03*
X0183099Y0162721D03*
D17*
X0191170Y0182800D03*
X0162430Y0182800D03*
M02*
